<?xml version="1.0" encoding="UTF-8"?>
<svg version="1.1" xmlns="http://www.w3.org/2000/svg" width="1759" height="412">
<path d="M0 0 C11.02428398 8.75568133 15.59971198 24.89471525 20.859375 37.57421875 C21.54973653 39.22785286 22.24067069 40.881248 22.93212891 42.53442383 C24.02542725 45.14857177 25.11834345 47.76287299 26.20950317 50.37791443 C30.0405546 59.55806269 33.91622991 68.71919762 37.79223633 77.88043213 C44.28075343 93.22239328 50.75208312 108.57170432 57.1975708 123.93179321 C57.95615857 125.73875445 58.71552328 127.54538976 59.47576904 129.35165405 C61.54394178 134.26666394 63.59786693 139.18708975 65.62524414 144.11907959 C66.29523366 145.74797188 66.96837316 147.3755713 67.64428711 149.00201416 C68.65091498 151.43374697 69.6401561 153.87187597 70.625 156.3125 C70.92718445 157.03616257 71.2293689 157.75982513 71.54071045 158.50541687 C73.62571495 163.7509557 74.4460946 168.39124683 72.9453125 173.98828125 C70.10466326 180.3393263 67.24648198 183.81440216 60.796875 186.82421875 C52.84986677 188.53827935 47.57099071 187.68667857 40.609375 183.51171875 C38.27453391 181.80987609 36.12980161 179.94462669 33.984375 178.01171875 C32.76321646 176.93857943 31.54185656 175.86566921 30.3203125 174.79296875 C29.70510742 174.24769531 29.08990234 173.70242188 28.45605469 173.140625 C25.53549797 170.56448084 22.57142001 168.03990785 19.609375 165.51171875 C18.44247835 164.51198713 17.27581209 163.51198652 16.109375 162.51171875 C15.243125 161.76921875 15.243125 161.76921875 14.359375 161.01171875 C-0.515625 148.26171875 -0.515625 148.26171875 -15.390625 135.51171875 C-18.17885737 136.80095856 -20.38059102 138.19791406 -22.67578125 140.234375 C-23.28292969 140.76804687 -23.89007813 141.30171875 -24.515625 141.8515625 C-25.4746875 142.70427734 -25.4746875 142.70427734 -26.453125 143.57421875 C-27.80753814 144.76422336 -29.16301239 145.95302132 -30.51953125 147.140625 C-31.18227051 147.72086426 -31.84500977 148.30110352 -32.52783203 148.89892578 C-34.9411316 150.98834347 -37.40723172 153.006332 -39.890625 155.01171875 C-44.23650859 158.53349404 -48.48205889 162.15498927 -52.703125 165.82421875 C-53.33412109 166.37126465 -53.96511719 166.91831055 -54.61523438 167.48193359 C-57.83064922 170.27293331 -61.03195916 173.07820022 -64.21484375 175.90625 C-65.44003764 176.98314861 -66.66529555 178.05997439 -67.890625 179.13671875 C-68.44145752 179.63341064 -68.99229004 180.13010254 -69.55981445 180.6418457 C-75.39222119 185.73934976 -81.04769578 188.14953852 -88.90234375 187.8515625 C-94.70444214 187.0591252 -98.92199068 184.45530088 -102.890625 180.19921875 C-106.72413276 174.30784205 -106.39922642 167.26131746 -105.390625 160.51171875 C-103.99359579 155.90352159 -102.10932046 151.63097569 -100.01080322 147.31222534 C-98.60868323 144.423239 -97.27386358 141.5044803 -95.93331909 138.58653259 C-95.21116531 137.0153746 -94.48595294 135.44561919 -93.75784302 133.87721252 C-89.42180786 124.5088822 -85.47382074 114.98172148 -81.515625 105.44921875 C-80.75595321 103.62668339 -79.99602369 101.80425543 -79.23583984 99.98193359 C-75.09834161 90.05612882 -70.98301722 80.12110721 -66.87011719 70.18508911 C-65.09136004 65.88797841 -63.31104837 61.59152915 -61.52636719 57.296875 C-61.00913086 56.05213913 -61.00913086 56.05213913 -60.48144531 54.78225708 C-59.7940823 53.12828983 -59.10658365 51.47437893 -58.41894531 49.82052612 C-56.40471288 44.97106099 -54.40856353 40.11462853 -52.42614746 35.2520752 C-51.17754658 32.19729032 -49.91633539 29.14781973 -48.65222168 26.09942627 C-48.07177736 24.69171092 -47.49676843 23.28173913 -46.92785645 21.86932373 C-42.63708065 11.22583218 -38.1512961 2.50774462 -27.390625 -2.48828125 C-17.99844698 -5.90361871 -8.54762867 -5.32131785 0 0 Z M-16.390625 58.51171875 C-18.4972655 62.2186519 -20.60049497 65.92750956 -22.703125 69.63671875 C-23.29802734 70.6834375 -23.89292969 71.73015625 -24.50585938 72.80859375 C-25.08271484 73.82695312 -25.65957031 74.8453125 -26.25390625 75.89453125 C-26.78282471 76.82668457 -27.31174316 77.75883789 -27.85668945 78.71923828 C-31.23329737 83.87944451 -31.23329737 83.87944451 -31.97265625 89.58203125 C-29.69881827 92.35555214 -26.99645781 94.35263107 -24.078125 96.38671875 C-23.50900391 96.8146875 -22.93988281 97.24265625 -22.35351562 97.68359375 C-19.72305872 99.53185968 -18.14625471 100.63963099 -14.8984375 100.08984375 C-11.63265688 98.03474193 -8.59563233 95.78861421 -5.578125 93.38671875 C-4.98064453 92.91878906 -4.38316406 92.45085937 -3.76757812 91.96875 C-2.30445708 90.8216631 -0.84696203 89.66740641 0.609375 88.51171875 C-3.27151392 80.65921884 -7.17701896 72.82105125 -11.265625 65.07421875 C-11.81992188 64.02363281 -12.37421875 62.97304688 -12.9453125 61.890625 C-14.16918586 59.40068947 -14.16918586 59.40068947 -16.390625 58.51171875 Z M-45.390625 110.51171875 C-46.75464543 112.79801995 -48.10696774 115.08993624 -49.453125 117.38671875 C-49.84306641 118.03769531 -50.23300781 118.68867188 -50.63476562 119.359375 C-51.61507033 121.042376 -52.50960932 122.77468074 -53.390625 124.51171875 C-53.060625 125.17171875 -52.730625 125.83171875 -52.390625 126.51171875 C-47.770625 123.21171875 -43.150625 119.91171875 -38.390625 116.51171875 C-40.040625 114.53171875 -41.690625 112.55171875 -43.390625 110.51171875 C-44.050625 110.51171875 -44.710625 110.51171875 -45.390625 110.51171875 Z M5.609375 114.51171875 C6.91061346 118.41543412 8.72653218 119.32877895 12.046875 121.69921875 C13.52994141 122.77236328 13.52994141 122.77236328 15.04296875 123.8671875 C17.38201428 125.69156087 17.38201428 125.69156087 19.609375 125.51171875 C18.06392354 120.03239086 15.45394288 115.39742694 12.609375 110.51171875 C9.47614075 110.51171875 7.92916716 112.55820956 5.609375 114.51171875 Z " fill="#FFFFFF" transform="translate(105.390625,199.48828125)"/>
<path d="M0 0 C0 44.88 0 89.76 0 136 C-13.53 136 -27.06 136 -41 136 C-41 122.8 -41 109.6 -41 96 C-44.50625 96.103125 -48.0125 96.20625 -51.625 96.3125 C-53.265896 96.34984253 -53.265896 96.34984253 -54.93994141 96.38793945 C-61.61182136 96.63946602 -66.46249883 97.32152655 -71.25 102.375 C-77.03610162 111.05415244 -77.02960756 122.2224258 -75.50390625 132.265625 C-74.23284034 138.09672964 -73.15413956 142.48581394 -68 146 C-62.5523719 147.92012526 -57.68412901 148.30623328 -51.98828125 148.34375 C-50.71406563 148.3656842 -50.71406563 148.3656842 -49.41410828 148.38806152 C-46.71361964 148.43424939 -44.01319832 148.4685881 -41.3125 148.5 C-8.47087102 148.8857786 -8.47087102 148.8857786 -1 156 C3.37321699 163.61786185 3.14237863 171.9027758 3.0625 180.4375 C3.05798828 181.35982422 3.05347656 182.28214844 3.04882812 183.23242188 C3.03713938 185.48835048 3.02075455 187.74413967 3 190 C-6.31073134 190.06985741 -15.62137088 190.12299123 -24.9323082 190.15543652 C-29.25688764 190.17101747 -33.58128629 190.19211533 -37.90576172 190.22631836 C-42.08792113 190.25918454 -46.26990788 190.27690976 -50.45218658 190.28463173 C-52.03879764 190.29012677 -53.62540046 190.30085557 -55.21193695 190.31719017 C-73.86507516 190.50140345 -90.24519067 186.39723197 -104 173 C-116.26367308 158.64138084 -118.53925429 140.69710198 -118.375 122.4375 C-118.38660156 121.14392578 -118.39820313 119.85035156 -118.41015625 118.51757812 C-118.35738624 100.97155085 -114.50313835 83.81144965 -102.00390625 70.9453125 C-87.99181772 57.7075105 -71.31449882 53.79282583 -52.5625 53.9375 C-51.44939453 53.94201172 -50.33628906 53.94652344 -49.18945312 53.95117188 C-46.45957899 53.96288807 -43.72981826 53.97929301 -41 54 C-41.01047363 53.11852295 -41.02094727 52.2370459 -41.03173828 51.32885742 C-41.06616559 48.00575049 -41.09106467 44.68283768 -41.10986328 41.35961914 C-41.1198174 39.93120298 -41.13338562 38.50280662 -41.15087891 37.07446289 C-41.44965523 12.02118962 -41.44965523 12.02118962 -34 4 C-23.89967006 -1.90774016 -11.1194197 0 0 0 Z " fill="#FFFFFF" transform="translate(1572,41)"/>
<path d="M0 0 C1.5045631 0.00561367 3.00913179 0.00987536 4.51370239 0.01286316 C8.42307388 0.02417294 12.33209677 0.05351559 16.24133301 0.0869751 C20.25068449 0.11797999 24.26009376 0.13143264 28.26953125 0.14648438 C36.09911514 0.17840279 43.92841449 0.22942484 51.7578125 0.29296875 C48.36371513 15.43969585 44.30652818 30.40333213 40.24780273 45.38208008 C39.25587766 49.04279524 38.26843052 52.70470133 37.28226948 56.36697292 C36.51780264 59.20431963 35.75125046 62.04109954 34.98402977 64.87770271 C34.6186167 66.2295628 34.25380561 67.58158577 33.8896122 68.93377495 C33.38464121 70.80724653 32.87660171 72.67989022 32.3684082 74.55249023 C31.93683159 76.14769753 31.93683159 76.14769753 31.49653625 77.77513123 C30.7578125 80.29296875 30.7578125 80.29296875 29.7578125 82.29296875 C16.5578125 82.29296875 3.3578125 82.29296875 -10.2421875 82.29296875 C-9.54705434 76.73190344 -8.71924051 71.81488437 -7.17578125 66.51171875 C-6.97743179 65.81276489 -6.77908234 65.11381104 -6.57472229 64.39367676 C-5.94853323 62.19183017 -5.31427133 59.9924088 -4.6796875 57.79296875 C-4.25011176 56.28791424 -3.82107044 54.78270708 -3.39257812 53.27734375 C-2.34860965 49.61409407 -1.29740157 45.95299417 -0.2421875 42.29296875 C-2.45123381 42.38072538 -4.65947343 42.48891242 -6.8671875 42.60546875 C-8.71183594 42.69248047 -8.71183594 42.69248047 -10.59375 42.78125 C-15.06946761 43.40900054 -18.38757606 44.90201017 -21.9921875 47.60546875 C-27.28863827 54.75567729 -26.81069419 65.81705082 -26.2421875 74.29296875 C-25.38604567 79.92867405 -24.39792631 84.71987981 -20.9921875 89.35546875 C-14.55347861 93.89183183 -9.3349743 94.72621934 -1.64453125 94.69921875 C-0.73320938 94.71005493 0.17811249 94.72089111 1.11705017 94.73205566 C4.01820962 94.7661372 6.91897993 94.78185531 9.8203125 94.79296875 C41.72944857 94.9167832 41.72944857 94.9167832 50.0078125 101.04296875 C56.78666361 107.97511046 55.82072165 119.55569211 55.78125 128.609375 C55.77955811 129.34965942 55.77786621 130.08994385 55.77612305 130.85266113 C55.77173392 132.66610196 55.76500919 134.47953689 55.7578125 136.29296875 C46.1863125 136.36281175 36.61490169 136.41595281 27.04320145 136.44840527 C22.59755634 136.46398929 18.15208697 136.48509299 13.70654297 136.51928711 C9.40767465 136.55214204 5.10897422 136.56987622 0.80998993 136.57760048 C-0.82127776 136.5830975 -2.45253738 136.5938303 -4.0837326 136.61015892 C-22.91820851 136.79101241 -39.31861851 132.7938999 -53.2421875 119.29296875 C-65.56862017 105.62340984 -68.6141248 88.4483414 -68.55786133 70.63574219 C-68.55471334 68.56000564 -68.57819792 66.48571657 -68.60351562 64.41015625 C-68.68907587 46.47923017 -64.71216591 29.68871368 -52.38671875 16.2734375 C-38.21620055 2.36878268 -18.97130973 -0.21188912 0 0 Z " fill="#FFFFFF" transform="translate(1673.2421875,94.70703125)"/>
<path d="M0 0 C1.5045631 0.00561367 3.00913179 0.00987536 4.51370239 0.01286316 C8.42307388 0.02417294 12.33209677 0.05351559 16.24133301 0.0869751 C20.25068449 0.11797999 24.26009376 0.13143264 28.26953125 0.14648438 C36.09911514 0.17840279 43.92841449 0.22942484 51.7578125 0.29296875 C48.36371513 15.43969585 44.30652818 30.40333213 40.24780273 45.38208008 C39.25587766 49.04279524 38.26843052 52.70470133 37.28226948 56.36697292 C36.51780264 59.20431963 35.75125046 62.04109954 34.98402977 64.87770271 C34.6186167 66.2295628 34.25380561 67.58158577 33.8896122 68.93377495 C33.38464121 70.80724653 32.87660171 72.67989022 32.3684082 74.55249023 C31.93683159 76.14769753 31.93683159 76.14769753 31.49653625 77.77513123 C30.7578125 80.29296875 30.7578125 80.29296875 29.7578125 82.29296875 C16.5578125 82.29296875 3.3578125 82.29296875 -10.2421875 82.29296875 C-9.54705434 76.73190344 -8.71924051 71.81488437 -7.17578125 66.51171875 C-6.97743179 65.81276489 -6.77908234 65.11381104 -6.57472229 64.39367676 C-5.94853323 62.19183017 -5.31427133 59.9924088 -4.6796875 57.79296875 C-4.25011176 56.28791424 -3.82107044 54.78270708 -3.39257812 53.27734375 C-2.34860965 49.61409407 -1.29740157 45.95299417 -0.2421875 42.29296875 C-2.45123381 42.38072538 -4.65947343 42.48891242 -6.8671875 42.60546875 C-8.71183594 42.69248047 -8.71183594 42.69248047 -10.59375 42.78125 C-15.06946761 43.40900054 -18.38757606 44.90201017 -21.9921875 47.60546875 C-27.28863827 54.75567729 -26.81069419 65.81705082 -26.2421875 74.29296875 C-25.38604567 79.92867405 -24.39792631 84.71987981 -20.9921875 89.35546875 C-14.55347861 93.89183183 -9.3349743 94.72621934 -1.64453125 94.69921875 C-0.73320938 94.71005493 0.17811249 94.72089111 1.11705017 94.73205566 C4.01820962 94.7661372 6.91897993 94.78185531 9.8203125 94.79296875 C41.72944857 94.9167832 41.72944857 94.9167832 50.0078125 101.04296875 C56.78666361 107.97511046 55.82072165 119.55569211 55.78125 128.609375 C55.77955811 129.34965942 55.77786621 130.08994385 55.77612305 130.85266113 C55.77173392 132.66610196 55.76500919 134.47953689 55.7578125 136.29296875 C46.1863125 136.36281175 36.61490169 136.41595281 27.04320145 136.44840527 C22.59755634 136.46398929 18.15208697 136.48509299 13.70654297 136.51928711 C9.40767465 136.55214204 5.10897422 136.56987622 0.80998993 136.57760048 C-0.82127776 136.5830975 -2.45253738 136.5938303 -4.0837326 136.61015892 C-22.91820851 136.79101241 -39.31861851 132.7938999 -53.2421875 119.29296875 C-65.56862017 105.62340984 -68.6141248 88.4483414 -68.55786133 70.63574219 C-68.55471334 68.56000564 -68.57819792 66.48571657 -68.60351562 64.41015625 C-68.68907587 46.47923017 -64.71216591 29.68871368 -52.38671875 16.2734375 C-38.21620055 2.36878268 -18.97130973 -0.21188912 0 0 Z " fill="#FFFFFF" transform="translate(488.2421875,94.70703125)"/>
<path d="M0 0 C85.26198083 0 85.26198083 0 104 17 C118.56661986 33.27406248 119.49319948 55.3273627 119.29296875 76.0390625 C119.28735261 77.78453196 119.2830921 79.53000624 119.28010559 81.27548218 C119.26881525 85.80291501 119.23949058 90.33004515 119.20599365 94.85736084 C119.16945778 100.32508084 119.15605608 105.79290377 119.13863373 111.26071167 C119.10983868 119.50734969 119.05224311 127.75332756 119 136 C105.14 136 91.28 136 77 136 C76.96261719 130.47378906 76.92523437 124.94757813 76.88671875 119.25390625 C76.85642098 115.74020397 76.82526132 112.22655124 76.79101562 108.71289062 C76.73681379 103.14333679 76.68569917 97.57388096 76.65356445 92.00415039 C76.62743843 87.51061823 76.58697105 83.01741762 76.53681374 78.52409172 C76.52020766 76.81505413 76.50865458 75.10595927 76.50238609 73.39685249 C77.04348933 59.55120116 77.04348933 59.55120116 71.58403015 47.40211487 C62.91948606 39.7326358 54.71577657 42.57798984 42 42 C42 73.02 42 104.04 42 136 C28.14 136 14.28 136 0 136 C0 91.12 0 46.24 0 0 Z " fill="#FFFFFF" transform="translate(1148,95)"/>
<path d="M0 0 C85.26198083 0 85.26198083 0 104 17 C118.56661986 33.27406248 119.49319948 55.3273627 119.29296875 76.0390625 C119.28735261 77.78453196 119.2830921 79.53000624 119.28010559 81.27548218 C119.26881525 85.80291501 119.23949058 90.33004515 119.20599365 94.85736084 C119.16945778 100.32508084 119.15605608 105.79290377 119.13863373 111.26071167 C119.10983868 119.50734969 119.05224311 127.75332756 119 136 C105.14 136 91.28 136 77 136 C76.96261719 130.47378906 76.92523437 124.94757813 76.88671875 119.25390625 C76.85642098 115.74020397 76.82526132 112.22655124 76.79101562 108.71289062 C76.73681379 103.14333679 76.68569917 97.57388096 76.65356445 92.00415039 C76.62743843 87.51061823 76.58697105 83.01741762 76.53681374 78.52409172 C76.52020766 76.81505413 76.50865458 75.10595927 76.50238609 73.39685249 C77.04348933 59.55120116 77.04348933 59.55120116 71.58403015 47.40211487 C62.91948606 39.7326358 54.71577657 42.57798984 42 42 C42 73.02 42 104.04 42 136 C28.14 136 14.28 136 0 136 C0 91.12 0 46.24 0 0 Z " fill="#FFFFFF" transform="translate(577,95)"/>
<path d="M0 0 C15.61511738 11.00844148 26.21235269 25.83721283 30.40234375 44.59375 C33.21255064 67.41683209 30.12968737 87.805957 15.8828125 106.36328125 C3.85164683 120.571515 -11.31300529 128.42336733 -29.7421875 130.36328125 C-46.76483412 130.98228658 -62.83386845 125.12537167 -75.4921875 113.73828125 C-89.71878496 100.31474234 -97.31554176 83.40705033 -98.33984375 63.9453125 C-98.83249841 44.98881804 -94.05098983 28.92237958 -82.1796875 13.98828125 C-81.72078125 13.35277344 -81.261875 12.71726562 -80.7890625 12.0625 C-62.23588459 -12.2466337 -24.71713429 -15.39053562 0 0 Z M-48.89453125 35.90625 C-56.03174969 45.76573268 -57.13110146 56.04417901 -56.1796875 67.98828125 C-54.53716616 77.04595326 -50.74271225 83.54290343 -43.1796875 88.98828125 C-37.23409076 91.70257541 -31.2337901 91.8361145 -25.0546875 89.92578125 C-18.63953117 87.20877386 -15.49076135 82.16969894 -12.8671875 75.92578125 C-8.83745542 64.80639606 -9.4305331 54.13878356 -13.1796875 42.98828125 C-16.14823948 37.26321672 -20.96303485 32.0604988 -27.1796875 29.98828125 C-35.58708397 29.22850172 -42.98788557 29.29995609 -48.89453125 35.90625 Z " fill="#FFFFFF" transform="translate(1393.1796875,103.01171875)"/>
<path d="M0 0 C15.61511738 11.00844148 26.21235269 25.83721283 30.40234375 44.59375 C33.21255064 67.41683209 30.12968737 87.805957 15.8828125 106.36328125 C3.85164683 120.571515 -11.31300529 128.42336733 -29.7421875 130.36328125 C-46.76483412 130.98228658 -62.83386845 125.12537167 -75.4921875 113.73828125 C-89.71878496 100.31474234 -97.31554176 83.40705033 -98.33984375 63.9453125 C-98.83249841 44.98881804 -94.05098983 28.92237958 -82.1796875 13.98828125 C-81.72078125 13.35277344 -81.261875 12.71726562 -80.7890625 12.0625 C-62.23588459 -12.2466337 -24.71713429 -15.39053562 0 0 Z M-48.89453125 35.90625 C-56.03174969 45.76573268 -57.13110146 56.04417901 -56.1796875 67.98828125 C-54.53716616 77.04595326 -50.74271225 83.54290343 -43.1796875 88.98828125 C-37.23409076 91.70257541 -31.2337901 91.8361145 -25.0546875 89.92578125 C-18.63953117 87.20877386 -15.49076135 82.16969894 -12.8671875 75.92578125 C-8.83745542 64.80639606 -9.4305331 54.13878356 -13.1796875 42.98828125 C-16.14823948 37.26321672 -20.96303485 32.0604988 -27.1796875 29.98828125 C-35.58708397 29.22850172 -42.98788557 29.29995609 -48.89453125 35.90625 Z " fill="#FFFFFF" transform="translate(964.1796875,103.01171875)"/>
<path d="M0 0 C0.80110703 -0.00014603 1.60221405 -0.00029205 2.42759705 -0.0004425 C5.04087152 0.00024684 7.65407216 0.00799278 10.26733398 0.01586914 C12.09293072 0.0177368 13.91852795 0.01915906 15.74412537 0.02015686 C20.52309581 0.02395461 25.30203533 0.03376117 30.08099365 0.04486084 C35.82888398 0.05694403 41.57678472 0.06149027 47.32468414 0.06731415 C56.03345344 0.07697464 64.74215503 0.09615032 73.45092773 0.11352539 C73.45092773 13.97352539 73.45092773 27.83352539 73.45092773 42.11352539 C48.20592773 42.60852539 48.20592773 42.60852539 22.45092773 43.11352539 C30.37092773 50.53852539 30.37092773 50.53852539 38.45092773 58.11352539 C42.95092773 62.61352539 42.95092773 62.61352539 44.74780273 64.44165039 C46.50450781 66.16612234 48.32888079 67.76543653 50.20092773 69.36352539 C54.35506732 72.92888929 58.16257087 76.79642935 62.00610352 80.68823242 C65.51582394 84.22482152 69.12561233 87.58446043 72.92749023 90.80883789 C76.41144114 93.79252918 76.41144114 93.79252918 76.7097168 96.21728516 C76.71310059 97.49817017 76.71310059 97.49817017 76.71655273 98.80493164 C76.72041992 100.22322266 76.72041992 100.22322266 76.72436523 101.67016602 C76.71663086 102.66209961 76.70889648 103.6540332 76.70092773 104.67602539 C76.70866211 105.64088867 76.71639648 106.60575195 76.72436523 107.59985352 C76.70102994 116.23974536 76.18834995 124.26049329 70.45092773 131.11352539 C63.81989546 136.44718179 57.26146637 136.26110241 49.14086914 136.22705078 C48.22315735 136.22719681 47.30544556 136.22734283 46.35992432 136.22749329 C43.34075519 136.22679923 40.32164853 136.21903062 37.30249023 136.21118164 C35.20356276 136.20931566 33.10463485 136.20789261 31.00570679 136.20689392 C25.49182932 136.20308293 19.97797835 136.19326477 14.46411133 136.18218994 C7.84275358 136.17014287 1.22138695 136.16556683 -5.39997864 136.15973663 C-15.44969492 136.15005225 -25.4993531 136.13088575 -35.54907227 136.11352539 C-35.54907227 122.58352539 -35.54907227 109.05352539 -35.54907227 95.11352539 C-6.83907227 94.61852539 -6.83907227 94.61852539 22.45092773 94.11352539 C18.16092773 90.15352539 13.87092773 86.19352539 9.45092773 82.11352539 C4.63842773 77.30102539 4.63842773 77.30102539 2.48608398 75.11743164 C0.57606719 73.23674332 -1.38687817 71.47940034 -3.42407227 69.73852539 C-7.30790521 66.41173622 -10.88318104 62.80916276 -14.47119141 59.171875 C-17.71983157 55.8960827 -21.06515753 52.80678426 -24.59985352 49.84399414 C-25.2430957 49.27293945 -25.88633789 48.70188477 -26.54907227 48.11352539 C-27.31344604 47.50275146 -27.31344604 47.50275146 -28.09326172 46.87963867 C-31.1976241 44.1833464 -32.91448371 42.27216656 -33.24047852 38.08227539 C-33.23348937 36.59208883 -33.18893477 35.10171888 -33.11157227 33.61352539 C-33.08788574 32.8261499 -33.06419922 32.03877441 -33.03979492 31.22753906 C-32.17590797 11.16954404 -32.17590797 11.16954404 -25.14282227 4.30883789 C-18.45346858 -0.70817737 -8.03314079 -0.0393263 0 0 Z " fill="#FFFFFF" transform="translate(763.549072265625,94.886474609375)"/>
<path d="M0 0 C0.80110703 -0.00014603 1.60221405 -0.00029205 2.42759705 -0.0004425 C5.04087152 0.00024684 7.65407216 0.00799278 10.26733398 0.01586914 C12.09293072 0.0177368 13.91852795 0.01915906 15.74412537 0.02015686 C20.52309581 0.02395461 25.30203533 0.03376117 30.08099365 0.04486084 C35.82888398 0.05694403 41.57678472 0.06149027 47.32468414 0.06731415 C56.03345344 0.07697464 64.74215503 0.09615032 73.45092773 0.11352539 C73.45092773 13.97352539 73.45092773 27.83352539 73.45092773 42.11352539 C48.20592773 42.60852539 48.20592773 42.60852539 22.45092773 43.11352539 C30.37092773 50.53852539 30.37092773 50.53852539 38.45092773 58.11352539 C42.95092773 62.61352539 42.95092773 62.61352539 44.74780273 64.44165039 C46.50450781 66.16612234 48.32888079 67.76543653 50.20092773 69.36352539 C54.35506732 72.92888929 58.16257087 76.79642935 62.00610352 80.68823242 C65.51582394 84.22482152 69.12561233 87.58446043 72.92749023 90.80883789 C76.41144114 93.79252918 76.41144114 93.79252918 76.7097168 96.21728516 C76.71310059 97.49817017 76.71310059 97.49817017 76.71655273 98.80493164 C76.72041992 100.22322266 76.72041992 100.22322266 76.72436523 101.67016602 C76.71663086 102.66209961 76.70889648 103.6540332 76.70092773 104.67602539 C76.70866211 105.64088867 76.71639648 106.60575195 76.72436523 107.59985352 C76.70102994 116.23974536 76.18834995 124.26049329 70.45092773 131.11352539 C63.81989546 136.44718179 57.26146637 136.26110241 49.14086914 136.22705078 C48.22315735 136.22719681 47.30544556 136.22734283 46.35992432 136.22749329 C43.34075519 136.22679923 40.32164853 136.21903062 37.30249023 136.21118164 C35.20356276 136.20931566 33.10463485 136.20789261 31.00570679 136.20689392 C25.49182932 136.20308293 19.97797835 136.19326477 14.46411133 136.18218994 C7.84275358 136.17014287 1.22138695 136.16556683 -5.39997864 136.15973663 C-15.44969492 136.15005225 -25.4993531 136.13088575 -35.54907227 136.11352539 C-35.54907227 122.58352539 -35.54907227 109.05352539 -35.54907227 95.11352539 C-6.83907227 94.61852539 -6.83907227 94.61852539 22.45092773 94.11352539 C18.16092773 90.15352539 13.87092773 86.19352539 9.45092773 82.11352539 C4.63842773 77.30102539 4.63842773 77.30102539 2.48608398 75.11743164 C0.57606719 73.23674332 -1.38687817 71.47940034 -3.42407227 69.73852539 C-7.30790521 66.41173622 -10.88318104 62.80916276 -14.47119141 59.171875 C-17.71983157 55.8960827 -21.06515753 52.80678426 -24.59985352 49.84399414 C-25.2430957 49.27293945 -25.88633789 48.70188477 -26.54907227 48.11352539 C-27.31344604 47.50275146 -27.31344604 47.50275146 -28.09326172 46.87963867 C-31.1976241 44.1833464 -32.91448371 42.27216656 -33.24047852 38.08227539 C-33.23348937 36.59208883 -33.18893477 35.10171888 -33.11157227 33.61352539 C-33.08788574 32.8261499 -33.06419922 32.03877441 -33.03979492 31.22753906 C-32.17590797 11.16954404 -32.17590797 11.16954404 -25.14282227 4.30883789 C-18.45346858 -0.70817737 -8.03314079 -0.0393263 0 0 Z " fill="#FFFFFF" transform="translate(315.549072265625,94.886474609375)"/>
<path d="M0 0 C1.42346141 0.00186822 2.84692346 0.00329022 4.27038574 0.00428772 C7.99228737 0.00808107 11.71414913 0.01788368 15.43603516 0.0289917 C19.91488827 0.041087 24.39375481 0.04562323 28.87261963 0.05144501 C35.6546907 0.06109754 42.43667453 0.08027622 49.21875 0.09765625 C49.21875 13.95765625 49.21875 27.81765625 49.21875 42.09765625 C34.03875 42.09765625 18.85875 42.09765625 3.21875 42.09765625 C3.21875 73.11765625 3.21875 104.13765625 3.21875 136.09765625 C-10.64125 136.09765625 -24.50125 136.09765625 -38.78125 136.09765625 C-38.84927696 122.03177446 -38.90421049 107.96600359 -38.93668652 93.8999939 C-38.95228061 87.36718589 -38.97340367 80.83449718 -39.00756836 74.30175781 C-39.04038603 67.98639773 -39.05814995 61.67115173 -39.06588173 55.35571289 C-39.07138525 52.95741991 -39.08213117 50.55913251 -39.09844017 48.16088867 C-39.32701145 13.12658332 -39.32701145 13.12658332 -30.78125 4.09765625 C-28.82421875 2.890625 -28.82421875 2.890625 -26.96875 2.28515625 C-26.36417969 2.07246094 -25.75960938 1.85976562 -25.13671875 1.640625 C-16.83457001 -0.27313731 -8.469632 -0.03283074 0 0 Z " fill="#FFFFFF" transform="translate(1068.78125,94.90234375)"/>
<path d="M0 0 C7.26 0 14.52 0 22 0 C27.89574942 11.16619209 33.75219076 22.35166674 39.5625 33.5625 C39.8753595 34.1660733 40.18821899 34.76964661 40.51055908 35.39151001 C45.76925991 45.53851981 45.76925991 45.53851981 47 48 C47.33 32.16 47.66 16.32 48 0 C55.26 0 62.52 0 70 0 C70 32.01 70 64.02 70 97 C53 97 53 97 47 94 C45.13769531 91.77099609 45.13769531 91.77099609 43.578125 89.1484375 C42.99224609 88.1697168 42.40636719 87.19099609 41.80273438 86.18261719 C38.70092114 80.7065558 35.69375176 75.18754391 32.75 69.625 C31.53749699 67.34580131 30.32399322 65.06713466 29.109375 62.7890625 C28.58311523 61.79600098 28.05685547 60.80293945 27.51464844 59.77978516 C26.08008263 57.14697305 24.54260196 54.57100327 23 52 C22.67 66.85 22.34 81.7 22 97 C14.74 97 7.48 97 0 97 C0 64.99 0 32.98 0 0 Z " fill="#FFFFFF" transform="translate(1089,287)"/>
<path d="M0 0 C10.89845009 7.64766957 15.97398248 17.07099734 18.44311523 29.94482422 C20.74976973 45.61477905 20.60507861 64.83308808 12.16796875 78.74609375 C5.75730371 87.19651585 -1.59190813 92.9797095 -12.14453125 94.74609375 C-24.00591256 95.64939495 -34.16252845 94.47644086 -43.51953125 86.68359375 C-55.10128274 75.25056459 -57.38452229 60.90150829 -57.51953125 45.24609375 C-57.3907834 30.31670707 -55.30111554 16.18174299 -44.76953125 4.80859375 C-41.26292677 1.58004601 -37.55287159 -0.49234053 -33.14453125 -2.25390625 C-32.11328125 -2.66640625 -31.08203125 -3.07890625 -30.01953125 -3.50390625 C-19.88880879 -5.46469124 -9.08278862 -5.31070154 0 0 Z M-29.14453125 20.74609375 C-36.46600987 30.71143965 -36.09091138 43.85012054 -34.83203125 55.68359375 C-33.9081403 61.09495503 -32.40574226 65.30722321 -29.14453125 69.74609375 C-24.65921957 72.90619971 -20.4711832 73.51313163 -15.14453125 72.74609375 C-9.9458591 70.94655339 -7.66421678 68.60548728 -5.14453125 63.74609375 C-3.27163844 57.61038709 -2.8320891 51.6255996 -2.89453125 45.24609375 C-2.88679688 44.45589844 -2.8790625 43.66570312 -2.87109375 42.8515625 C-2.89748318 34.78959296 -3.73577009 27.0563151 -9.14453125 20.74609375 C-15.57392166 16.36241847 -22.74410623 16.2367034 -29.14453125 20.74609375 Z " fill="#FFFFFF" transform="translate(1476.14453125,290.25390625)"/>
<path d="M0 0 C10.89845009 7.64766957 15.97398248 17.07099734 18.44311523 29.94482422 C20.74976973 45.61477905 20.60507861 64.83308808 12.16796875 78.74609375 C5.75730371 87.19651585 -1.59190813 92.9797095 -12.14453125 94.74609375 C-24.00591256 95.64939495 -34.16252845 94.47644086 -43.51953125 86.68359375 C-55.10128274 75.25056459 -57.38452229 60.90150829 -57.51953125 45.24609375 C-57.3907834 30.31670707 -55.30111554 16.18174299 -44.76953125 4.80859375 C-41.26292677 1.58004601 -37.55287159 -0.49234053 -33.14453125 -2.25390625 C-32.11328125 -2.66640625 -31.08203125 -3.07890625 -30.01953125 -3.50390625 C-19.88880879 -5.46469124 -9.08278862 -5.31070154 0 0 Z M-29.14453125 20.74609375 C-36.46600987 30.71143965 -36.09091138 43.85012054 -34.83203125 55.68359375 C-33.9081403 61.09495503 -32.40574226 65.30722321 -29.14453125 69.74609375 C-24.65921957 72.90619971 -20.4711832 73.51313163 -15.14453125 72.74609375 C-9.9458591 70.94655339 -7.66421678 68.60548728 -5.14453125 63.74609375 C-3.27163844 57.61038709 -2.8320891 51.6255996 -2.89453125 45.24609375 C-2.88679688 44.45589844 -2.8790625 43.66570312 -2.87109375 42.8515625 C-2.89748318 34.78959296 -3.73577009 27.0563151 -9.14453125 20.74609375 C-15.57392166 16.36241847 -22.74410623 16.2367034 -29.14453125 20.74609375 Z " fill="#FFFFFF" transform="translate(1260.14453125,290.25390625)"/>
<path d="M0 0 C10.89845009 7.64766957 15.97398248 17.07099734 18.44311523 29.94482422 C20.74976973 45.61477905 20.60507861 64.83308808 12.16796875 78.74609375 C5.75730371 87.19651585 -1.59190813 92.9797095 -12.14453125 94.74609375 C-24.00591256 95.64939495 -34.16252845 94.47644086 -43.51953125 86.68359375 C-55.10128274 75.25056459 -57.38452229 60.90150829 -57.51953125 45.24609375 C-57.3907834 30.31670707 -55.30111554 16.18174299 -44.76953125 4.80859375 C-41.26292677 1.58004601 -37.55287159 -0.49234053 -33.14453125 -2.25390625 C-32.11328125 -2.66640625 -31.08203125 -3.07890625 -30.01953125 -3.50390625 C-19.88880879 -5.46469124 -9.08278862 -5.31070154 0 0 Z M-29.14453125 20.74609375 C-36.46600987 30.71143965 -36.09091138 43.85012054 -34.83203125 55.68359375 C-33.9081403 61.09495503 -32.40574226 65.30722321 -29.14453125 69.74609375 C-24.65921957 72.90619971 -20.4711832 73.51313163 -15.14453125 72.74609375 C-9.9458591 70.94655339 -7.66421678 68.60548728 -5.14453125 63.74609375 C-3.27163844 57.61038709 -2.8320891 51.6255996 -2.89453125 45.24609375 C-2.88679688 44.45589844 -2.8790625 43.66570312 -2.87109375 42.8515625 C-2.89748318 34.78959296 -3.73577009 27.0563151 -9.14453125 20.74609375 C-15.57392166 16.36241847 -22.74410623 16.2367034 -29.14453125 20.74609375 Z " fill="#FFFFFF" transform="translate(410.14453125,290.25390625)"/>
<path d="M0 0 C1.83331382 0.02009644 3.66664891 0.03834165 5.5 0.0546875 C9.95929553 0.09500663 14.41559496 0.17333401 18.875 0.25 C18.875 7.18 18.875 14.11 18.875 21.25 C15.99974609 21.32347656 15.99974609 21.32347656 13.06640625 21.3984375 C10.52342414 21.47350708 7.98045606 21.54905308 5.4375 21.625 C4.17744141 21.6559375 2.91738281 21.686875 1.61914062 21.71875 C-10.32504244 21.59144631 -10.32504244 21.59144631 -20.5625 26.5625 C-26.86835372 37.4085684 -26.63937697 52.16079391 -23.82421875 64.16015625 C-22.30798699 68.6919104 -20.14600123 71.56933251 -16.125 74.25 C-11.175 74.91 -6.225 75.57 -1.125 76.25 C-1.125 62.39 -1.125 48.53 -1.125 34.25 C6.135 34.25 13.395 34.25 20.875 34.25 C20.875 55.04 20.875 75.83 20.875 97.25 C14.31625 97.3325 7.7575 97.415 1 97.5 C-2.07417236 97.55462402 -2.07417236 97.55462402 -5.21044922 97.61035156 C-17.95516972 97.74408613 -27.49779689 96.81438885 -37.0859375 87.6328125 C-48.7464617 74.00652943 -49.26645697 55.26654161 -48.125 38.25 C-46.87082563 25.68212769 -42.41145664 14.41012447 -32.859375 5.96875 C-22.21165935 -0.72409984 -12.19613534 -0.2331032 0 0 Z " fill="#FFFFFF" transform="translate(1585.125,286.75)"/>
<path d="M0 0 C7.26 0 14.52 0 22 0 C22 11.22 22 22.44 22 34 C29.92 34 37.84 34 46 34 C46 22.78 46 11.56 46 0 C53.26 0 60.52 0 68 0 C68.06902968 6.13852822 68.12871659 12.27569894 68.16479492 18.41430664 C68.17984159 20.5006162 68.20028382 22.58689433 68.22631836 24.6730957 C68.26288295 27.67927831 68.2797679 30.68504112 68.29296875 33.69140625 C68.30845261 34.61772354 68.32393646 35.54404083 68.33988953 36.49842834 C68.34152244 42.84280549 67.58540534 47.76824333 63.5 52.875 C58.08481351 56.93638987 51.77426545 55 45 55 C45 68.86 45 82.72 45 97 C37.74 97 30.48 97 23 97 C23 83.14 23 69.28 23 55 C18.38 55 13.76 55 9 55 C4.13330734 52.07998441 2.04643888 50.45448144 0.42897034 45.1149292 C-0.02374692 42.88292186 -0.12022048 40.87496191 -0.11352539 38.59863281 C-0.11344986 37.7380426 -0.11337433 36.87745239 -0.11329651 35.99078369 C-0.10813522 35.07085632 -0.10297394 34.15092896 -0.09765625 33.203125 C-0.0962413 32.25435486 -0.09482635 31.30558472 -0.09336853 30.32806396 C-0.08777742 27.30201038 -0.07522652 24.27603117 -0.0625 21.25 C-0.05748385 19.19661565 -0.05292115 17.14323014 -0.04882812 15.08984375 C-0.0386624 10.05984423 -0.01908518 5.03000523 0 0 Z " fill="#FFFFFF" transform="translate(1650,287)"/>
<path d="M0 0 C18.81 0 37.62 0 57 0 C57 6.93 57 13.86 57 21 C45.45 21 33.9 21 22 21 C22 39.15 22 57.3 22 76 C33.55 76 45.1 76 57 76 C57 82.93 57 89.86 57 97 C38.19 97 19.38 97 0 97 C0 64.99 0 32.98 0 0 Z " fill="#FFFFFF" transform="translate(757,287)"/>
<path d="M0 0 C1.68878084 0.02010067 3.37758485 0.03834512 5.06640625 0.0546875 C9.17032085 0.09496144 13.2709655 0.17328907 17.375 0.25 C17.375 7.18 17.375 14.11 17.375 21.25 C14.82458984 21.32347656 14.82458984 21.32347656 12.22265625 21.3984375 C9.96092277 21.47351579 7.69920476 21.5490614 5.4375 21.625 C3.76204102 21.67140625 3.76204102 21.67140625 2.05273438 21.71875 C-9.34011006 21.71652247 -9.34011006 21.71652247 -19.0625 26.5625 C-25.36835372 37.4085684 -25.13937697 52.16079391 -22.32421875 64.16015625 C-20.80798699 68.6919104 -18.64600123 71.56933251 -14.625 74.25 C-7.76051075 75.68763922 -0.67430786 75.58901008 6.3125 75.8125 C7.56869141 75.85568359 8.82488281 75.89886719 10.11914062 75.94335938 C13.20431384 76.04893564 16.2896435 76.14992287 19.375 76.25 C19.375 83.18 19.375 90.11 19.375 97.25 C14.14541565 97.34237735 8.91871836 97.42184382 3.68896484 97.46972656 C1.91412711 97.48970839 0.13935406 97.51690355 -1.63525391 97.55175781 C-15.02499454 97.80794869 -25.42008132 97.36760765 -35.5859375 87.6328125 C-47.2464617 74.00652943 -47.76645697 55.26654161 -46.625 38.25 C-45.37082563 25.68212769 -40.91145664 14.41012447 -31.359375 5.96875 C-21.11725712 -0.46915267 -11.72293297 -0.2437009 0 0 Z " fill="#FFFFFF" transform="translate(903.625,286.75)"/>
<path d="M0 0 C3.93146728 3.69319653 4.98936916 7.45050624 5.25 12.75 C4.11115909 19.27935457 -1.3375965 24.10767306 -5.66015625 28.8125 C-10.53810175 34.20194362 -14.01641502 39.96438693 -14.5 47.375 C-13.98467013 56.65093762 -8.15751933 63.07498764 -2.1015625 69.56640625 C4.74905387 77.0724065 4.74905387 77.0724065 5.3125 82.22265625 C5.00730949 87.93544107 3.10539959 90.99320771 -0.9375 94.9375 C-4.83152684 96.88451342 -8.71539297 96.69006429 -12.9375 95.9375 C-21.74300292 91.89492479 -29.12354954 85.7390389 -35.9375 78.9375 C-36.51113281 78.37546875 -37.08476563 77.8134375 -37.67578125 77.234375 C-45.57215447 68.82790015 -50.521652 56.97160661 -50.18359375 45.41796875 C-48.7874001 31.34522325 -42.16024017 20.49288028 -31.9375 10.9375 C-22.58840442 3.45012908 -12.3778702 -4.47710199 0 0 Z " fill="#FFFFFF" transform="translate(49.9375,97.0625)"/>
<path d="M0 0 C15.89816864 6.2052681 27.35020132 18.79540134 34.65234375 33.765625 C38.76049502 43.62518805 37.51057243 54.12024616 34 64 C27.18507911 78.91710461 14.5238829 89.73805855 0 97 C-4.09157355 97.51512617 -8.23589546 97.94367269 -11.95703125 95.953125 C-14.93546863 93.48921087 -16.79563913 91.53658677 -17.30859375 87.6796875 C-17.59894584 81.3623298 -16.9886236 77.77642847 -12.8515625 72.953125 C-11.55639818 71.58691791 -10.25936802 70.22247831 -8.9609375 68.859375 C-3.00199077 62.47638338 0.22590258 56.79940402 1.625 48.125 C1.03106541 39.16198703 -4.72948523 31.96700102 -10.75 25.8125 C-14.56568734 21.89038141 -17.48133167 18.63678444 -18.12109375 13.03125 C-17.83687269 8.26367095 -15.95407224 5.12753992 -12.9375 1.5625 C-8.52353059 -0.78535607 -4.88923866 -0.90541457 0 0 Z " fill="#FFFFFF" transform="translate(142,96)"/>
<path d="M0 0 C24.09 0 48.18 0 73 0 C73 6.93 73 13.86 73 21 C64.42 21 55.84 21 47 21 C47 46.08 47 71.16 47 97 C39.74 97 32.48 97 25 97 C25 71.92 25 46.84 25 21 C19.06 21 13.12 21 7 21 C2 18 2 18 0.6875 15 C0 11 0 11 0 0 Z " fill="#FFFFFF" transform="translate(640,287)"/>
<path d="M0 0 C24.09 0 48.18 0 73 0 C73 6.93 73 13.86 73 21 C64.42 21 55.84 21 47 21 C47 46.08 47 71.16 47 97 C39.74 97 32.48 97 25 97 C25 71.92 25 46.84 25 21 C19.06 21 13.12 21 7 21 C2 18 2 18 0.6875 15 C0 11 0 11 0 0 Z " fill="#FFFFFF" transform="translate(464,287)"/>
<path d="M0 0 C7.26 0 14.52 0 22 0 C22 25.08 22 50.16 22 76 C33.55 76 45.1 76 57 76 C57 82.93 57 89.86 57 97 C38.19 97 19.38 97 0 97 C0 64.99 0 32.98 0 0 Z " fill="#FFFFFF" transform="translate(1324,287)"/>
<path d="M0 0 C7.26 0 14.52 0 22 0 C22 32.01 22 64.02 22 97 C7 97 7 97 2 94 C-0.17206231 89.49029947 -0.26877525 85.11201308 -0.1953125 80.1953125 C-0.1924826 79.4713327 -0.18965271 78.74735291 -0.18673706 78.00143433 C-0.17562087 75.7091151 -0.15053312 73.41719937 -0.125 71.125 C-0.1149591 69.56250568 -0.10583519 68.00000518 -0.09765625 66.4375 C-0.07741858 62.62472282 -0.0382556 58.81280835 0 55 C-6.93 55 -13.86 55 -21 55 C-21.44942966 41.66692015 -21.44942966 41.66692015 -18 36 C-14 34 -14 34 0 34 C0 22.78 0 11.56 0 0 Z " fill="#FFFFFF" transform="translate(1019,287)"/>
<path d="M0 0 C0.886875 0.53625 1.77375 1.0725 2.6875 1.625 C8.6151005 7.71280592 11.59007047 14.24481749 12.3125 22.625 C12.15621563 30.15506501 9.43873185 36.94291616 4.3125 42.4375 C-3.08471253 49.04748625 -9.73624198 50.70227421 -19.62890625 50.3828125 C-27.34582277 49.50649985 -33.89459954 45.85284122 -39 40 C-44.40148948 32.58833595 -45.25628033 24.96901779 -44 16 C-41.36424018 7.11337858 -35.56294419 1.88676061 -27.9375 -2.9375 C-18.9713832 -6.23538204 -8.00019869 -5.0066889 0 0 Z " fill="#FFFFFF" transform="translate(106,120)"/>
<path d="M0 0 C7.26 0 14.52 0 22 0 C22 32.01 22 64.02 22 97 C14.74 97 7.48 97 0 97 C0 64.99 0 32.98 0 0 Z " fill="#FFFFFF" transform="translate(970,287)"/>
<path d="M0 0 C7.26 0 14.52 0 22 0 C22 32.01 22 64.02 22 97 C14.74 97 7.48 97 0 97 C0 64.99 0 32.98 0 0 Z " fill="#FFFFFF" transform="translate(287,287)"/>
<path d="M0 0 C0.76151367 0.00499512 1.52302734 0.00999023 2.30761719 0.01513672 C3.74089355 0.04244873 3.74089355 0.04244873 5.203125 0.0703125 C8.255625 0.1115625 11.308125 0.1528125 14.453125 0.1953125 C14.453125 7.1253125 14.453125 14.0553125 14.453125 21.1953125 C5.873125 21.1953125 -2.706875 21.1953125 -11.546875 21.1953125 C-11.546875 7.12388393 -11.546875 7.12388393 -8.546875 2.1953125 C-5.63881863 0.33518335 -3.41854985 -0.04619662 0 0 Z " fill="#FFFFFF" transform="translate(796.546875,320.8046875)"/>
</svg>
