<?xml version="1.0" encoding="UTF-8"?>
<svg version="1.1" xmlns="http://www.w3.org/2000/svg" width="1059" height="209">
<path d="M0 0 C6.61376871 4.50938776 9.17113813 10.48663134 12.015625 17.703125 C12.40685043 18.66935287 12.79807587 19.63558075 13.20115662 20.63108826 C14.47799631 23.79158925 15.7391842 26.95807647 17 30.125 C17.88159056 32.31785755 18.76416982 34.51031786 19.64770508 36.70239258 C21.45902431 41.19953963 23.26463358 45.69892288 25.06689453 50.19970703 C27.61807655 56.56065421 30.20789491 62.90526162 32.80859375 69.24609375 C33.97884208 72.10646558 35.14852381 74.96706839 36.31799316 77.82775879 C37.06054669 79.64167512 37.80475225 81.45491611 38.55065918 83.26745605 C39.58520536 85.78403024 40.6118842 88.30367713 41.63671875 90.82421875 C41.93992538 91.5564415 42.24313202 92.28866425 42.55552673 93.04307556 C44.78994155 98.57158879 46.3959435 102.75774075 44.625 108.5625 C42.55393072 112.22138906 41.663963 113.42853541 37.75 114.875 C34.50462118 115.69288781 31.99922503 115.72899538 28.75 114.875 C24.66859977 112.32335998 21.25814845 109.15528495 17.75 105.875 C16.75758182 104.96367563 15.76408129 104.0535286 14.76953125 103.14453125 C13.25948348 101.76154251 11.75166341 100.37654421 10.25097656 98.98339844 C4.41290193 93.57946634 -1.62477004 88.29181997 -8.25 83.875 C-9.35794922 84.90947266 -9.35794922 84.90947266 -10.48828125 85.96484375 C-16.33601267 91.39272808 -22.27814542 96.59665976 -28.5 101.59765625 C-32.47860126 104.89243542 -36.25263567 108.3896455 -40.03515625 111.90625 C-43.6933733 115.15799849 -46.25050039 115.15473633 -50.9921875 115.09375 C-54.08708155 114.79389867 -55.88917422 113.87812491 -58.25 111.875 C-60.82122264 107.60181745 -60.7692274 103.73645614 -60.25 98.875 C-59.52404839 96.06932714 -58.44688577 93.49939281 -57.26953125 90.85546875 C-56.94916397 90.09875885 -56.62879669 89.34204895 -56.29872131 88.56240845 C-55.23452523 86.05594724 -54.14873038 83.55948178 -53.0625 81.0625 C-51.50171192 77.41720102 -49.95179029 73.76731923 -48.40234375 70.1171875 C-47.99155579 69.15349747 -47.58076782 68.18980743 -47.15753174 67.19691467 C-43.87335432 59.45399444 -40.76147074 51.65026816 -37.69140625 43.8203125 C-36.75629416 41.44889942 -35.82099226 39.07756119 -34.88549805 36.70629883 C-33.50792622 33.21280619 -32.13658433 29.71752483 -30.78482056 26.21395874 C-29.51762351 22.93349102 -28.22612037 19.66353414 -26.9296875 16.39453125 C-26.56037613 15.41811676 -26.19106476 14.44170227 -25.81056213 13.43569946 C-23.4136778 7.47176241 -20.77539736 3.33841883 -15.25 -0.125 C-10.0828841 -1.84737197 -5.14400242 -1.78061622 0 0 Z M-8.25 36.875 C-9.81781465 39.6108678 -11.34937632 42.36541599 -12.875 45.125 C-13.32101563 45.90230469 -13.76703125 46.67960937 -14.2265625 47.48046875 C-14.6390625 48.23457031 -15.0515625 48.98867187 -15.4765625 49.765625 C-15.86408691 50.45688477 -16.25161133 51.14814453 -16.65087891 51.86035156 C-17.47618845 53.91166193 -17.47618845 53.91166193 -16.48242188 56.0390625 C-14.97382861 58.28641221 -13.4569257 59.27097863 -11.125 60.625 C-9.84625 61.3675 -8.5675 62.11 -7.25 62.875 C-2.795 59.41 -2.795 59.41 1.75 55.875 C0.82041397 51.22706984 -0.66215202 47.69712948 -2.8125 43.5625 C-3.14185547 42.91732422 -3.47121094 42.27214844 -3.81054688 41.60742188 C-4.61824255 40.02714772 -5.43337613 38.45067895 -6.25 36.875 C-6.91 36.875 -7.57 36.875 -8.25 36.875 Z M8.75 67.875 C7.76 68.865 6.77 69.855 5.75 70.875 C6.88483924 74.27951771 7.30277937 74.4755564 10.3125 76.0625 C11.446875 76.660625 12.58125 77.25875 13.75 77.875 C12.59414715 73.96288267 11.39465038 71.0004959 8.75 67.875 Z M-25.25 68.875 C-25.930625 69.98875 -26.61125 71.1025 -27.3125 72.25 C-27.69535156 72.87648438 -28.07820313 73.50296875 -28.47265625 74.1484375 C-28.72917969 74.71820313 -28.98570313 75.28796875 -29.25 75.875 C-28.92 76.535 -28.59 77.195 -28.25 77.875 C-25.94 76.225 -23.63 74.575 -21.25 72.875 C-21.91 71.555 -22.57 70.235 -23.25 68.875 C-23.91 68.875 -24.57 68.875 -25.25 68.875 Z " fill="#FFFFFF" transform="translate(60.25,93.125)"/>
<path d="M0 0 C0 26.4 0 52.8 0 80 C-8.25 80 -16.5 80 -25 80 C-25 72.08 -25 64.16 -25 56 C-27.206875 56.226875 -29.41375 56.45375 -31.6875 56.6875 C-32.92886719 56.81511719 -34.17023437 56.94273438 -35.44921875 57.07421875 C-39.68763272 58.17928378 -41.30917399 59.59028912 -44 63 C-46.23150167 68.54593798 -45.84251004 76.44048219 -44 82.0625 C-41.71121385 85.42415466 -40.35768588 85.78368228 -36.49658203 86.63110352 C-30.42365342 87.52844315 -24.23836765 87.402962 -18.11132812 87.47851562 C-7.14124865 87.74962669 -7.14124865 87.74962669 -2 91 C0.9375521 95.61308613 1.38926852 99.53589463 1.1875 104.875 C1.16719727 105.90753906 1.16719727 105.90753906 1.14648438 106.9609375 C1.1114837 108.64097001 1.05768954 110.3205935 1 112 C-5.20722892 112.09959145 -11.41398288 112.17180805 -17.62182617 112.21972656 C-19.72933057 112.23972278 -21.83678034 112.26692893 -23.9440918 112.30175781 C-50.30337913 112.72620288 -50.30337913 112.72620288 -61.28515625 103.67578125 C-69.32531594 95.8187687 -71.03114813 85.13243278 -71.35375977 74.27270508 C-71.46229539 62.34002441 -70.15378285 51.30011967 -62 42 C-59.51671816 39.6128452 -56.95753121 37.75954388 -54 36 C-53.31808594 35.58621094 -52.63617187 35.17242187 -51.93359375 34.74609375 C-43.56532573 30.5692365 -34.09460898 31.66385429 -25 32 C-25.01571045 31.3702124 -25.0314209 30.7404248 -25.04760742 30.09155273 C-25.11040232 27.20696175 -25.14913058 24.32251514 -25.1875 21.4375 C-25.21263672 20.44685547 -25.23777344 19.45621094 -25.26367188 18.43554688 C-25.32270231 12.51282665 -25.1039673 8.12390264 -22 3 C-17 -0 -17 -0 0 0 Z " fill="#FFFFFF" transform="translate(963,0)"/>
<path d="M0 0 C2.11782167 0.02009411 4.23566173 0.03833973 6.35351562 0.0546875 C11.50696961 0.09845575 16.65952936 0.16732352 21.8125 0.25 C19.34012683 10.2439942 16.80268479 20.21744356 14.14770508 30.16455078 C13.61224311 32.17284579 13.08050287 34.18210569 12.54882812 36.19140625 C12.20916016 37.46628906 11.86949219 38.74117187 11.51953125 40.0546875 C11.06284058 41.77147705 11.06284058 41.77147705 10.59692383 43.52294922 C9.8125 46.25 9.8125 46.25 8.8125 48.25 C0.8925 48.25 -7.0275 48.25 -15.1875 48.25 C-14.0625 40.375 -14.0625 40.375 -12.99609375 36.84765625 C-12.77373047 36.10322266 -12.55136719 35.35878906 -12.32226562 34.59179688 C-12.09216797 33.83962891 -11.86207031 33.08746094 -11.625 32.3125 C-11.39103516 31.53326172 -11.15707031 30.75402344 -10.91601562 29.95117188 C-10.34432579 28.04942813 -9.76654309 26.14951774 -9.1875 24.25 C-15.6225 25.735 -15.6225 25.735 -22.1875 27.25 C-24.2306095 35.54262091 -25.06519919 43.13848554 -22.0625 51.3125 C-17.28878919 56.24533451 -9.7022462 55.49686543 -3.31640625 55.63476562 C-0.89718902 55.6699211 1.52208812 55.70117134 3.94140625 55.72851562 C15.78511554 55.99739275 15.78511554 55.99739275 20.8125 59.25 C23.745032 63.86667516 24.20181685 67.78461556 24 73.125 C23.97969727 74.15753906 23.97969727 74.15753906 23.95898438 75.2109375 C23.9239837 76.89097001 23.87018954 78.5705935 23.8125 80.25 C17.33892152 80.37785497 10.8656742 80.46478839 4.39111328 80.5246582 C2.19339837 80.54964323 -0.00423481 80.58364321 -2.20166016 80.62719727 C-30.21411768 81.16810115 -30.21411768 81.16810115 -40.66015625 71.15625 C-50.03220924 59.45916084 -50.9109814 45.54199647 -49.6640625 31.21875 C-48.39788554 20.67419434 -44.9730936 12.73870043 -36.55712891 5.95922852 C-25.7771577 -1.81643379 -12.63052789 -0.20875278 0 0 Z " fill="#FFFFFF" transform="translate(303.1875,31.75)"/>
<path d="M0 0 C1.35094757 0.0001133 1.35094757 0.0001133 2.72918701 0.00022888 C3.69286194 0.00539017 4.65653687 0.01055145 5.64941406 0.01586914 C6.64257629 0.01728409 7.63573853 0.01869904 8.65899658 0.02015686 C11.82770818 0.02574951 14.99634885 0.03830069 18.16503906 0.05102539 C20.31477762 0.05604134 22.4645173 0.06060408 24.61425781 0.06469727 C29.88120905 0.07571653 35.14811899 0.09244739 40.41503906 0.11352539 C39.19675822 6.53108929 37.78193726 12.8461684 36.06738281 19.14868164 C35.85062393 19.95341415 35.63386505 20.75814667 35.41053772 21.58726501 C34.95751264 23.26564347 34.50286527 24.94358485 34.04663086 26.62109375 C33.34604695 29.19992266 32.65271804 31.78063113 31.95996094 34.36157227 C31.51703057 35.99905816 31.0736866 37.63643225 30.62988281 39.27368164 C30.42258041 40.04647964 30.21527802 40.81927765 30.00169373 41.61549377 C28.52999147 46.99857299 28.52999147 46.99857299 27.41503906 48.11352539 C25.6343266 48.20078762 23.85020766 48.2205158 22.06738281 48.21118164 C20.98779297 48.20795898 19.90820312 48.20473633 18.79589844 48.20141602 C17.65958984 48.19303711 16.52328125 48.1846582 15.35253906 48.17602539 C14.21236328 48.17151367 13.0721875 48.16700195 11.89746094 48.16235352 C9.06993555 48.15052287 6.24251266 48.13403949 3.41503906 48.11352539 C4.54291652 42.1462491 5.82632779 36.31514373 7.54003906 30.48852539 C7.89324219 29.27938477 8.24644531 28.07024414 8.61035156 26.82446289 C8.87589844 25.92985352 9.14144531 25.03524414 9.41503906 24.11352539 C7.63882133 24.48445032 5.86904801 24.88631966 4.10253906 25.30102539 C3.11640625 25.52145508 2.13027344 25.74188477 1.11425781 25.96899414 C-2.37597672 27.4489344 -3.15549465 28.62352409 -4.58496094 32.11352539 C-5.05893982 35.71780667 -5.05893982 35.71780667 -4.95996094 39.55102539 C-4.96769531 40.82848633 -4.97542969 42.10594727 -4.98339844 43.42211914 C-4.54314969 47.50089426 -4.04325734 49.81474425 -1.58496094 53.11352539 C6.30316645 56.30018107 15.2974284 55.49759469 23.68066406 55.59204102 C35.09919889 55.85155317 35.09919889 55.85155317 39.41503906 59.11352539 C42.74129533 63.36793528 42.78358133 67.23150495 42.60253906 72.42602539 C42.58223633 73.536875 42.58223633 73.536875 42.56152344 74.67016602 C42.52639885 76.48493614 42.47259878 78.29932827 42.41503906 80.11352539 C35.90475979 80.21558298 29.39468952 80.28526477 22.88378906 80.33325195 C20.67244762 80.35327286 18.46115848 80.38049799 16.25 80.4152832 C13.05748528 80.46422166 9.8656751 80.48659006 6.67285156 80.50415039 C5.2081694 80.5351181 5.2081694 80.5351181 3.71389771 80.56671143 C-6.37992 80.56995491 -15.2612047 77.17571891 -22.58496094 70.11352539 C-29.70681829 61.50794775 -31.13230452 51.13661928 -31.02246094 40.30102539 C-31.0141626 39.24657227 -31.00586426 38.19211914 -30.99731445 37.10571289 C-30.76737483 26.48757578 -29.47825091 16.76072857 -21.71777344 8.83227539 C-15.30785587 3.66677406 -8.30253014 -0.02332171 0 0 Z " fill="#FFFFFF" transform="translate(1016.5849609375,31.886474609375)"/>
<path d="M0 0 C10.5496875 -0.12375 10.5496875 -0.12375 21.3125 -0.25 C24.607948 -0.30462402 24.607948 -0.30462402 27.9699707 -0.36035156 C42.02977104 -0.49878376 52.38817609 0.3677923 62.90234375 10.58203125 C70.91014143 19.81262112 71.31946197 32.6737301 71.1953125 44.35546875 C71.1924826 45.38311844 71.18965271 46.41076813 71.18673706 47.46955872 C71.175661 50.70899771 71.15058083 53.94814646 71.125 57.1875 C71.11495392 59.40168868 71.10583094 61.61588175 71.09765625 63.83007812 C71.0774759 69.22025024 71.03830379 74.60980537 71 80 C62.75 80 54.5 80 46 80 C45.95101562 76.844375 45.90203125 73.68875 45.8515625 70.4375 C45.79746811 67.36274701 45.74019388 64.28806843 45.68261719 61.21337891 C45.64446357 59.0855062 45.60958754 56.957572 45.578125 54.82958984 C45.53217768 51.76117045 45.47423312 48.69316953 45.4140625 45.625 C45.40251129 44.68197021 45.39096008 43.73894043 45.37905884 42.76733398 C45.25622776 37.201648 44.56171773 32.34819825 43 27 C42.09399048 26.78428345 42.09399048 26.78428345 41.16967773 26.56420898 C40.47430908 26.39864502 39.77894043 26.23308105 39.0625 26.0625 C34.32984161 24.93567657 29.96031928 24.55114659 25 24 C25 42.48 25 60.96 25 80 C16.75 80 8.5 80 0 80 C0 53.6 0 27.2 0 0 Z " fill="#FFFFFF" transform="translate(350,32)"/>
<path d="M0 0 C7.0125 -0.103125 14.025 -0.20625 21.25 -0.3125 C23.43786133 -0.35802002 25.62572266 -0.40354004 27.87988281 -0.45043945 C40.52591905 -0.60353728 51.82918357 -0.00551241 61.5390625 9.20703125 C69.1546504 18.55343458 70.30663546 29.35209247 70.1953125 40.9375 C70.1924826 42.05817871 70.18965271 43.17885742 70.18673706 44.33349609 C70.17560251 47.88910911 70.15051014 51.44446398 70.125 55 C70.11496152 57.42056926 70.10583719 59.8411425 70.09765625 62.26171875 C70.07739258 68.17465702 70.03823033 74.08704182 70 80 C61.75 80 53.5 80 45 80 C44.94392578 75.01519531 44.94392578 75.01519531 44.88671875 69.9296875 C44.8404763 66.70273342 44.78925242 63.47589409 44.73754883 60.24902344 C44.70434334 58.01048789 44.67629784 55.77186951 44.65356445 53.53320312 C44.61993855 50.31083961 44.56761728 47.08923226 44.51171875 43.8671875 C44.50532883 42.87008759 44.4989389 41.87298767 44.49235535 40.84567261 C44.38120448 35.56432413 44.1557438 31.46439995 41 27 C35.59415038 25.07588403 30.81724586 24.72715573 25 24 C25 42.48 25 60.96 25 80 C16.75 80 8.5 80 0 80 C0 53.6 0 27.2 0 0 Z " fill="#FFFFFF" transform="translate(704,32)"/>
<path d="M0 0 C8.79079147 6.12773872 14.78089123 14.72223236 17.53125 25.1015625 C19.65867996 38.25617111 18.0212344 50.30967815 10.78125 61.61328125 C4.94375372 69.43501421 -2.50464228 74.6179276 -12 77 C-24.04663462 78.33851496 -34.23048555 76.59851124 -44 69 C-52.36080716 62.20803995 -57.34169392 52.55817944 -58.8125 41.91015625 C-59.65844718 28.78035113 -57.36126534 17.65542088 -48.625 7.5625 C-35.43887439 -6.01529271 -16.86538374 -10.08977106 0 0 Z M-30.1875 23 C-33.66259697 28.75188464 -34.62331012 35.28790376 -33.3125 41.875 C-31.92714836 46.75422589 -30.57192209 49.98698354 -26.1875 52.8125 C-22.71472323 54.10627958 -20.66458779 54.53441905 -17 54 C-12.31866517 51.75295928 -9.76499587 49.06738566 -7.6953125 44.40625 C-5.89130448 38.16316606 -5.97280517 31.47301021 -8.625 25.5 C-10.76632802 21.88085405 -13.17138585 19.83773479 -17 18 C-22.85607784 17.16341745 -25.96099035 19.13576261 -30.1875 23 Z " fill="#FFFFFF" transform="translate(588,36)"/>
<path d="M0 0 C10.33563138 6.00433262 18.29811447 14.4154293 21.71826172 26.13378906 C24.21834419 37.86184011 23.04089126 51.19470955 16.8515625 61.44921875 C11.01171274 69.87392004 2.48094451 77.31525108 -7.828125 79.26171875 C-20.89608422 80.29185067 -30.93422235 78.74384428 -41.265625 69.94921875 C-49.87332899 61.58981391 -53.79231246 52.72936408 -54.23291016 40.74536133 C-54.41114686 27.89502681 -51.7938306 17.83785537 -42.828125 8.26171875 C-42.30476562 7.69710937 -41.78140625 7.1325 -41.2421875 6.55078125 C-30.52835148 -3.74495386 -13.40191712 -6.40863487 0 0 Z M-24.828125 24.26171875 C-29.47088227 30.29296417 -29.6681538 36.90387613 -28.828125 44.26171875 C-27.71028946 48.75718684 -25.69229049 52.61781604 -21.828125 55.26171875 C-17.5950456 56.41330696 -14.12541383 56.78063428 -10.015625 55.13671875 C-6.61000307 52.21761424 -4.25489355 49.54202441 -2.828125 45.26171875 C-2.68164418 42.99408301 -2.6071624 40.72139509 -2.578125 38.44921875 C-2.55234375 37.24652344 -2.5265625 36.04382813 -2.5 34.8046875 C-2.94268619 30.02473067 -4.72906896 26.82576004 -7.453125 22.94921875 C-13.32871593 18.77445677 -19.65133948 19.32571396 -24.828125 24.26171875 Z " fill="#FFFFFF" transform="translate(848.828125,33.73828125)"/>
<path d="M0 0 C1.08089401 0.00007553 2.16178802 0.00015106 3.2754364 0.00022888 C4.44113663 0.00539017 5.60683685 0.01055145 6.80786133 0.01586914 C8.5993737 0.01799156 8.5993737 0.01799156 10.42707825 0.02015686 C14.24804166 0.0257619 18.06894683 0.03831528 21.88989258 0.05102539 C24.47778236 0.05603974 27.06567305 0.06060276 29.65356445 0.06469727 C36.00321441 0.07488278 42.35273817 0.09445736 48.70239258 0.11352539 C48.70239258 8.03352539 48.70239258 15.95352539 48.70239258 24.11352539 C39.13239258 24.44352539 29.56239258 24.77352539 19.70239258 25.11352539 C28.61607697 34.27374422 28.61607697 34.27374422 38.01489258 42.92602539 C38.60915039 43.4480957 39.2034082 43.97016602 39.81567383 44.50805664 C41.23521311 45.71598758 42.69933089 46.8718265 44.18286133 48.00024414 C48.16121997 51.337131 50.41732843 53.55893136 51.37426758 58.77758789 C51.5039621 65.35310038 51.38219968 71.53036978 47.70239258 77.11352539 C43.98560272 79.84616711 41.38730533 80.48401502 36.81054688 80.45410156 C35.64972092 80.45387497 34.48889496 80.45364838 33.29289246 80.45341492 C32.05001968 80.43793106 30.80714691 80.4224472 29.52661133 80.40649414 C27.60616753 80.40012688 27.60616753 80.40012688 25.64692688 80.39363098 C22.25526124 80.38221676 18.86398551 80.35277994 15.47247314 80.31951904 C12.00684889 80.28874374 8.54116118 80.27510978 5.07543945 80.26000977 C-1.71576653 80.2269472 -8.50660313 80.17516696 -15.29760742 80.11352539 C-15.29760742 72.19352539 -15.29760742 64.27352539 -15.29760742 56.11352539 C-4.40760742 55.78352539 6.48239258 55.45352539 17.70239258 55.11352539 C13.12681724 50.53795005 8.83543265 46.3347026 3.98364258 42.17602539 C0.49036115 39.01771616 -2.79625846 35.65712912 -6.08569336 32.28833008 C-8.17691863 30.16116836 -10.15372464 28.21048987 -12.63354492 26.53930664 C-14.29760742 25.11352539 -14.29760742 25.11352539 -14.75854492 22.98461914 C-14.21711207 7.65222508 -14.21711207 7.65222508 -10.36010742 2.55102539 C-6.90669916 0.14410448 -4.08958596 -0.00953283 0 0 Z " fill="#FFFFFF" transform="translate(459.297607421875,31.886474609375)"/>
<path d="M0 0 C1.62111443 0.00033989 1.62111443 0.00033989 3.27497864 0.00068665 C4.43035629 0.0161705 5.58573395 0.03165436 6.77612305 0.04760742 C8.56339058 0.05397469 8.56339058 0.05397469 10.38676453 0.06047058 C14.18735476 0.07724524 17.98741218 0.11489659 21.7878418 0.15307617 C24.36661017 0.16812452 26.94538687 0.18181266 29.52416992 0.1940918 C35.84159697 0.22459112 42.1578739 0.28331815 48.4753418 0.34057617 C48.4753418 8.26057617 48.4753418 16.18057617 48.4753418 24.34057617 C38.9053418 24.67057617 29.3353418 25.00057617 19.4753418 25.34057617 C26.73687066 32.7794866 26.73687066 32.7794866 34.4128418 39.77807617 C35.3390332 40.59791992 35.3390332 40.59791992 36.28393555 41.43432617 C37.49937047 42.49160289 38.72428196 43.53914806 39.98364258 44.54370117 C50.45450897 52.96248822 50.45450897 52.96248822 51.34643555 59.46166992 C51.6557762 65.97046506 51.07585259 71.7754214 47.4753418 77.34057617 C43.75913363 80.07320644 41.1594953 80.71106084 36.58349609 80.68115234 C35.42267014 80.68092575 34.26184418 80.68069916 33.06584167 80.6804657 C31.8229689 80.66498184 30.58009613 80.64949799 29.29956055 80.63354492 C27.37911674 80.62717766 27.37911674 80.62717766 25.4198761 80.62068176 C22.02821046 80.60926754 18.63693473 80.57983072 15.24542236 80.54656982 C11.77979811 80.51579452 8.3141104 80.50216056 4.84838867 80.48706055 C-1.94281731 80.45399798 -8.73365391 80.40221774 -15.5246582 80.34057617 C-15.5246582 72.42057617 -15.5246582 64.50057617 -15.5246582 56.34057617 C-4.6346582 56.01057617 6.2553418 55.68057617 17.4753418 55.34057617 C10.16658886 47.95061456 10.16658886 47.95061456 2.5378418 40.90307617 C1.92038086 40.35522461 1.30291992 39.80737305 0.66674805 39.24291992 C-0.54652394 38.18968738 -1.77040023 37.14718062 -3.03295898 36.15356445 C-13.51063037 27.85009505 -13.51063037 27.85009505 -14.39575195 20.96166992 C-14.67662084 14.64076968 -14.65339935 8.48081292 -10.5246582 3.34057617 C-6.8959093 0.75211997 -4.43635434 -0.03116877 0 0 Z " fill="#FFFFFF" transform="translate(182.524658203125,31.659423828125)"/>
<path d="M0 0 C0.96955124 0.00424484 1.93910248 0.00848969 2.93803406 0.01286316 C6.02538175 0.02961475 9.11206937 0.06726086 12.19921875 0.10546875 C14.29621451 0.12052012 16.39322053 0.13420773 18.49023438 0.14648438 C23.62285283 0.17695105 28.75404961 0.23567976 33.88671875 0.29296875 C33.88671875 8.21296875 33.88671875 16.13296875 33.88671875 24.29296875 C24.97671875 24.29296875 16.06671875 24.29296875 6.88671875 24.29296875 C6.88671875 42.77296875 6.88671875 61.25296875 6.88671875 80.29296875 C-1.36328125 80.29296875 -9.61328125 80.29296875 -18.11328125 80.29296875 C-18.18127058 71.58231544 -18.23621987 62.87184064 -18.26871777 54.16098118 C-18.2843213 50.11543926 -18.30546138 46.07008954 -18.33959961 42.0246582 C-18.37238406 38.11483326 -18.39017414 34.20519228 -18.39791298 30.2952404 C-18.40342246 28.80941818 -18.41418052 27.32360514 -18.43047142 25.83786201 C-18.60396355 9.34762536 -18.60396355 9.34762536 -15.11328125 3.29296875 C-10.96412118 -0.83352101 -5.50007073 -0.09092321 0 0 Z " fill="#FFFFFF" transform="translate(648.11328125,31.70703125)"/>
<path d="M0 0 C4.62 0 9.24 0 14 0 C18.29 8.25 22.58 16.5 27 25 C27.33 16.75 27.66 8.5 28 0 C32.62 0 37.24 0 42 0 C42 19.47 42 38.94 42 59 C30 59 30 59 27.08203125 56.6171875 C26.02587891 54.95605469 26.02587891 54.95605469 25 53 C24.56993652 52.24879883 24.13987305 51.49759766 23.69677734 50.72363281 C22.3012233 48.21650086 20.98796856 45.68284467 19.6875 43.125 C18.140625 40.11375 16.59375 37.1025 15 34 C14.67 42.25 14.34 50.5 14 59 C9.38 59 4.76 59 0 59 C0 39.53 0 20.06 0 0 Z " fill="#FFFFFF" transform="translate(666,149)"/>
<path d="M0 0 C7.29499479 7.29499479 8.34139887 15.83742924 8.5 25.75 C8.34086767 35.12008626 7.40717922 42.85171398 1.25 50.25 C-4.52692321 55.46995528 -9.54671379 56.56628792 -17.22265625 56.46484375 C-23.27815157 55.95007985 -28.8182726 52.86352984 -32.75 48.25 C-38.7175785 37.7972351 -39.22999237 24.94627956 -37.0625 13.25 C-35.01268342 5.84238698 -31.32568027 1.02193204 -24.71484375 -2.83984375 C-16.14644155 -6.80890481 -7.64998391 -4.86817158 0 0 Z M-22.75 14.25 C-24.08370041 18.25110123 -23.97335475 21.93503403 -24 26.125 C-24.020625 26.92808594 -24.04125 27.73117188 -24.0625 28.55859375 C-24.09384347 33.31496509 -23.79293162 36.36509215 -20.75 40.25 C-18.75885386 42.65668747 -18.75885386 42.65668747 -14.875 42.6875 C-11.42792834 42.61242766 -10.9596585 42.44890678 -8.3125 39.9375 C-5.60915931 35.28775401 -5.53563407 31.18016318 -5.5 25.9375 C-5.479375 25.19048828 -5.45875 24.44347656 -5.4375 23.67382812 C-5.4032391 18.79593285 -6.02396879 15.46006222 -8.75 11.25 C-14.76768626 7.23820916 -18.39536471 8.90001951 -22.75 14.25 Z " fill="#FFFFFF" transform="translate(773.75,152.75)"/>
<path d="M0 0 C7.88710234 8.24560699 8.13408668 18.74288082 7.95703125 29.56640625 C7.65106629 38.15782711 5.82167175 45.02672424 -0.3046875 51.28125 C-5.47780688 55.51946829 -11.14929803 56.46757688 -17.73046875 56.21484375 C-23.85738913 55.38842193 -28.6079204 53.12425667 -32.625 48.375 C-38.97774882 38.82823024 -39.4595251 26.65721576 -37.74609375 15.6328125 C-36.25425643 8.79593518 -34.32203006 2.85810517 -28.51171875 -1.3984375 C-18.7555316 -7.28975394 -9.23979369 -6.04140357 0 0 Z M-23.25 13.875 C-24.65826296 17.68350989 -24.47056283 21.73918593 -24.5 25.75 C-24.520625 26.44480469 -24.54125 27.13960937 -24.5625 27.85546875 C-24.59850819 32.63555544 -23.74784034 35.81297808 -21.25 39.875 C-19.26040592 42.28839891 -19.26040592 42.28839891 -15.375 42.25 C-12.23477357 42.17591117 -11.43163472 42.01006171 -8.8125 40.0625 C-5.55989298 35.50885017 -6.03221208 30.8633108 -6 25.5 C-5.979375 24.64921875 -5.95875 23.7984375 -5.9375 22.921875 C-5.90739163 18.0894818 -6.04081998 14.75900759 -9.25 10.875 C-15.23543924 6.88470717 -18.95658238 8.4775607 -23.25 13.875 Z " fill="#FFFFFF" transform="translate(906.25,153.125)"/>
<path d="M0 0 C8.12361251 8.49286762 8.1283562 19.33562222 7.95703125 30.41015625 C7.66969102 38.85936927 5.64250928 45.08738579 -0.3046875 51.24609375 C-5.43601368 55.54280664 -11.15581546 56.4673266 -17.73046875 56.21484375 C-24.08688399 55.35746681 -28.69052511 53.05186656 -32.6875 48 C-39.18214013 38.29392179 -39.46541426 25.78362558 -37.4375 14.5625 C-35.66581278 6.78676165 -32.33363672 1.66382508 -25.6875 -2.875 C-16.78295721 -7.4414322 -7.98405199 -5.22034169 0 0 Z M-23.25 13.875 C-25.58743173 20.32866371 -25.54518114 30.8222197 -22.875 37.1875 C-21.37620781 39.9082743 -21.37620781 39.9082743 -19.25 41.875 C-13.61560957 42.531837 -13.61560957 42.531837 -8.8125 40.0625 C-5.55989298 35.50885017 -6.03221208 30.8633108 -6 25.5 C-5.979375 24.64921875 -5.95875 23.7984375 -5.9375 22.921875 C-5.90739163 18.0894818 -6.04081998 14.75900759 -9.25 10.875 C-15.23543924 6.88470717 -18.95658238 8.4775607 -23.25 13.875 Z " fill="#FFFFFF" transform="translate(252.25,153.125)"/>
<path d="M0 0 C1.10859375 0.01804688 2.2171875 0.03609375 3.359375 0.0546875 C6.07329421 0.10147921 8.78676387 0.1732103 11.5 0.25 C11.5 4.54 11.5 8.83 11.5 13.25 C10.18644531 13.28738281 8.87289062 13.32476562 7.51953125 13.36328125 C5.78382636 13.42895657 4.04815053 13.49540337 2.3125 13.5625 C1.44818359 13.58505859 0.58386719 13.60761719 -0.30664062 13.63085938 C-5.07534046 13.83183906 -8.72962121 14.00224797 -12.5 17.25 C-15.85304377 23.54717977 -14.79863368 32.52150873 -13.5 39.25 C-12.74362755 42.14123008 -12.74362755 42.14123008 -10.5 44.25 C-7.2 44.91 -3.9 45.57 -0.5 46.25 C-0.5 37.67 -0.5 29.09 -0.5 20.25 C3.79 20.25 8.08 20.25 12.5 20.25 C12.5 33.12 12.5 45.99 12.5 59.25 C6.3125 59.4046875 6.3125 59.4046875 0 59.5625 C-1.92682617 59.63078003 -1.92682617 59.63078003 -3.89257812 59.70043945 C-11.04436791 59.78666592 -16.08742096 59.16242073 -21.5 54.25 C-27.81234888 47.21509446 -28.8723224 39.64321321 -28.8125 30.4375 C-28.80758545 29.5511084 -28.8026709 28.6647168 -28.79760742 27.75146484 C-28.65977608 20.06825089 -27.93605569 13.24800919 -23.3125 6.875 C-16.15206143 0.191924 -9.55346986 -0.29711748 0 0 Z " fill="#FFFFFF" transform="translate(969.5,148.75)"/>
<path d="M0 0 C4.29 0 8.58 0 13 0 C13 6.6 13 13.2 13 20 C17.95 20 22.9 20 28 20 C28 13.4 28 6.8 28 0 C32.29 0 36.58 0 41 0 C41.08089106 4.56285508 41.14045647 9.12427754 41.1875 13.6875 C41.21263672 14.98107422 41.23777344 16.27464844 41.26367188 17.60742188 C41.27333984 18.85458984 41.28300781 20.10175781 41.29296875 21.38671875 C41.3086792 22.53358154 41.32438965 23.68044434 41.34057617 24.86206055 C40.95968775 28.37142172 40.15538761 30.22482418 38 33 C35 34 35 34 27 34 C27 42.25 27 50.5 27 59 C22.71 59 18.42 59 14 59 C14 50.75 14 42.5 14 34 C11.36 34 8.72 34 6 34 C3.625 33.3125 3.625 33.3125 2 32 C0.05469591 28.10285225 -0.23630815 24.93050987 -0.1953125 20.60546875 C-0.18886719 19.40341797 -0.18242188 18.20136719 -0.17578125 16.96289062 C-0.15902344 15.71701172 -0.14226563 14.47113281 -0.125 13.1875 C-0.11597656 11.92228516 -0.10695313 10.65707031 -0.09765625 9.35351562 C-0.07412478 6.23559595 -0.03825489 3.11777378 0 0 Z " fill="#FFFFFF" transform="translate(1010,149)"/>
<path d="M0 0 C11.55 0 23.1 0 35 0 C35 4.29 35 8.58 35 13 C28.07 13 21.14 13 14 13 C14 23.89 14 34.78 14 46 C20.93 46 27.86 46 35 46 C35 50.29 35 54.58 35 59 C23.45 59 11.9 59 0 59 C0 39.53 0 20.06 0 0 Z " fill="#FFFFFF" transform="translate(462,149)"/>
<path d="M0 0 C1.01320313 0.01804688 2.02640625 0.03609375 3.0703125 0.0546875 C5.54728972 0.10142292 8.0237741 0.17315161 10.5 0.25 C10.5 4.54 10.5 8.83 10.5 13.25 C8.74623047 13.30607422 8.74623047 13.30607422 6.95703125 13.36328125 C5.40882325 13.4289628 3.86064758 13.49540939 2.3125 13.5625 C1.54357422 13.58505859 0.77464844 13.60761719 -0.01757812 13.63085938 C-4.57142723 13.84584796 -7.86608222 14.21592278 -11.5 17.25 C-14.85304377 23.54717977 -13.79863368 32.52150873 -12.5 39.25 C-10.71468062 42.95219638 -10.71468062 42.95219638 -7.5 45.25 C-5.9804236 45.40123831 -4.45527498 45.49881693 -2.9296875 45.56640625 C-1.58583984 45.62924805 -1.58583984 45.62924805 -0.21484375 45.69335938 C0.72230469 45.73267578 1.65945313 45.77199219 2.625 45.8125 C4.04232422 45.87727539 4.04232422 45.87727539 5.48828125 45.94335938 C7.82534172 46.0495894 10.1626513 46.15031271 12.5 46.25 C12.5 50.54 12.5 54.83 12.5 59.25 C8.49885119 59.3855811 4.50234425 59.48441636 0.5 59.5625 C-0.62535156 59.60439453 -1.75070312 59.64628906 -2.91015625 59.68945312 C-10.0834277 59.79432551 -15.04248899 59.12670857 -20.5 54.25 C-26.95150434 47.18867679 -27.87686398 39.13128611 -27.8125 29.875 C-27.80758545 29.04009033 -27.8026709 28.20518066 -27.79760742 27.3449707 C-27.65482174 19.83151464 -26.83853165 13.09829351 -22.3125 6.875 C-15.45050589 0.47047217 -9.17042252 -0.31290156 0 0 Z " fill="#FFFFFF" transform="translate(551.5,148.75)"/>
<path d="M0 0 C14.52 0 29.04 0 44 0 C44 4.29 44 8.58 44 13 C39.05 13 34.1 13 29 13 C29 28.18 29 43.36 29 59 C24.38 59 19.76 59 15 59 C15 43.82 15 28.64 15 13 C11.37 13 7.74 13 4 13 C1 11 1 11 0.3125 9.3125 C-0.10343746 6.2345628 0 3.10591394 0 0 Z " fill="#FFFFFF" transform="translate(282,149)"/>
<path d="M0 0 C2 2 2 2 2.5625 5.625 C2.46033232 11.25443906 -1.26971668 14.1868215 -5 18 C-8.04786107 21.83440586 -8.52995294 24.94710548 -8.34765625 29.734375 C-7.51724471 35.14604572 -4.34694528 38.66439484 -0.75 42.5 C1.57182159 45.13494257 1.99793997 45.98913801 2.6875 49.625 C1.80931485 53.93609074 0.59972249 55.49584522 -3 58 C-9.5767853 58.44841718 -15.20157531 53.3484819 -19.9921875 49.328125 C-26.21223082 43.50851365 -29.56825143 36.92193373 -30.3125 28.4375 C-30.15769226 20.12432425 -26.68400013 12.73384207 -20.99609375 6.7890625 C-14.83146968 1.26382214 -8.25813449 -4.24066366 0 0 Z " fill="#FFFFFF" transform="translate(30,33)"/>
<path d="M0 0 C7.14265597 5.21678429 12.0760176 11.15203521 16 19 C16.80554065 28.20617887 16.82057735 36.39548731 11 44 C5.78068947 49.65798328 0.24725619 54.29763329 -7 57 C-9.94760535 56.93449766 -11.311459 56.40362748 -13.8125 54.9375 C-15.33769049 52.44903131 -15.70941713 50.22797788 -15.62890625 47.32421875 C-14.52158911 43.23195976 -11.71563016 40.41472355 -8.9453125 37.296875 C-5.63667577 33.39029187 -4.48134344 30.36873049 -4.6171875 25.1484375 C-5.56025914 19.85568852 -9.21791381 15.79999111 -12.8125 12 C-15.79585328 7.90854407 -15.65186156 5.97044437 -15 1 C-11.03325221 -4.8556753 -5.33000893 -2.66091076 0 0 Z " fill="#FFFFFF" transform="translate(89,34)"/>
<path d="M0 0 C14.19 0 28.38 0 43 0 C43 4.29 43 8.58 43 13 C38.05 13 33.1 13 28 13 C28 28.18 28 43.36 28 59 C23.71 59 19.42 59 15 59 C15 43.82 15 28.64 15 13 C11.04 13 7.08 13 3 13 C2.01 12.01 1.02 11.02 0 10 C0 6.7 0 3.4 0 0 Z " fill="#FFFFFF" transform="translate(391,149)"/>
<path d="M0 0 C4.29 0 8.58 0 13 0 C13 15.18 13 30.36 13 46 C19.93 46 26.86 46 34 46 C34 50.29 34 54.58 34 59 C22.78 59 11.56 59 0 59 C0 39.53 0 20.06 0 0 Z " fill="#FFFFFF" transform="translate(810,149)"/>
<path d="M0 0 C4.62 0 9.24 0 14 0 C14 19.47 14 38.94 14 59 C10.37 59 6.74 59 3 59 C0.38809945 56.38809945 0.07398976 54.43269626 -0.11352539 50.80175781 C-0.10828857 50.02670898 -0.10305176 49.25166016 -0.09765625 48.453125 C-0.09443359 47.60878906 -0.09121094 46.76445312 -0.08789062 45.89453125 C-0.07951172 45.02183594 -0.07113281 44.14914063 -0.0625 43.25 C-0.05573242 41.91775391 -0.05573242 41.91775391 -0.04882812 40.55859375 C-0.03707422 38.37236684 -0.01913966 36.18617472 0 34 C-3.96 34 -7.92 34 -12 34 C-12.25 24.375 -12.25 24.375 -10 21 C-6.6732956 20.2855766 -3.40749598 20.21842923 0 20 C0 13.4 0 6.8 0 0 Z " fill="#FFFFFF" transform="translate(622,149)"/>
<path d="M0 0 C4.8846525 2.26787438 7.73212562 5.1153475 10 10 C10.75381535 15.5997712 10.77303575 20.33499991 8.375 25.5 C3.80134327 30.3143755 0.6912538 32.25156236 -6 32.5 C-12.6912538 32.25156236 -15.80134327 30.3143755 -20.375 25.5 C-22.77303575 20.33499991 -22.75381535 15.5997712 -22 10 C-17.52212837 0.3553534 -9.85292056 -1.32635469 0 0 Z " fill="#FFFFFF" transform="translate(59,44)"/>
<path d="M0 0 C4.29 0 8.58 0 13 0 C13 19.47 13 38.94 13 59 C8.71 59 4.42 59 0 59 C0 39.53 0 20.06 0 0 Z " fill="#FFFFFF" transform="translate(593,149)"/>
<path d="M0 0 C4.29 0 8.58 0 13 0 C13 19.47 13 38.94 13 59 C8.71 59 4.42 59 0 59 C0 39.53 0 20.06 0 0 Z " fill="#FFFFFF" transform="translate(173,149)"/>
<path d="M0 0 C1.5675 0.020625 3.135 0.04125 4.75 0.0625 C4.75 4.6825 4.75 9.3025 4.75 14.0625 C-0.53 14.0625 -5.81 14.0625 -11.25 14.0625 C-11.5 4.4375 -11.5 4.4375 -9.25 1.0625 C-6.19517539 -0.09966154 -3.24027838 -0.04263524 0 0 Z " fill="#FFFFFF" transform="translate(490.25,168.9375)"/>
</svg>
