<?xml version="1.0" encoding="UTF-8"?>
<!-- Generator: visioncortex VTracer 0.6.3 -->
<svg version="1.1" xmlns="http://www.w3.org/2000/svg" width="750" height="175">
<path d="M0 0 C6.91 4.17 8.99 10.85 11.94 18.06 C12.49 19.37 13.04 20.69 13.59 22 C14.77 24.82 15.94 27.64 17.11 30.46 C18.75 34.42 20.44 38.35 22.14 42.28 C23.56 45.53 24.95 48.79 26.35 52.05 C27.03 53.63 27.72 55.22 28.41 56.8 C29.38 59.02 30.33 61.26 31.27 63.5 C31.57 64.15 31.86 64.81 32.16 65.48 C34.04 70.03 34.2 73.24 33 78 C30.27 81.13 28.77 81.92 24.64 82.33 C20.39 81.94 19.08 81.06 15.94 78.25 C15.01 77.44 14.09 76.63 13.13 75.8 C12.64 75.36 12.14 74.91 11.63 74.45 C9.2 72.29 6.71 70.19 4.23 68.08 C1.48 65.73 -1.26 63.36 -4 61 C-8.52 62.43 -11.42 64.95 -14.75 68.19 C-29.03 81.67 -29.03 81.67 -34.81 82.31 C-38 82 -38 82 -40.88 80.62 C-44.08 76.67 -43.52 72.93 -43 68 C-42.17 64.86 -40.94 62 -39.6 59.05 C-39.24 58.23 -38.89 57.42 -38.53 56.58 C-37.39 53.96 -36.23 51.36 -35.06 48.75 C-34.27 46.95 -33.49 45.15 -32.7 43.35 C-31.54 40.69 -30.37 38.02 -29.2 35.35 C-25.85 27.73 -22.71 20.03 -19.78 12.23 C-17.62 6.73 -14.97 3.25 -10.19 -0.38 C-6.7 -1.37 -3.38 -1.2 0 0 Z M-5 28 C-5.88 29.22 -6.7 30.48 -7.5 31.75 C-7.94 32.45 -8.39 33.14 -8.84 33.86 C-9.96 35.92 -10.55 37.71 -11 40 C-8.03 41.98 -8.03 41.98 -5 44 C-3.02 42.68 -1.04 41.36 1 40 C0.36 36.99 -0.65 34.48 -2.06 31.75 C-2.61 30.69 -2.61 30.69 -3.16 29.61 C-3.44 29.08 -3.71 28.55 -4 28 C-4.33 28 -4.66 28 -5 28 Z M-18 50 C-18.33 50.99 -18.66 51.98 -19 53 C-18.01 52.67 -17.02 52.34 -16 52 C-16 51.34 -16 50.68 -16 50 C-16.66 50 -17.32 50 -18 50 Z M5 50 C5.99 50.99 6.98 51.98 8 53 C7.67 52.01 7.34 51.02 7 50 C6.34 50 5.68 50 5 50 Z " fill="#0047FF" transform="translate(43,83)"/>
<path d="M0 0 C0 19.47 0 38.94 0 59 C-6.27 59 -12.54 59 -19 59 C-19 53.39 -19 47.78 -19 42 C-25.67 41.93 -25.67 41.93 -31.12 45 C-32.5 49.73 -32.98 54.57 -31.11 59.21 C-30.12 61.16 -30.12 61.16 -28 62 C-26.56 62.12 -25.12 62.18 -23.68 62.21 C-22.81 62.24 -21.95 62.27 -21.06 62.3 C-19.25 62.35 -17.44 62.39 -15.63 62.43 C-10.06 62.63 -5.87 63.2 -1 66 C1.29 69.34 1.21 72.28 1.12 76.25 C1.11 77.33 1.09 78.41 1.07 79.52 C1.05 80.34 1.02 81.16 1 82 C-3.39 82.07 -7.78 82.13 -12.18 82.16 C-13.67 82.18 -15.16 82.2 -16.65 82.23 C-27.35 82.41 -37.21 82.52 -45.5 74.81 C-52.29 66.63 -52.62 56.13 -52 46 C-50.89 38.64 -48.75 32.9 -43 28 C-37.12 23.84 -32.35 22.87 -25.25 22.94 C-23.49 22.95 -23.49 22.95 -21.7 22.96 C-20.81 22.98 -19.92 22.99 -19 23 C-19.03 22.07 -19.07 21.14 -19.11 20.18 C-19.38 7.51 -19.38 7.51 -16 2 C-13 0 -13 0 0 0 Z " fill="#0047FF" transform="translate(671,17)"/>
<path d="M0 0 C0.72 0 1.45 0.01 2.19 0.01 C4.49 0.02 6.78 0.04 9.07 0.07 C10.63 0.08 12.2 0.09 13.76 0.1 C17.57 0.12 21.38 0.15 25.2 0.2 C23.88 8.44 21.88 16.37 19.57 24.38 C19.25 25.53 18.92 26.67 18.59 27.85 C17.79 30.63 17 33.41 16.2 36.2 C10.26 36.2 4.32 36.2 -1.8 36.2 C-1.29 30.59 -0.52 25.55 1.2 20.2 C-1.72 19.95 -1.72 19.95 -4.8 20.2 C-7.08 23.61 -7.13 25.1 -7.18 29.13 C-7.22 30.69 -7.22 30.69 -7.27 32.29 C-6.98 35.22 -6.98 35.22 -5.43 37.54 C-1.33 40.13 2.76 39.75 7.51 39.76 C19.6 39.82 19.6 39.82 25.2 43.2 C27.12 46.87 27.42 49.89 27.32 54.01 C27.3 54.98 27.28 55.96 27.27 56.96 C27.24 57.7 27.22 58.44 27.2 59.2 C22.64 59.27 18.09 59.32 13.54 59.36 C11.99 59.38 10.44 59.4 8.9 59.42 C-2.06 59.6 -10.82 59.38 -19.8 52.2 C-25.86 45.47 -27.18 38.15 -27.12 29.32 C-27.11 28.53 -27.11 27.73 -27.1 26.91 C-26.95 18.84 -25.71 12.1 -19.8 6.2 C-13.47 1.37 -7.88 -0.12 0 0 Z " fill="#0047FF" transform="translate(710.8046875,39.8046875)"/>
<path d="M0 0 C1.6 0.02 3.19 0.04 4.79 0.05 C8.67 0.1 12.56 0.17 16.44 0.25 C11.95 18.25 11.95 18.25 9.75 26.69 C9.54 27.51 9.33 28.34 9.11 29.19 C7.55 35.13 7.55 35.13 6.44 36.25 C5.09 36.34 3.75 36.36 2.4 36.35 C1.59 36.34 0.78 36.34 -0.05 36.34 C-0.9 36.33 -1.75 36.32 -2.62 36.31 C-3.48 36.31 -4.33 36.3 -5.21 36.3 C-7.33 36.29 -9.45 36.27 -11.56 36.25 C-10.47 30.49 -9.27 24.86 -7.56 19.25 C-11.52 19.74 -11.52 19.74 -15.56 20.25 C-17.08 26.3 -17.63 32.62 -14.56 38.25 C-12.13 39.47 -10.45 39.42 -7.73 39.5 C-6.77 39.53 -5.8 39.56 -4.81 39.6 C-2.78 39.66 -0.75 39.71 1.28 39.77 C2.73 39.82 2.73 39.82 4.21 39.87 C5.53 39.91 5.53 39.91 6.88 39.95 C10.71 40.4 13.41 41.28 16.24 43.95 C17.87 47.08 17.73 49.49 17.62 53 C17.58 54.76 17.58 54.76 17.54 56.55 C17.51 57.44 17.47 58.33 17.44 59.25 C12.92 59.35 8.41 59.42 3.89 59.47 C2.36 59.49 0.82 59.52 -0.71 59.55 C-11.58 59.79 -21.03 59.58 -29.5 51.94 C-36.14 44.63 -36.9 35.95 -36.77 26.41 C-36.24 18.31 -34.21 12.16 -28.87 6 C-19.96 -0.78 -10.7 -0.23 0 0 Z " fill="#0047FF" transform="translate(214.5625,39.75)"/>
<path d="M0 0 C5.26 -0.08 10.52 -0.16 15.94 -0.25 C17.58 -0.29 19.22 -0.32 20.91 -0.36 C30.34 -0.43 37.54 0.12 44.88 6.5 C45.58 7.33 46.28 8.15 47 9 C47.56 9.62 48.11 10.24 48.69 10.88 C52.23 16.62 52.28 22.68 52.2 29.21 C52.19 30.07 52.19 30.93 52.19 31.81 C52.18 34.52 52.15 37.23 52.12 39.94 C52.11 41.78 52.11 43.63 52.1 45.48 C52.08 49.99 52.04 54.49 52 59 C45.73 59 39.46 59 33 59 C32.95 56.44 32.9 53.87 32.85 51.23 C32.8 48.75 32.74 46.27 32.68 43.78 C32.64 42.06 32.61 40.33 32.58 38.61 C32.53 36.13 32.47 33.65 32.41 31.17 C32.4 30.4 32.39 29.62 32.38 28.83 C32.27 25.05 32.15 23.22 30 20 C26.37 19.67 22.74 19.34 19 19 C19 32.2 19 45.4 19 59 C12.73 59 6.46 59 0 59 C0 39.53 0 20.06 0 0 Z " fill="#0047FF" transform="translate(245,40)"/>
<path d="M0 0 C7.86 -0.15 7.86 -0.15 15.88 -0.31 C17.51 -0.36 19.14 -0.4 20.82 -0.45 C30.21 -0.54 37.29 0.43 44.82 6.45 C51.74 13.34 52.25 23.57 52.29 32.83 C52.28 35.97 52.24 39.11 52.19 42.25 C52.17 43.88 52.16 45.51 52.15 47.14 C52.12 51.1 52.06 55.05 52 59 C45.73 59 39.46 59 33 59 C32.94 56.69 32.88 54.37 32.82 51.99 C32.75 49.74 32.69 47.48 32.63 45.23 C32.58 43.67 32.54 42.11 32.5 40.55 C32.44 38.3 32.38 36.05 32.32 33.8 C32.3 33.11 32.28 32.42 32.27 31.71 C32.15 27.73 31.75 23.92 31 20 C27.04 19.67 23.08 19.34 19 19 C19 32.2 19 45.4 19 59 C12.73 59 6.46 59 0 59 C0 39.53 0 20.06 0 0 Z " fill="#0047FF" transform="translate(489,40)"/>
<path d="M0 0 C6.73 6.92 10.51 14.32 10.62 24.06 C10.46 33.52 7.84 40.65 1.3 47.55 C-4.61 52.62 -11.9 55.78 -19.75 55.31 C-29.17 53.55 -36.31 49.24 -41.75 41.31 C-46.16 33.7 -46.75 25.96 -45.75 17.31 C-44.83 13.99 -43.53 11.25 -41.75 8.31 C-41.41 7.69 -41.07 7.06 -40.72 6.42 C-37.18 0.62 -31.17 -3.28 -24.73 -5.33 C-15.46 -7 -7.93 -4.87 0 0 Z M-25.75 17.31 C-27.6 21.01 -27.1 25.27 -26.75 29.31 C-25.57 32.62 -24.7 34.53 -22 36.75 C-18.53 37.62 -16.19 37.29 -12.75 36.31 C-9.1 32.76 -8.47 29.67 -8.31 24.75 C-8.47 20.51 -8.88 17.61 -11.75 14.31 C-17.8 10.28 -21.33 12.01 -25.75 17.31 Z " fill="#0047FF" transform="translate(414.75,44.6875)"/>
<path d="M0 0 C5.92 4.77 10.41 10.9 11.84 18.49 C12.76 28.71 11.19 37.69 4.71 45.87 C-0.86 51.66 -7.97 55.09 -16.01 55.56 C-23.96 55.31 -30.36 52.05 -36.12 46.67 C-43.51 38.76 -44.75 31.96 -44.52 21.19 C-43.77 13.37 -40.87 6.95 -35.16 1.49 C-23.41 -6.63 -12.22 -8.51 0 0 Z M-24.16 16.49 C-26.13 22.38 -26.05 28.43 -23.6 34.12 C-21.28 36.74 -21.28 36.74 -17.73 37.55 C-13.75 37.48 -12.16 37.06 -9.16 34.49 C-6.53 30.24 -6.6 25.35 -7.16 20.49 C-8.72 16.43 -9.53 14.92 -13.16 12.49 C-18.25 11.83 -20.56 12.89 -24.16 16.49 Z " fill="#0047FF" transform="translate(596.1640625,44.5078125)"/>
<path d="M0 0 C1.2 0 1.2 0 2.43 0 C3.29 0.01 4.15 0.02 5.03 0.03 C5.91 0.03 6.8 0.04 7.71 0.04 C10.53 0.05 13.35 0.08 16.18 0.1 C18.09 0.11 20 0.12 21.92 0.13 C26.61 0.15 31.3 0.19 35.99 0.23 C35.99 6.5 35.99 12.77 35.99 19.23 C29.72 19.56 23.45 19.89 16.99 20.23 C19.36 22.63 21.73 25.02 24.11 27.41 C24.78 28.09 25.44 28.76 26.13 29.46 C29.13 32.47 32.07 35.35 35.45 37.94 C37.99 40.23 37.99 40.23 38.64 42.47 C37.91 52.81 37.91 52.81 34.55 57.04 C31.79 59.14 29.22 59.35 25.88 59.34 C24.65 59.34 24.65 59.34 23.4 59.34 C22.07 59.33 22.07 59.33 20.73 59.32 C19.82 59.32 18.91 59.32 17.98 59.32 C15.09 59.31 12.19 59.3 9.3 59.29 C7.34 59.28 5.38 59.28 3.42 59.28 C-1.39 59.27 -6.2 59.25 -11.01 59.23 C-11.01 52.96 -11.01 46.69 -11.01 40.23 C-3.75 39.9 3.51 39.57 10.99 39.23 C8.64 36.86 6.29 34.48 3.86 32.04 C3.13 31.3 2.41 30.56 1.66 29.8 C-1.27 26.86 -4.13 24.09 -7.47 21.61 C-10.01 19.23 -10.01 19.23 -10.7 16.29 C-10.66 15.28 -10.62 14.27 -10.57 13.23 C-10.56 12.22 -10.54 11.21 -10.52 10.16 C-9.95 6.86 -8.99 4.92 -7.01 2.23 C-3.97 0.2 -3.41 -0.02 0 0 Z " fill="#0047FF" transform="translate(130.012451171875,39.77294921875)"/>
<path d="M0 0 C1.2 0 1.2 0 2.43 0 C3.29 0.01 4.15 0.02 5.03 0.03 C5.91 0.03 6.8 0.04 7.71 0.04 C10.53 0.05 13.35 0.08 16.18 0.1 C18.09 0.11 20 0.12 21.92 0.13 C26.61 0.15 31.3 0.19 35.99 0.23 C35.99 6.5 35.99 12.77 35.99 19.23 C29.72 19.56 23.45 19.89 16.99 20.23 C22.66 25.97 28.27 31.65 34.43 36.89 C37.94 39.91 37.94 39.91 38.29 42.36 C38.31 48.08 37.98 52.28 34.99 57.23 C30.43 59.88 25.64 59.48 20.53 59.42 C19.63 59.42 18.72 59.42 17.79 59.41 C14.92 59.4 12.05 59.38 9.18 59.35 C7.22 59.34 5.27 59.33 3.32 59.32 C-1.46 59.3 -6.24 59.27 -11.01 59.23 C-11.01 52.96 -11.01 46.69 -11.01 40.23 C-3.42 39.9 4.17 39.57 11.99 39.23 C10.52 37.93 9.06 36.63 7.55 35.29 C3.17 31.36 -1 27.29 -5.1 23.07 C-7.08 21.05 -7.08 21.05 -10.01 19.23 C-11.02 13.17 -10.56 7.35 -7.01 2.23 C-3.97 0.2 -3.41 -0.02 0 0 Z " fill="#0047FF" transform="translate(321.012451171875,39.77294921875)"/>
<path d="M0 0 C1.06 0 1.06 0 2.14 0.01 C4.38 0.02 6.62 0.04 8.86 0.07 C10.38 0.08 11.91 0.09 13.43 0.1 C17.16 0.12 20.88 0.16 24.61 0.2 C24.61 6.47 24.61 12.74 24.61 19.2 C18.34 19.2 12.07 19.2 5.61 19.2 C5.61 32.4 5.61 45.6 5.61 59.2 C-0.66 59.2 -6.93 59.2 -13.39 59.2 C-13.44 51.72 -13.48 44.25 -13.5 36.77 C-13.51 34.23 -13.52 31.68 -13.54 29.14 C-13.57 25.49 -13.58 21.83 -13.59 18.18 C-13.6 17.04 -13.61 15.9 -13.62 14.73 C-13.62 13.67 -13.62 12.61 -13.62 11.51 C-13.62 10.58 -13.63 9.65 -13.63 8.69 C-13.38 6.04 -12.79 4.44 -11.39 2.2 C-7.89 -0.41 -4.23 -0.03 0 0 Z " fill="#0047FF" transform="translate(452.390625,39.8046875)"/>
<path d="M0 0 C3.3 0 6.6 0 10 0 C12.97 5.28 15.94 10.56 19 16 C19.33 10.72 19.66 5.44 20 0 C23.63 0 27.26 0 31 0 C31 14.19 31 28.38 31 43 C23 43 23 43 20.24 41.42 C16.07 36.91 13.78 31.44 11 26 C10.67 31.61 10.34 37.22 10 43 C6.7 43 3.4 43 0 43 C0 28.81 0 14.62 0 0 Z " fill="#0047FF" transform="translate(464,121)"/>
<path d="M0 0 C4.73 1.67 7.27 3.81 10 8 C13.13 15.77 13.46 25.61 10.88 33.62 C8.4 38.08 5.62 40.69 1 43 C-4.26 43.52 -8.65 43.67 -13.44 41.31 C-19.28 36.04 -21.31 31.81 -22 24 C-22 17.58 -21.81 11.39 -18 6 C-12.19 0.31 -7.96 -0.67 0 0 Z M-10 13 C-11.82 18.41 -11.5 24.54 -10.38 30.06 C-9.08 32.28 -9.08 32.28 -6.12 33.06 C-2.98 33.29 -2.98 33.29 -0.84 31.46 C1.69 28.07 1.53 25.69 1.5 21.5 C1.51 20.19 1.52 18.88 1.53 17.53 C1.28 13.97 1.28 13.97 -0.84 11.53 C-4.66 8.82 -6.85 10.06 -10 13 Z " fill="#0047FF" transform="translate(534,121)"/>
<path d="M0 0 C5.74 2.91 7.96 7.44 9.93 13.35 C10.9 29.19 10.9 29.19 6.93 36.35 C3.98 39.47 0.89 42.19 -3.5 42.55 C-13.26 42.71 -13.26 42.71 -17.07 39.35 C-21.73 34.81 -23.54 30.84 -24.07 24.35 C-24.06 10.85 -24.06 10.85 -20.07 5.35 C-14.13 -0.45 -8.19 -2.56 0 0 Z M-12.07 12.35 C-13.09 15.39 -13.24 17.55 -13.26 20.73 C-13.28 21.66 -13.29 22.6 -13.3 23.56 C-13.06 26.57 -12.48 28.69 -11.07 31.35 C-8.22 32.6 -8.22 32.6 -5.07 32.35 C-2.76 30.87 -2.76 30.87 -1.07 28.35 C-0.44 24.76 -0.44 24.76 -0.57 20.85 C-0.56 19.54 -0.55 18.23 -0.54 16.88 C-0.79 13.32 -0.79 13.32 -2.92 10.88 C-6.76 8.15 -8.87 9.46 -12.07 12.35 Z " fill="#0047FF" transform="translate(628.07421875,121.6484375)"/>
<path d="M0 0 C4.4 2.2 7.36 4.86 10 9 C13.06 18.19 12.94 27.05 9 36 C5.72 40.03 2.63 42.66 -2.59 43.34 C-8.59 43.42 -12.34 43.19 -17 39 C-22.44 33.17 -22.38 25.97 -22.25 18.42 C-21.82 12.54 -20.44 8.7 -16.56 4.12 C-11.29 -0.25 -6.73 -0.86 0 0 Z M-9.16 11.54 C-11.69 14.93 -11.53 17.31 -11.5 21.5 C-11.51 22.81 -11.52 24.12 -11.53 25.47 C-11.28 29.03 -11.28 29.03 -9.16 31.46 C-7.02 33.29 -7.02 33.29 -3.88 33.06 C-0.84 32.31 -0.84 32.31 0.16 29.78 C1.04 26.87 1.27 24.53 1.25 21.5 C1.26 20.58 1.26 19.66 1.27 18.72 C0.98 15.77 0.38 13.63 -1 11 C-4.49 9.71 -6.07 9.34 -9.16 11.54 Z " fill="#0047FF" transform="translate(172,121)"/>
<path d="M0 0 C0.75 0 1.5 0.01 2.27 0.01 C4.12 0.03 5.97 0.04 7.81 0.06 C7.81 3.69 7.81 7.32 7.81 11.06 C6.67 11.11 5.53 11.16 4.35 11.21 C2.86 11.29 1.37 11.36 -0.12 11.44 C-1.26 11.48 -1.26 11.48 -2.41 11.53 C-4.34 11.64 -6.27 11.84 -8.19 12.06 C-9.7 15.1 -9.33 18.24 -9.31 21.56 C-9.32 22.25 -9.32 22.94 -9.32 23.65 C-9.38 27.48 -9.38 27.48 -8.19 31.06 C-5.88 31.72 -3.57 32.38 -1.19 33.06 C-1.19 27.12 -1.19 21.18 -1.19 15.06 C2.44 15.06 6.07 15.06 9.81 15.06 C9.81 24.3 9.81 33.54 9.81 43.06 C6.82 43.15 3.83 43.23 0.75 43.31 C-0.18 43.35 -1.11 43.39 -2.06 43.42 C-7.98 43.5 -11.36 42.53 -16.19 39.06 C-22.2 31.46 -21.87 23.38 -21.19 14.06 C-19.95 8.9 -18.25 5.93 -14.12 2.56 C-9.28 0.09 -5.32 -0.06 0 0 Z " fill="#0047FF" transform="translate(676.1875,120.9375)"/>
<path d="M0 0 C3.63 0 7.26 0 11 0 C11 4.95 11 9.9 11 15 C13.97 15 16.94 15 20 15 C20 10.05 20 5.1 20 0 C27.71 -0.1 27.71 -0.1 30 0 C32.01 2.01 31.19 5.94 31.19 8.69 C31.2 9.4 31.21 10.1 31.22 10.83 C31.24 15.25 30.85 18.9 29 23 C26 25 26 25 21 25 C21 30.94 21 36.88 21 43 C17.37 43 13.74 43 10 43 C10 37.06 10 31.12 10 25 C8.02 25 6.04 25 4 25 C1.96 23.45 1.14 22.28 0 20 C-0.08 18.48 -0.11 16.95 -0.1 15.43 C-0.09 14.53 -0.09 13.64 -0.09 12.71 C-0.08 11.78 -0.07 10.84 -0.06 9.88 C-0.06 8.93 -0.05 7.99 -0.05 7.01 C-0.04 4.67 -0.02 2.34 0 0 Z " fill="#0047FF" transform="translate(703,121)"/>
<path d="M0 0 C8.25 0 16.5 0 25 0 C25 3.63 25 7.26 25 11 C20.05 11 15.1 11 10 11 C10 18.26 10 25.52 10 33 C14.95 33 19.9 33 25 33 C25 36.3 25 39.6 25 43 C16.75 43 8.5 43 0 43 C0 28.81 0 14.62 0 0 Z " fill="#0047FF" transform="translate(322,121)"/>
<path d="M0 0 C0.7 0 1.4 0.01 2.13 0.01 C3.86 0.03 5.58 0.04 7.31 0.06 C7.31 3.69 7.31 7.32 7.31 11.06 C2.36 11.39 -2.59 11.72 -7.69 12.06 C-9.8 18.39 -10.67 22.5 -8.88 29 C-7.8 31.39 -7.8 31.39 -4.69 32.06 C-2.46 32.29 -0.23 32.47 2 32.62 C3.18 32.71 4.36 32.79 5.57 32.88 C6.93 32.97 6.93 32.97 8.31 33.06 C8.31 36.36 8.31 39.66 8.31 43.06 C5.6 43.14 2.9 43.2 0.19 43.25 C-0.57 43.28 -1.33 43.3 -2.12 43.33 C-7.08 43.39 -10.38 42.79 -14.69 40.06 C-21.15 33.24 -21.21 26.11 -21 17.19 C-20.73 12.19 -19.71 9.12 -16.69 5.06 C-11.15 0.66 -6.88 -0.08 0 0 Z " fill="#0047FF" transform="translate(385.6875,120.9375)"/>
<path d="M0 0 C10.89 0 21.78 0 33 0 C33 3.3 33 6.6 33 10 C32.67 10.33 32.34 10.66 32 11 C28.7 11 25.4 11 22 11 C22 21.56 22 32.12 22 43 C18.37 43 14.74 43 11 43 C11 32.44 11 21.88 11 11 C8.03 10.67 5.06 10.34 2 10 C0 6 0 6 0 0 Z " fill="#0047FF" transform="translate(197,121)"/>
<path d="M0 0 C10.56 0 21.12 0 32 0 C32 3.63 32 7.26 32 11 C28.7 11 25.4 11 22 11 C22.01 12.4 22.01 12.4 22.02 13.83 C22.03 17.28 22.05 20.74 22.05 24.19 C22.06 25.69 22.07 27.18 22.08 28.68 C22.09 30.83 22.09 32.97 22.1 35.12 C22.11 37.06 22.11 37.06 22.11 39.04 C22 42 22 42 21 43 C17.7 43 14.4 43 11 43 C11 32.44 11 21.88 11 11 C8.03 10.67 5.06 10.34 2 10 C0 7 0 7 0 0 Z " fill="#0047FF" transform="translate(272,121)"/>
<path d="M0 0 C6 1.11 10.55 4.75 14.75 9.06 C18.29 14.64 20 18.88 18.94 25.43 C17.06 32.76 12.29 37.24 6.38 41.62 C3.82 43.1 2.79 43.65 -0.19 43.5 C-3.22 42.41 -4.19 41.5 -5.62 38.62 C-5.73 34.75 -4.12 32.92 -1.62 30.19 C1.18 27.06 2.47 24.98 2.38 20.62 C1.09 17.25 -0.12 15.1 -2.75 12.62 C-5.23 9.98 -5.55 8.21 -5.62 4.62 C-4.22 1.49 -3.34 0.8 0 0 Z " fill="#0047FF" transform="translate(57.625,39.375)"/>
<path d="M0 0 C1.94 1.62 1.94 1.62 3 4 C3.1 8.32 1.81 10.43 -1 13.5 C-2.97 15.68 -4.06 17.14 -5.25 19.88 C-4.8 25.52 -0.92 30.08 3 34 C3.52 37.29 3.27 38.6 1.38 41.38 C-1 43 -1 43 -3.75 43.12 C-10.84 40.67 -16.25 35.61 -20.07 29.21 C-22.27 23.98 -22.06 17.65 -19.97 12.43 C-15.95 5.86 -8.38 -1.99 0 0 Z " fill="#0047FF" transform="translate(21,40)"/>
<path d="M0 0 C3.63 0 7.26 0 11 0 C11 10.89 11 21.78 11 33 C15.95 33 20.9 33 26 33 C26 36.3 26 39.6 26 43 C17.42 43 8.84 43 0 43 C0 28.81 0 14.62 0 0 Z " fill="#0047FF" transform="translate(564,121)"/>
<path d="M0 0 C3.3 0 6.6 0 10 0 C10 14.19 10 28.38 10 43 C3 43 3 43 1.07 41.98 C-0.61 38.88 -0.31 35.74 -0.19 32.31 C-0.17 31.61 -0.16 30.91 -0.15 30.19 C-0.11 28.46 -0.06 26.73 0 25 C-2.97 25 -5.94 25 -9 25 C-9.2 18.95 -9.2 18.95 -9 17 C-8.34 16.34 -7.68 15.68 -7 15 C-4.69 15 -2.38 15 0 15 C0 10.05 0 5.1 0 0 Z " fill="#0047FF" transform="translate(434,121)"/>
<path d="M0 0 C2.96 2.38 4.03 4.21 5.25 7.81 C5.46 12.07 4.72 15.04 2.5 18.69 C-0.55 21.57 -2.64 22.68 -6.86 22.95 C-11.32 22.81 -14.15 22.04 -17.31 18.81 C-19.91 15.28 -20.58 12.3 -20.27 7.96 C-19.35 4.15 -17.65 2.45 -14.75 -0.19 C-9.8 -3.18 -5.14 -2.22 0 0 Z " fill="#0047FF" transform="translate(45.75,50.1875)"/>
<path d="M0 0 C3.3 0 6.6 0 10 0 C10 14.19 10 28.38 10 43 C6.7 43 3.4 43 0 43 C0 28.81 0 14.62 0 0 Z " fill="#0047FF" transform="translate(413,121)"/>
<path d="M0 0 C3.3 0 6.6 0 10 0 C10 14.19 10 28.38 10 43 C6.7 43 3.4 43 0 43 C0 28.81 0 14.62 0 0 Z " fill="#0047FF" transform="translate(122,121)"/>
<path d="M0 0 C0.9 0.02 1.81 0.05 2.74 0.07 C5.16 0.13 5.16 0.13 7.62 0.2 C7.62 3.5 7.62 6.8 7.62 10.2 C3.66 10.2 -0.3 10.2 -4.38 10.2 C-4.58 4.14 -4.58 4.14 -4.38 2.2 C-2.38 0.2 -2.38 0.2 0 0 Z " fill="#0047FF" transform="translate(338.3828125,135.8046875)"/>
</svg>
