<?xml version="1.0" encoding="UTF-8"?>
<!-- Generator: visioncortex VTracer 0.6.3 -->
<svg version="1.1" xmlns="http://www.w3.org/2000/svg" width="7034" height="1644">
<path d="M0 0 C0.61 0.48 1.22 0.96 1.85 1.45 C20.79 16.51 31.54 40.98 40.44 62.81 C41.22 64.7 42 66.59 42.78 68.48 C44.4 72.39 46.01 76.3 47.61 80.21 C50.97 88.36 54.37 96.48 57.77 104.61 C58.88 107.27 60 109.93 61.11 112.59 C67.5 127.86 73.98 143.08 80.47 158.31 C88.17 176.39 95.82 194.49 103.46 212.6 C106.23 219.18 109 225.74 111.78 232.31 C119.97 251.69 128.14 271.09 136.25 290.5 C141.62 303.36 147.04 316.19 152.5 329 C158.34 342.71 164.13 356.44 169.88 370.19 C181.99 399.17 194.21 428.1 206.5 457 C221.3 491.79 235.97 526.63 250.48 561.54 C253.38 568.52 256.29 575.49 259.2 582.46 C261.64 588.3 264.08 594.15 266.51 600.01 C267.87 603.3 269.24 606.59 270.62 609.87 C273.84 617.55 276.99 625.24 280 633 C280.47 634.2 280.47 634.2 280.95 635.42 C287.87 653.65 287.04 673.25 279.27 691.02 C270.12 710.98 254.98 724.64 235 733.31 C216.29 740.15 196.1 740.38 177.83 732.2 C173.8 730.29 169.88 728.19 166 726 C165.01 725.44 164.03 724.89 163.01 724.31 C155.98 720.08 149.85 714.86 143.7 709.48 C141.42 707.49 139.12 705.53 136.81 703.56 C135.05 702.05 133.29 700.54 131.53 699.03 C129.2 697.03 126.87 695.03 124.53 693.03 C118.48 687.85 112.45 682.66 106.44 677.44 C101.27 672.95 96.07 668.5 90.84 664.09 C85.12 659.27 79.44 654.39 73.77 649.52 C70.85 647.01 67.92 644.5 65 642 C61.49 638.99 57.97 635.98 54.46 632.96 C48.83 628.12 43.18 623.3 37.5 618.5 C31.23 613.2 24.99 607.86 18.77 602.52 C15.27 599.51 11.76 596.51 8.26 593.51 C5.3 590.97 2.34 588.44 -0.61 585.89 C-5.94 581.3 -11.28 576.74 -16.75 572.31 C-21.13 568.76 -25.32 565.03 -29.49 561.23 C-32.88 558.21 -36.42 555.37 -39.95 552.52 C-43.52 549.57 -47.01 546.54 -50.5 543.5 C-51.78 542.39 -53.06 541.28 -54.34 540.18 C-56.64 538.19 -58.92 536.18 -61.19 534.17 C-62.14 533.35 -63.09 532.53 -64.06 531.69 C-64.88 530.97 -65.69 530.25 -66.54 529.51 C-69.64 527.61 -71.41 527.51 -75 528 C-77.1 529.02 -77.1 529.02 -78.94 530.69 C-80.09 531.65 -80.09 531.65 -81.27 532.62 C-82.17 533.41 -83.07 534.19 -84 535 C-85.14 535.98 -86.28 536.96 -87.42 537.94 C-89.99 540.15 -92.55 542.37 -95.1 544.6 C-98.76 547.79 -102.44 550.96 -106.12 554.12 C-106.7 554.62 -107.28 555.11 -107.87 555.62 C-112.27 559.38 -116.68 563.12 -121.11 566.86 C-125.09 570.22 -129.05 573.61 -133 577 C-138.01 581.31 -143.05 585.59 -148.1 589.85 C-152.13 593.25 -156.13 596.69 -160.12 600.12 C-164.19 603.62 -168.28 607.06 -172.44 610.44 C-178.78 615.59 -184.93 620.97 -191.09 626.34 C-198.13 632.46 -205.19 638.56 -212.44 644.44 C-218.79 649.59 -224.93 654.98 -231.1 660.35 C-239.05 667.25 -247.07 674.07 -255.11 680.86 C-260.24 685.2 -265.35 689.57 -270.45 693.95 C-272.84 696.01 -275.24 698.06 -277.64 700.11 C-278.85 701.14 -280.05 702.16 -281.25 703.19 C-281.84 703.69 -282.43 704.19 -283.03 704.71 C-286.42 707.61 -289.73 710.58 -293 713.62 C-312.25 730.96 -332.34 739.26 -358.43 738.17 C-379.67 736.78 -397.52 726.32 -411.51 710.76 C-415.61 705.91 -418.98 700.58 -422 695 C-422.65 693.95 -422.65 693.95 -423.32 692.87 C-428.5 683.46 -428.13 673.16 -428.12 662.69 C-428.13 661.68 -428.13 660.67 -428.13 659.64 C-428.02 642.83 -425.26 630.46 -417.33 615.52 C-412.49 606.32 -408.56 596.68 -404.47 587.13 C-402.49 582.5 -400.49 577.89 -398.48 573.27 C-390.27 554.38 -382.17 535.45 -374.07 516.51 C-370.74 508.72 -367.4 500.93 -364.05 493.14 C-337.74 431.8 -337.74 431.8 -311.99 370.24 C-308.51 361.82 -305.01 353.41 -301.5 345 C-296.25 332.42 -291.03 319.84 -285.81 307.25 C-277.09 286.19 -268.32 265.15 -259.55 244.11 C-255.78 235.07 -252.01 226.03 -248.25 216.99 C-246.17 212.01 -244.09 207.03 -242.02 202.05 C-241.19 200.05 -240.35 198.05 -239.52 196.05 C-236.97 189.93 -236.97 189.93 -234.42 183.81 C-233.99 182.78 -233.56 181.75 -233.12 180.69 C-232.26 178.62 -231.4 176.55 -230.53 174.48 C-228.41 169.38 -226.28 164.28 -224.16 159.18 C-220.43 150.23 -216.71 141.29 -212.97 132.36 C-212.04 130.11 -211.1 127.87 -210.16 125.62 C-209.56 124.17 -208.95 122.72 -208.34 121.26 C-204.88 112.98 -201.46 104.69 -198.08 96.38 C-191.38 79.89 -184.57 63.47 -177.38 47.19 C-177.04 46.44 -176.71 45.68 -176.37 44.91 C-163.64 15.94 -144.49 -5.43 -115.01 -17.84 C-76.8 -32.64 -31.28 -27.27 0 0 Z M-70 218 C-74.05 224.3 -77.65 230.77 -81.19 237.38 C-82.35 239.54 -83.51 241.7 -84.68 243.86 C-85.25 244.91 -85.82 245.96 -86.4 247.05 C-88.51 250.94 -90.65 254.82 -92.81 258.69 C-96.78 265.8 -100.73 272.93 -104.66 280.07 C-110.4 290.49 -116.16 300.91 -121.94 311.31 C-122.56 312.43 -123.18 313.55 -123.82 314.7 C-126.48 319.5 -129.15 324.29 -131.9 329.03 C-132.33 329.77 -132.75 330.51 -133.19 331.26 C-133.94 332.57 -134.71 333.87 -135.48 335.16 C-137.56 338.77 -139.06 341.79 -139 346 C-135.54 351.47 -130.65 354.57 -125.31 358.06 C-123.6 359.21 -121.89 360.35 -120.18 361.5 C-119.31 362.08 -118.45 362.66 -117.56 363.26 C-113.63 365.93 -109.78 368.71 -105.94 371.5 C-105.21 372.03 -104.48 372.56 -103.74 373.1 C-102.26 374.17 -100.78 375.25 -99.3 376.33 C-95.23 379.29 -91.14 382.24 -87.06 385.19 C-86.3 385.74 -85.53 386.29 -84.75 386.86 C-84.04 387.38 -83.33 387.89 -82.6 388.42 C-81.97 388.87 -81.35 389.32 -80.71 389.79 C-76.76 392.59 -74.87 393.46 -70 393 C-62.54 389.59 -55.98 383.78 -49.47 378.83 C-44.26 374.88 -38.92 371.16 -33.5 367.5 C-27.28 363.29 -21.14 358.99 -15.12 354.5 C-14.48 354.02 -13.83 353.54 -13.16 353.04 C-7.67 348.95 -7.67 348.95 -3 344 C-3.32 339.38 -4.82 335.91 -6.96 331.84 C-7.26 331.27 -7.55 330.69 -7.86 330.1 C-8.84 328.23 -9.82 326.36 -10.81 324.5 C-11.5 323.19 -12.18 321.88 -12.87 320.57 C-17.35 312.03 -21.93 303.55 -26.58 295.11 C-30.33 288.29 -33.93 281.41 -37.5 274.5 C-42.08 265.63 -46.78 256.82 -51.6 248.07 C-54.16 243.41 -56.67 238.73 -59.09 234 C-59.59 233.02 -60.09 232.05 -60.6 231.05 C-61.56 229.18 -62.5 227.31 -63.44 225.43 C-63.86 224.6 -64.29 223.77 -64.72 222.92 C-65.09 222.18 -65.46 221.45 -65.84 220.69 C-66.97 218.67 -66.97 218.67 -70 218 Z M37.7 429.45 C36.85 430.19 36 430.93 35.12 431.69 C34.17 432.51 33.21 433.33 32.23 434.18 C31.71 434.63 31.2 435.08 30.67 435.55 C28.88 437.1 27.08 438.64 25.27 440.17 C18.46 445.89 18.46 445.89 12 452 C13.35 455.15 14.68 456.8 17.46 458.78 C18.17 459.28 18.88 459.79 19.61 460.31 C20.38 460.85 21.15 461.39 21.94 461.94 C22.74 462.51 23.54 463.07 24.36 463.66 C30.85 468.25 37.43 472.72 44.02 477.18 C49.92 481.2 55.64 485.42 61.33 489.74 C65.63 492.99 69.96 496.16 74.38 499.25 C75.41 499.98 76.45 500.7 77.52 501.45 C79.8 503.18 79.8 503.18 82 503 C81.29 499.33 79.76 496.34 78.04 493.04 C77.74 492.46 77.45 491.88 77.14 491.29 C76.16 489.4 75.17 487.51 74.19 485.62 C73.5 484.31 72.82 483 72.14 481.68 C67.6 472.98 62.98 464.32 58.23 455.73 C55.8 451.34 53.44 446.93 51.18 442.46 C50.72 441.57 50.27 440.68 49.81 439.77 C48.96 438.09 48.12 436.41 47.3 434.72 C46.92 433.98 46.54 433.24 46.16 432.48 C45.83 431.83 45.51 431.18 45.18 430.51 C44.08 428.84 44.08 428.84 42.01 428.19 C39.83 427.78 39.83 427.78 37.7 429.45 Z M-187 429 C-192.38 434.56 -195.72 442.83 -199.29 449.62 C-200.93 452.74 -202.59 455.85 -204.25 458.96 C-204.57 459.57 -204.9 460.18 -205.23 460.81 C-207.87 465.78 -210.57 470.71 -213.31 475.62 C-213.7 476.32 -214.08 477.01 -214.48 477.72 C-216.59 481.5 -218.72 485.27 -220.87 489.02 C-221.34 489.86 -221.81 490.69 -222.3 491.54 C-223.2 493.15 -224.12 494.75 -225.04 496.34 C-226.09 498.19 -227.05 500.09 -228 502 C-227.67 502.66 -227.34 503.32 -227 504 C-216.85 497.13 -206.77 490.17 -196.86 482.96 C-191.16 478.82 -185.4 474.77 -179.62 470.75 C-172.3 465.65 -165.08 460.44 -158 455 C-158.2 450.93 -158.7 449.32 -161.55 446.32 C-162.65 445.43 -163.76 444.55 -164.88 443.69 C-165.46 443.22 -166.04 442.75 -166.63 442.27 C-167.83 441.31 -169.03 440.36 -170.24 439.41 C-171.91 438.07 -173.55 436.69 -175.17 435.29 C-176.12 434.47 -177.08 433.65 -178.06 432.81 C-178.92 432.08 -179.78 431.34 -180.66 430.58 C-183.08 428.63 -183.08 428.63 -187 429 Z " fill="#0047FF" transform="translate(427,806)"/>
<path d="M0 0 C0 179.19 0 358.38 0 543 C-53.79 543 -107.58 543 -163 543 C-163 489.21 -163 435.42 -163 380 C-226.53 376.08 -226.53 376.08 -283.75 401.06 C-302.3 420.71 -307.09 449.9 -307.2 476.01 C-307.21 477.05 -307.21 478.09 -307.22 479.17 C-307.23 481.37 -307.24 483.57 -307.24 485.78 C-307.25 489.07 -307.28 492.36 -307.31 495.64 C-307.44 521.42 -306.38 556.17 -287.19 576.13 C-265.24 594.87 -238.59 595.44 -211.09 595.44 C-208.51 595.45 -205.93 595.47 -203.34 595.48 C-196.58 595.52 -189.81 595.54 -183.05 595.55 C-171 595.58 -158.95 595.63 -146.9 595.69 C-145.62 595.7 -144.33 595.71 -143.01 595.71 C-38.28 596.35 -38.28 596.35 -10.52 622.32 C15.98 649.92 11.18 703.05 11.05 738.67 C11.05 740.66 11.04 742.64 11.04 744.63 C11.03 749.42 11.02 754.21 11 759 C-22.21 759.07 -55.41 759.12 -88.62 759.15 C-92.55 759.16 -96.49 759.16 -100.42 759.16 C-101.59 759.17 -101.59 759.17 -102.79 759.17 C-115.42 759.18 -128.04 759.2 -140.67 759.23 C-153.65 759.26 -166.64 759.28 -179.62 759.28 C-187.62 759.29 -195.61 759.3 -203.6 759.32 C-209.76 759.34 -215.92 759.34 -222.08 759.34 C-224.59 759.34 -227.09 759.35 -229.59 759.36 C-297.21 759.66 -363.05 737.57 -411.81 689.62 C-450.25 650.88 -464.57 594.73 -470 542 C-470.1 541 -470.21 540 -470.32 538.97 C-477.61 465.07 -473.68 374.48 -429 312 C-428.28 310.98 -427.57 309.97 -426.83 308.92 C-421.4 301.43 -415.38 294.68 -409 288 C-408.2 287.15 -407.4 286.29 -406.57 285.41 C-399.93 278.52 -392.64 272.71 -385 267 C-384.42 266.57 -383.84 266.13 -383.25 265.69 C-369.69 255.58 -355.33 247.13 -340 240 C-338.94 239.51 -338.94 239.51 -337.86 239 C-317.88 229.85 -296.68 223.51 -275 220 C-273.75 219.8 -273.75 219.8 -272.48 219.59 C-250.85 216.21 -229.17 216.64 -207.35 216.79 C-202.33 216.83 -197.32 216.84 -192.3 216.85 C-182.53 216.89 -172.77 216.94 -163 217 C-163 215.9 -163.01 214.81 -163.01 213.68 C-163.05 203.2 -163.08 192.71 -163.1 182.23 C-163.11 176.84 -163.13 171.46 -163.15 166.07 C-163.64 49.42 -163.64 49.42 -137.13 21.89 C-117.7 2.74 -86.69 2.49 -61 1 C-60.03 0.94 -59.05 0.88 -58.05 0.82 C-38.69 -0.27 -19.42 0 0 0 Z " fill="#0047FF" transform="translate(6286,163)"/>
<path d="M0 0 C1.05 -0 2.11 -0 3.2 -0 C6.7 -0 10.2 0 13.71 0.01 C16.23 0.01 18.75 0.01 21.28 0.01 C26.7 0.01 32.11 0.01 37.53 0.01 C45.36 0.02 53.2 0.03 61.03 0.03 C73.74 0.03 86.45 0.04 99.16 0.04 C111.5 0.05 123.85 0.06 136.19 0.07 C136.95 0.07 137.71 0.07 138.5 0.07 C142.32 0.07 146.14 0.07 149.96 0.07 C181.63 0.08 213.29 0.1 244.96 0.12 C244.33 2.63 243.71 5.14 243.08 7.65 C242.82 8.7 242.82 8.7 242.56 9.77 C241.07 15.72 239.52 21.65 237.94 27.58 C237.77 28.24 237.59 28.9 237.41 29.57 C237.23 30.25 237.05 30.93 236.86 31.63 C236.47 33.09 236.08 34.56 235.69 36.02 C234.65 39.94 233.6 43.87 232.55 47.79 C231.89 50.28 231.22 52.77 230.56 55.26 C223.64 81.19 216.65 107.09 209.6 132.99 C208.81 135.92 208.01 138.85 207.21 141.78 C207.01 142.52 206.81 143.26 206.6 144.02 C200.78 165.44 195 186.86 189.22 208.29 C188.05 212.62 186.88 216.94 185.71 221.27 C180.51 240.54 175.31 259.81 170.13 279.08 C168.92 283.58 167.71 288.07 166.5 292.57 C165.58 295.97 164.67 299.37 163.75 302.77 C162.78 306.4 161.8 310.03 160.83 313.66 C160.54 314.71 160.26 315.76 159.97 316.84 C159.72 317.78 159.47 318.73 159.2 319.7 C158.99 320.51 158.77 321.32 158.54 322.16 C157.96 324.12 157.96 324.12 156.96 326.12 C104.82 326.12 52.68 326.12 -1.04 326.12 C-0.41 321.73 0.17 317.93 1.32 313.73 C1.59 312.71 1.87 311.69 2.15 310.64 C2.6 308.99 2.6 308.99 3.07 307.31 C3.39 306.14 3.7 304.96 4.03 303.75 C4.91 300.54 5.78 297.33 6.66 294.12 C7.59 290.73 8.51 287.34 9.44 283.94 C11 278.22 12.56 272.5 14.12 266.78 C16.3 258.82 18.47 250.86 20.64 242.89 C24.73 227.89 28.82 212.88 32.93 197.88 C33.65 195.26 34.36 192.65 35.07 190.04 C36 186.63 36.94 183.23 37.87 179.83 C38.4 177.91 38.92 176 39.44 174.08 C39.92 172.36 39.92 172.36 40.4 170.61 C40.68 169.59 40.95 168.58 41.24 167.53 C41.96 165.12 41.96 165.12 42.96 163.12 C-5.3 161.99 -5.3 161.99 -47.43 182.39 C-56.75 192.39 -61.28 204.83 -64.29 217.93 C-64.52 218.91 -64.52 218.91 -64.75 219.9 C-68.01 235.34 -68.39 250.97 -68.36 266.69 C-68.35 269.92 -68.38 273.15 -68.4 276.38 C-68.49 304.08 -65.19 334.99 -46.28 356.88 C-29.71 373.43 -8.38 378.24 14.26 378.29 C15.48 378.3 16.69 378.31 17.94 378.31 C20.57 378.33 23.21 378.34 25.84 378.35 C30.04 378.37 34.24 378.39 38.45 378.41 C49.65 378.48 60.86 378.54 72.06 378.59 C210.77 379.19 210.77 379.19 239.65 405.18 C266.12 433.62 261.05 488.01 260.98 523.92 C260.98 525.7 260.98 527.47 260.98 529.24 C260.97 533.53 260.97 537.83 260.96 542.12 C226.46 542.19 191.96 542.24 157.47 542.27 C153.38 542.28 149.3 542.28 145.21 542.29 C144.4 542.29 143.59 542.29 142.75 542.29 C129.63 542.3 116.51 542.32 103.4 542.35 C89.91 542.38 76.42 542.4 62.93 542.4 C54.63 542.41 46.32 542.42 38.02 542.44 C32.3 542.46 26.59 542.46 20.87 542.46 C17.59 542.46 14.3 542.46 11.02 542.48 C-53.4 542.75 -116.24 522.38 -163.53 477.46 C-166 475.09 -166 475.09 -168.67 473.02 C-172.29 470.11 -175.09 466.69 -178.04 463.12 C-179.28 461.64 -179.28 461.64 -180.55 460.12 C-232.88 396.32 -238.81 302.63 -231.73 223.67 C-225.5 162.1 -209.02 98.35 -159.5 57.12 C-156.09 54.36 -152.59 51.71 -149.04 49.12 C-148.5 48.72 -147.96 48.33 -147.41 47.92 C-105.1 17.23 -52.37 -0.16 0 0 Z " fill="#0047FF" transform="translate(6653.041549682617,379.87974548339844)"/>
<path d="M0 0 C1.05 -0 2.11 -0 3.2 -0 C6.7 -0 10.2 0 13.71 0.01 C16.23 0.01 18.75 0.01 21.28 0.01 C26.7 0.01 32.11 0.01 37.53 0.01 C45.36 0.02 53.2 0.03 61.03 0.03 C73.74 0.03 86.45 0.04 99.16 0.04 C111.5 0.05 123.85 0.06 136.19 0.07 C136.95 0.07 137.71 0.07 138.5 0.07 C142.32 0.07 146.14 0.07 149.96 0.07 C181.63 0.08 213.29 0.1 244.96 0.12 C244.33 2.63 243.71 5.14 243.08 7.65 C242.82 8.7 242.82 8.7 242.56 9.77 C241.07 15.72 239.52 21.65 237.94 27.58 C237.77 28.24 237.59 28.9 237.41 29.57 C237.23 30.25 237.05 30.93 236.86 31.63 C236.47 33.09 236.08 34.56 235.69 36.02 C234.65 39.94 233.6 43.87 232.55 47.79 C231.89 50.28 231.22 52.77 230.56 55.26 C223.64 81.19 216.65 107.09 209.6 132.99 C208.81 135.92 208.01 138.85 207.21 141.78 C207.01 142.52 206.81 143.26 206.6 144.02 C200.78 165.44 195 186.86 189.22 208.29 C188.05 212.62 186.88 216.94 185.71 221.27 C180.51 240.54 175.31 259.81 170.13 279.08 C168.92 283.58 167.71 288.07 166.5 292.57 C165.58 295.97 164.67 299.37 163.75 302.77 C162.78 306.4 161.8 310.03 160.83 313.66 C160.54 314.71 160.26 315.76 159.97 316.84 C159.72 317.78 159.47 318.73 159.2 319.7 C158.99 320.51 158.77 321.32 158.54 322.16 C157.96 324.12 157.96 324.12 156.96 326.12 C104.82 326.12 52.68 326.12 -1.04 326.12 C-0.41 321.73 0.17 317.93 1.32 313.73 C1.59 312.71 1.87 311.69 2.15 310.64 C2.6 308.99 2.6 308.99 3.07 307.31 C3.39 306.14 3.7 304.96 4.03 303.75 C4.91 300.54 5.78 297.33 6.66 294.12 C7.59 290.73 8.51 287.34 9.44 283.94 C11 278.22 12.56 272.5 14.12 266.78 C16.3 258.82 18.47 250.86 20.64 242.89 C24.73 227.89 28.82 212.88 32.93 197.88 C33.65 195.26 34.36 192.65 35.07 190.04 C36 186.63 36.94 183.23 37.87 179.83 C38.4 177.91 38.92 176 39.44 174.08 C39.92 172.36 39.92 172.36 40.4 170.61 C40.68 169.59 40.95 168.58 41.24 167.53 C41.96 165.12 41.96 165.12 42.96 163.12 C-5.3 161.99 -5.3 161.99 -47.43 182.39 C-56.75 192.39 -61.28 204.83 -64.29 217.93 C-64.52 218.91 -64.52 218.91 -64.75 219.9 C-68.01 235.34 -68.39 250.97 -68.36 266.69 C-68.35 269.92 -68.38 273.15 -68.4 276.38 C-68.49 304.08 -65.19 334.99 -46.28 356.88 C-29.71 373.43 -8.38 378.24 14.26 378.29 C15.48 378.3 16.69 378.31 17.94 378.31 C20.57 378.33 23.21 378.34 25.84 378.35 C30.04 378.37 34.24 378.39 38.45 378.41 C49.65 378.48 60.86 378.54 72.06 378.59 C210.77 379.19 210.77 379.19 239.65 405.18 C266.12 433.62 261.05 488.01 260.98 523.92 C260.98 525.7 260.98 527.47 260.98 529.24 C260.97 533.53 260.97 537.83 260.96 542.12 C226.46 542.19 191.96 542.24 157.47 542.27 C153.38 542.28 149.3 542.28 145.21 542.29 C144.4 542.29 143.59 542.29 142.75 542.29 C129.63 542.3 116.51 542.32 103.4 542.35 C89.91 542.38 76.42 542.4 62.93 542.4 C54.63 542.41 46.32 542.42 38.02 542.44 C32.3 542.46 26.59 542.46 20.87 542.46 C17.59 542.46 14.3 542.46 11.02 542.48 C-53.4 542.75 -116.24 522.38 -163.53 477.46 C-166 475.09 -166 475.09 -168.67 473.02 C-172.29 470.11 -175.09 466.69 -178.04 463.12 C-179.28 461.64 -179.28 461.64 -180.55 460.12 C-232.88 396.32 -238.81 302.63 -231.73 223.67 C-225.5 162.1 -209.02 98.35 -159.5 57.12 C-156.09 54.36 -152.59 51.71 -149.04 49.12 C-148.5 48.72 -147.96 48.33 -147.41 47.92 C-105.1 17.23 -52.37 -0.16 0 0 Z " fill="#0047FF" transform="translate(1912.0415496826172,379.87974548339844)"/>
<path d="M0 0 C329.41 0 329.41 0 396 56 C396.53 56.44 397.07 56.88 397.62 57.33 C446.19 97.35 464.44 159.49 470.31 220.12 C471.77 238.12 472.14 255.98 472.12 274.03 C472.11 277.64 472.11 281.24 472.11 284.85 C472.11 291.08 472.11 297.31 472.11 303.54 C472.1 312.54 472.09 321.55 472.09 330.55 C472.09 345.17 472.08 359.78 472.08 374.4 C472.07 388.58 472.06 402.77 472.05 416.95 C472.05 417.84 472.05 418.72 472.05 419.63 C472.05 426.56 472.05 433.48 472.05 440.41 C472.04 474.27 472.02 508.14 472 542 C417.88 542 363.76 542 308 542 C307.97 520.87 307.95 499.75 307.92 477.98 C307.9 464.57 307.87 451.16 307.84 437.74 C307.82 430.69 307.81 423.64 307.79 416.59 C307.79 415.71 307.79 414.82 307.79 413.91 C307.76 399.7 307.74 385.5 307.73 371.29 C307.71 356.67 307.69 342.06 307.65 327.44 C307.62 318.45 307.61 309.45 307.61 300.45 C307.61 294.26 307.59 288.07 307.57 281.87 C307.55 278.31 307.54 274.76 307.55 271.2 C307.6 242.52 307.3 206.28 286.5 183.81 C254.98 154.04 199.78 163.52 163 163 C163 288.07 163 413.14 163 542 C109.21 542 55.42 542 0 542 C0 363.14 0 184.28 0 0 Z " fill="#0047FF" transform="translate(4592,380)"/>
<path d="M0 0 C329.41 0 329.41 0 396 56 C396.53 56.44 397.07 56.88 397.62 57.33 C446.19 97.35 464.44 159.49 470.31 220.12 C471.77 238.12 472.14 255.98 472.12 274.03 C472.11 277.64 472.11 281.24 472.11 284.85 C472.11 291.08 472.11 297.31 472.11 303.54 C472.1 312.54 472.09 321.55 472.09 330.55 C472.09 345.17 472.08 359.78 472.08 374.4 C472.07 388.58 472.06 402.77 472.05 416.95 C472.05 417.84 472.05 418.72 472.05 419.63 C472.05 426.56 472.05 433.48 472.05 440.41 C472.04 474.27 472.02 508.14 472 542 C417.88 542 363.76 542 308 542 C307.97 520.87 307.95 499.75 307.92 477.98 C307.9 464.57 307.87 451.16 307.84 437.74 C307.82 430.69 307.81 423.64 307.79 416.59 C307.79 415.71 307.79 414.82 307.79 413.91 C307.76 399.7 307.74 385.5 307.73 371.29 C307.71 356.67 307.69 342.06 307.65 327.44 C307.62 318.45 307.61 309.45 307.61 300.45 C307.61 294.26 307.59 288.07 307.57 281.87 C307.55 278.31 307.54 274.76 307.55 271.2 C307.6 242.52 307.3 206.28 286.5 183.81 C254.98 154.04 199.78 163.52 163 163 C163 288.07 163 413.14 163 542 C109.21 542 55.42 542 0 542 C0 363.14 0 184.28 0 0 Z " fill="#0047FF" transform="translate(2308,380)"/>
<path d="M0 0 C36.14 -1.02 70.93 6.83 104.01 21.06 C105.1 21.53 105.1 21.53 106.21 22.01 C128.01 31.46 147.97 44.66 166.01 60.06 C166.75 60.69 167.48 61.31 168.24 61.96 C181.47 73.52 194.32 86 204.67 100.23 C206.14 102.24 207.64 104.21 209.14 106.19 C217.45 117.26 224.46 128.87 231.01 141.06 C231.39 141.78 231.78 142.49 232.18 143.23 C268.13 210.56 272.23 294.2 250.82 366.75 C238.97 404.97 218.34 439.14 192.01 469.06 C191.35 469.81 191.35 469.81 190.69 470.58 C169.98 494.17 144.75 512.57 117.01 527.06 C115.81 527.69 115.81 527.69 114.6 528.33 C59.03 557.1 -6.4 561.83 -65.96 543.25 C-104.03 530.79 -138.22 509.83 -166.99 482.06 C-167.87 481.21 -167.87 481.21 -168.78 480.35 C-176.39 472.98 -183.53 465.48 -189.99 457.06 C-190.44 456.49 -190.88 455.92 -191.34 455.34 C-221.73 416.48 -241.48 371.05 -247.99 322.06 C-248.12 321.11 -248.12 321.11 -248.25 320.13 C-250.1 306.09 -250.35 292.15 -250.3 278 C-250.3 276.87 -250.3 275.74 -250.3 274.58 C-250.25 258.21 -249.9 242.21 -246.99 226.06 C-246.8 224.95 -246.62 223.84 -246.42 222.69 C-239.82 184.4 -225.74 146.78 -202.99 115.06 C-202.48 114.34 -201.96 113.62 -201.43 112.88 C-194.71 103.5 -187.92 94.46 -179.99 86.06 C-178.88 84.77 -177.78 83.48 -176.68 82.19 C-168.56 72.91 -159.72 64.63 -149.99 57.06 C-148.71 56.04 -147.43 55.02 -146.16 54 C-104.43 21.06 -53.22 1.66 0 0 Z M-56.99 180.06 C-60.72 184.46 -63.94 189.17 -66.99 194.06 C-67.35 194.64 -67.71 195.21 -68.08 195.81 C-90.46 232.57 -91.68 282.5 -82.18 323.44 C-75.67 349.69 -61.77 375.34 -38.37 390.01 C-18.07 402.14 7.84 404.51 30.68 399.04 C42.37 395.84 52.87 389.97 62.01 382.06 C62.8 381.46 63.6 380.86 64.42 380.24 C88.3 360.15 96.7 324.6 99.32 295 C102.27 255.81 97.08 212.23 71.01 181.06 C56.87 164.73 38.58 155.25 17.01 153.06 C-11.14 151.09 -37.58 158.85 -56.99 180.06 Z " fill="#0047FF" transform="translate(5431.9921875,373.93798828125)"/>
<path d="M0 0 C36.14 -1.02 70.93 6.83 104.01 21.06 C105.1 21.53 105.1 21.53 106.21 22.01 C128.01 31.46 147.97 44.66 166.01 60.06 C166.75 60.69 167.48 61.31 168.24 61.96 C181.47 73.52 194.32 86 204.67 100.23 C206.14 102.24 207.64 104.21 209.14 106.19 C217.45 117.26 224.46 128.87 231.01 141.06 C231.39 141.78 231.78 142.49 232.18 143.23 C268.13 210.56 272.23 294.2 250.82 366.75 C238.97 404.97 218.34 439.14 192.01 469.06 C191.35 469.81 191.35 469.81 190.69 470.58 C169.98 494.17 144.75 512.57 117.01 527.06 C115.81 527.69 115.81 527.69 114.6 528.33 C59.03 557.1 -6.4 561.83 -65.96 543.25 C-104.03 530.79 -138.22 509.83 -166.99 482.06 C-167.87 481.21 -167.87 481.21 -168.78 480.35 C-176.39 472.98 -183.53 465.48 -189.99 457.06 C-190.44 456.49 -190.88 455.92 -191.34 455.34 C-221.73 416.48 -241.48 371.05 -247.99 322.06 C-248.12 321.11 -248.12 321.11 -248.25 320.13 C-250.1 306.09 -250.35 292.15 -250.3 278 C-250.3 276.87 -250.3 275.74 -250.3 274.58 C-250.25 258.21 -249.9 242.21 -246.99 226.06 C-246.8 224.95 -246.62 223.84 -246.42 222.69 C-239.82 184.4 -225.74 146.78 -202.99 115.06 C-202.48 114.34 -201.96 113.62 -201.43 112.88 C-194.71 103.5 -187.92 94.46 -179.99 86.06 C-178.88 84.77 -177.78 83.48 -176.68 82.19 C-168.56 72.91 -159.72 64.63 -149.99 57.06 C-148.71 56.04 -147.43 55.02 -146.16 54 C-104.43 21.06 -53.22 1.66 0 0 Z M-56.99 180.06 C-60.72 184.46 -63.94 189.17 -66.99 194.06 C-67.35 194.64 -67.71 195.21 -68.08 195.81 C-90.46 232.57 -91.68 282.5 -82.18 323.44 C-75.67 349.69 -61.77 375.34 -38.37 390.01 C-18.07 402.14 7.84 404.51 30.68 399.04 C42.37 395.84 52.87 389.97 62.01 382.06 C62.8 381.46 63.6 380.86 64.42 380.24 C88.3 360.15 96.7 324.6 99.32 295 C102.27 255.81 97.08 212.23 71.01 181.06 C56.87 164.73 38.58 155.25 17.01 153.06 C-11.14 151.09 -37.58 158.85 -56.99 180.06 Z " fill="#0047FF" transform="translate(3716.9921875,373.93798828125)"/>
<path d="M0 0 C3.69 0 7.38 0 11.07 0 C17.45 0 23.82 0 30.19 0.01 C39.4 0.02 48.62 0.02 57.83 0.02 C72.78 0.02 87.73 0.03 102.68 0.04 C117.19 0.05 131.71 0.06 146.22 0.06 C147.58 0.06 147.58 0.06 148.96 0.06 C156.05 0.06 163.14 0.07 170.22 0.07 C204.86 0.08 239.51 0.1 274.15 0.12 C274.15 53.91 274.15 107.7 274.15 163.12 C204.52 163.45 134.89 163.78 63.15 164.12 C71.92 172.98 71.92 172.98 81.02 181.21 C84.4 184.24 87.54 187.49 90.72 190.71 C94.05 194.07 97.49 197.21 101.09 200.28 C104.22 203.07 107.13 206.08 110.08 209.07 C112.69 211.7 115.33 214.22 118.15 216.62 C122 219.9 125.53 223.47 129.08 227.07 C131.69 229.7 134.33 232.22 137.15 234.62 C141 237.9 144.53 241.47 148.08 245.07 C150.69 247.7 153.33 250.22 156.15 252.62 C159.48 255.46 162.57 258.5 165.65 261.62 C168.7 264.71 171.77 267.74 175.08 270.55 C179.19 274.05 182.93 277.88 186.72 281.71 C190.05 285.07 193.49 288.21 197.09 291.28 C200.22 294.07 203.13 297.08 206.08 300.07 C208.69 302.7 211.33 305.22 214.15 307.62 C218 310.9 221.53 314.47 225.08 318.07 C227.69 320.7 230.33 323.22 233.15 325.62 C237 328.9 240.53 332.47 244.08 336.07 C246.69 338.7 249.33 341.22 252.15 343.62 C255.48 346.46 258.57 349.5 261.65 352.62 C264.7 355.71 267.77 358.74 271.08 361.55 C275.33 365.17 279.21 369.13 283.11 373.12 C285.85 375.98 285.85 375.98 289.15 378.12 C290.06 492.16 290.06 492.16 264.27 519.13 C239.3 544.18 196.25 542.17 163.3 542.24 C158.14 542.24 152.98 542.24 147.82 542.23 C143.73 542.23 139.65 542.23 135.56 542.23 C128.5 542.23 121.45 542.23 114.39 542.22 C104.18 542.21 93.98 542.21 83.77 542.21 C67.21 542.21 50.65 542.2 34.09 542.19 C18.01 542.18 1.93 542.18 -14.14 542.17 C-15.65 542.17 -15.65 542.17 -17.18 542.17 C-25.03 542.17 -32.87 542.17 -40.72 542.16 C-79.1 542.15 -117.47 542.13 -155.85 542.12 C-155.85 488.33 -155.85 434.54 -155.85 379.12 C-77.64 378.79 0.57 378.46 81.15 378.12 C77.19 374.49 73.23 370.86 69.15 367.12 C63.9 361.87 63.9 361.87 61.44 359.38 C59.42 357.39 57.36 355.52 55.21 353.68 C51.86 350.81 48.74 347.75 45.65 344.62 C42.57 341.5 39.48 338.46 36.15 335.62 C32.3 332.33 28.76 328.76 25.21 325.16 C22.61 322.54 19.96 320.02 17.15 317.62 C13.3 314.33 9.76 310.76 6.21 307.16 C3.61 304.54 0.96 302.02 -1.85 299.62 C-5.19 296.77 -8.28 293.73 -11.35 290.62 C-14.41 287.52 -17.48 284.5 -20.79 281.68 C-24.9 278.18 -28.64 274.36 -32.43 270.52 C-35.76 267.17 -39.19 264.02 -42.79 260.96 C-45.92 258.16 -48.84 255.15 -51.79 252.16 C-54.39 249.54 -57.04 247.02 -59.85 244.62 C-63.7 241.33 -67.24 237.76 -70.79 234.16 C-73.39 231.54 -76.04 229.02 -78.85 226.62 C-82.7 223.33 -86.24 219.76 -89.79 216.16 C-92.39 213.54 -95.04 211.02 -97.85 208.62 C-101.19 205.77 -104.28 202.73 -107.35 199.62 C-110.41 196.52 -113.48 193.5 -116.79 190.68 C-120.89 187.18 -124.63 183.37 -128.41 179.54 C-131.86 176.07 -135.39 172.77 -139.13 169.62 C-139.7 169.12 -140.27 168.63 -140.85 168.12 C-141.88 167.42 -141.88 167.42 -142.93 166.72 C-146.04 162.51 -145.38 158.1 -145.31 153.01 C-145.31 151.9 -145.31 150.79 -145.31 149.64 C-145.31 147.28 -145.29 144.91 -145.26 142.54 C-145.23 139.01 -145.22 135.49 -145.22 131.96 C-145.16 112.28 -144.31 92.49 -141.04 73.05 C-140.87 72.02 -140.7 70.99 -140.52 69.93 C-137.31 51.51 -131.54 34.41 -117.85 21.12 C-117.04 20.27 -117.04 20.27 -116.22 19.42 C-89.61 -6.11 -33.86 -0.05 0 0 Z " fill="#0047FF" transform="translate(3069.853295326233,379.88393437862396)"/>
<path d="M0 0 C3.69 0 7.38 0 11.07 0 C17.45 0 23.82 0 30.19 0.01 C39.4 0.02 48.62 0.02 57.83 0.02 C72.78 0.02 87.73 0.03 102.68 0.04 C117.19 0.05 131.71 0.06 146.22 0.06 C147.58 0.06 147.58 0.06 148.96 0.06 C156.05 0.06 163.14 0.07 170.22 0.07 C204.86 0.08 239.51 0.1 274.15 0.12 C274.15 53.91 274.15 107.7 274.15 163.12 C204.52 163.45 134.89 163.78 63.15 164.12 C71.92 172.98 71.92 172.98 81.02 181.21 C84.4 184.24 87.54 187.49 90.72 190.71 C94.05 194.07 97.49 197.21 101.09 200.28 C104.22 203.07 107.13 206.08 110.08 209.07 C112.69 211.7 115.33 214.22 118.15 216.62 C122 219.9 125.53 223.47 129.08 227.07 C131.69 229.7 134.33 232.22 137.15 234.62 C141 237.9 144.53 241.47 148.08 245.07 C150.69 247.7 153.33 250.22 156.15 252.62 C159.48 255.46 162.57 258.5 165.65 261.62 C168.7 264.71 171.77 267.74 175.08 270.55 C179.19 274.05 182.93 277.88 186.72 281.71 C190.05 285.07 193.49 288.21 197.09 291.28 C200.22 294.07 203.13 297.08 206.08 300.07 C208.69 302.7 211.33 305.22 214.15 307.62 C218 310.9 221.53 314.47 225.08 318.07 C227.69 320.7 230.33 323.22 233.15 325.62 C237 328.9 240.53 332.47 244.08 336.07 C246.69 338.7 249.33 341.22 252.15 343.62 C255.48 346.46 258.57 349.5 261.65 352.62 C264.7 355.71 267.77 358.74 271.08 361.55 C275.33 365.17 279.21 369.13 283.11 373.12 C285.85 375.98 285.85 375.98 289.15 378.12 C290.06 492.16 290.06 492.16 264.27 519.13 C239.3 544.18 196.25 542.17 163.3 542.24 C158.14 542.24 152.98 542.24 147.82 542.23 C143.73 542.23 139.65 542.23 135.56 542.23 C128.5 542.23 121.45 542.23 114.39 542.22 C104.18 542.21 93.98 542.21 83.77 542.21 C67.21 542.21 50.65 542.2 34.09 542.19 C18.01 542.18 1.93 542.18 -14.14 542.17 C-15.65 542.17 -15.65 542.17 -17.18 542.17 C-25.03 542.17 -32.87 542.17 -40.72 542.16 C-79.1 542.15 -117.47 542.13 -155.85 542.12 C-155.85 488.33 -155.85 434.54 -155.85 379.12 C-77.64 378.79 0.57 378.46 81.15 378.12 C77.19 374.49 73.23 370.86 69.15 367.12 C63.9 361.87 63.9 361.87 61.44 359.38 C59.42 357.39 57.36 355.52 55.21 353.68 C51.86 350.81 48.74 347.75 45.65 344.62 C42.57 341.5 39.48 338.46 36.15 335.62 C32.3 332.33 28.76 328.76 25.21 325.16 C22.61 322.54 19.96 320.02 17.15 317.62 C13.3 314.33 9.76 310.76 6.21 307.16 C3.61 304.54 0.96 302.02 -1.85 299.62 C-5.19 296.77 -8.28 293.73 -11.35 290.62 C-14.41 287.52 -17.48 284.5 -20.79 281.68 C-24.9 278.18 -28.64 274.36 -32.43 270.52 C-35.76 267.17 -39.19 264.02 -42.79 260.96 C-45.92 258.16 -48.84 255.15 -51.79 252.16 C-54.39 249.54 -57.04 247.02 -59.85 244.62 C-63.7 241.33 -67.24 237.76 -70.79 234.16 C-73.39 231.54 -76.04 229.02 -78.85 226.62 C-82.7 223.33 -86.24 219.76 -89.79 216.16 C-92.39 213.54 -95.04 211.02 -97.85 208.62 C-101.19 205.77 -104.28 202.73 -107.35 199.62 C-110.41 196.52 -113.48 193.5 -116.79 190.68 C-120.89 187.18 -124.63 183.37 -128.41 179.54 C-131.86 176.07 -135.39 172.77 -139.13 169.62 C-139.7 169.12 -140.27 168.63 -140.85 168.12 C-141.88 167.42 -141.88 167.42 -142.93 166.72 C-146.04 162.51 -145.38 158.1 -145.31 153.01 C-145.31 151.9 -145.31 150.79 -145.31 149.64 C-145.31 147.28 -145.29 144.91 -145.26 142.54 C-145.23 139.01 -145.22 135.49 -145.22 131.96 C-145.16 112.28 -144.31 92.49 -141.04 73.05 C-140.87 72.02 -140.7 70.99 -140.52 69.93 C-137.31 51.51 -131.54 34.41 -117.85 21.12 C-117.04 20.27 -117.04 20.27 -116.22 19.42 C-89.61 -6.11 -33.86 -0.05 0 0 Z " fill="#0047FF" transform="translate(1276.853295326233,379.88393437862396)"/>
<path d="M0 0 C6.48 0.01 12.96 0.01 19.44 0.02 C30.29 0.02 41.13 0.03 51.97 0.05 C63.12 0.07 74.27 0.08 85.43 0.09 C86.47 0.09 86.47 0.09 87.54 0.09 C93.62 0.1 99.7 0.1 105.77 0.11 C131.79 0.13 157.8 0.17 183.81 0.2 C183.81 53.99 183.81 107.78 183.81 163.2 C123.09 163.2 62.37 163.2 -0.19 163.2 C-0.19 288.27 -0.19 413.34 -0.19 542.2 C-53.98 542.2 -107.77 542.2 -163.19 542.2 C-163.24 489.06 -163.27 435.92 -163.29 382.78 C-163.3 376.5 -163.3 370.21 -163.3 363.93 C-163.3 362.67 -163.3 361.42 -163.3 360.13 C-163.31 339.92 -163.33 319.71 -163.35 299.5 C-163.36 278.73 -163.38 257.96 -163.38 237.19 C-163.38 224.4 -163.39 211.6 -163.41 198.81 C-163.42 190.01 -163.42 181.21 -163.42 172.42 C-163.42 167.36 -163.42 162.3 -163.43 157.23 C-163.48 130.59 -163.38 103.93 -159.38 77.52 C-159.21 76.37 -159.04 75.22 -158.86 74.04 C-155.34 51.56 -148.76 30.26 -129.81 15.95 C-95.5 -6.94 -39.07 -0.09 0 0 Z " fill="#0047FF" transform="translate(4284.191831827164,379.79721212387085)"/>
<path d="M0 0 C28.38 0 56.76 0 86 0 C91.28 10.23 96.56 20.46 102 31 C105.72 38.08 105.72 38.08 109.45 45.16 C113.24 52.33 116.95 59.54 120.68 66.74 C125.95 76.9 131.23 87.05 136.53 97.19 C139.53 102.92 142.51 108.65 145.5 114.38 C147.98 119.13 150.45 123.87 152.93 128.61 C158.35 138.98 163.74 149.36 169.12 159.75 C173.25 167.72 177.39 175.68 181.56 183.62 C181.94 184.35 182.32 185.08 182.72 185.83 C185.41 190.93 188.2 195.95 191 201 C191.49 101.51 191.49 101.51 192 0 C220.05 0 248.1 0 277 0 C277 127.71 277 255.42 277 387 C206.89 387 206.89 387 192 373 C191.42 372.51 190.85 372.03 190.25 371.52 C177.73 360.24 170.6 343.14 162.89 328.47 C159.61 322.25 156.28 316.06 152.94 309.88 C151.78 307.73 150.62 305.58 149.46 303.43 C148.89 302.37 148.32 301.31 147.73 300.22 C144.82 294.81 141.91 289.41 139 284 C137.83 281.83 136.67 279.67 135.5 277.5 C114.5 238.5 114.5 238.5 112.75 235.25 C111.59 233.09 110.43 230.94 109.27 228.79 C106.55 223.74 103.83 218.69 101.12 213.64 C100.16 211.85 99.2 210.06 98.23 208.27 C97.03 206.03 95.82 203.78 94.62 201.54 C94.07 200.52 93.52 199.5 92.96 198.46 C92.25 197.13 92.25 197.13 91.52 195.77 C89.72 192.49 87.86 189.25 86 186 C85.67 252.33 85.34 318.66 85 387 C56.95 387 28.9 387 0 387 C0 259.29 0 131.58 0 0 Z " fill="#0047FF" transform="translate(4356,1146)"/>
<path d="M0 0 C0.76 -0 1.52 -0 2.3 -0 C13.97 0.01 25.23 0.48 36.62 3.25 C37.68 3.5 37.68 3.5 38.75 3.75 C74.35 12.47 104.18 35.37 123.25 66.47 C135.94 87.92 142.68 111.89 146.88 136.31 C147.03 137.18 147.18 138.05 147.33 138.95 C150.37 157.97 151 177.03 150.94 196.25 C150.94 197.41 150.93 198.57 150.93 199.77 C150.81 241.78 146.37 284.89 125.62 322.25 C125.07 323.29 124.52 324.33 123.95 325.4 C107.18 355.83 77.81 378.49 44.62 388.25 C30.23 392 16.23 393.49 1.38 393.5 C0.62 393.5 -0.14 393.5 -0.92 393.5 C-12.95 393.49 -24.61 392.98 -36.38 390.25 C-37.09 390.08 -37.81 389.92 -38.55 389.75 C-71.74 381.69 -102.44 360.28 -120.66 331.2 C-127 320.68 -132.18 309.78 -136.38 298.25 C-136.64 297.53 -136.9 296.82 -137.17 296.08 C-148.1 265.59 -150.94 232.49 -150.77 200.32 C-150.75 196.75 -150.77 193.18 -150.79 189.61 C-150.83 135.33 -140.24 80.97 -102.38 40.25 C-101.77 39.58 -101.17 38.91 -100.55 38.23 C-74.54 10.58 -36.82 0.03 0 0 Z M-44.48 100.88 C-47.6 104.79 -50.11 108.8 -52.38 113.25 C-52.8 114.08 -53.23 114.92 -53.68 115.78 C-60.59 130.69 -63.04 147.98 -64.38 164.25 C-64.49 165.48 -64.6 166.72 -64.71 167.99 C-67.56 206.32 -70.7 261.43 -44.06 292.56 C-33.94 303.24 -20.59 309.06 -5.89 309.55 C11.87 309.73 28.87 307.79 42.5 295.19 C69.06 265.82 66.99 214.7 65.31 177.93 C63.87 150.51 61.65 116.32 40.2 96.29 C17.05 77.96 -23.95 78.37 -44.48 100.88 Z " fill="#0047FF" transform="translate(5826.375,1142.75)"/>
<path d="M0 0 C0.76 -0 1.52 -0 2.3 -0 C13.97 0.01 25.23 0.48 36.62 3.25 C37.68 3.5 37.68 3.5 38.75 3.75 C74.35 12.47 104.18 35.37 123.25 66.47 C135.94 87.92 142.68 111.89 146.88 136.31 C147.03 137.18 147.18 138.05 147.33 138.95 C150.37 157.97 151 177.03 150.94 196.25 C150.94 197.41 150.93 198.57 150.93 199.77 C150.81 241.78 146.37 284.89 125.62 322.25 C125.07 323.29 124.52 324.33 123.95 325.4 C107.18 355.83 77.81 378.49 44.62 388.25 C30.23 392 16.23 393.49 1.38 393.5 C0.62 393.5 -0.14 393.5 -0.92 393.5 C-12.95 393.49 -24.61 392.98 -36.38 390.25 C-37.09 390.08 -37.81 389.92 -38.55 389.75 C-71.74 381.69 -102.44 360.28 -120.66 331.2 C-127 320.68 -132.18 309.78 -136.38 298.25 C-136.64 297.53 -136.9 296.82 -137.17 296.08 C-148.1 265.59 -150.94 232.49 -150.77 200.32 C-150.75 196.75 -150.77 193.18 -150.79 189.61 C-150.83 135.33 -140.24 80.97 -102.38 40.25 C-101.77 39.58 -101.17 38.91 -100.55 38.23 C-74.54 10.58 -36.82 0.03 0 0 Z M-44.48 100.88 C-47.6 104.79 -50.11 108.8 -52.38 113.25 C-52.8 114.08 -53.23 114.92 -53.68 115.78 C-60.59 130.69 -63.04 147.98 -64.38 164.25 C-64.49 165.48 -64.6 166.72 -64.71 167.99 C-67.56 206.32 -70.7 261.43 -44.06 292.56 C-33.94 303.24 -20.59 309.06 -5.89 309.55 C11.87 309.73 28.87 307.79 42.5 295.19 C69.06 265.82 66.99 214.7 65.31 177.93 C63.87 150.51 61.65 116.32 40.2 96.29 C17.05 77.96 -23.95 78.37 -44.48 100.88 Z " fill="#0047FF" transform="translate(4964.375,1142.75)"/>
<path d="M0 0 C0.76 -0 1.52 -0 2.3 -0 C13.97 0.01 25.23 0.48 36.62 3.25 C37.68 3.5 37.68 3.5 38.75 3.75 C74.35 12.47 104.18 35.37 123.25 66.47 C135.94 87.92 142.68 111.89 146.88 136.31 C147.03 137.18 147.18 138.05 147.33 138.95 C150.37 157.97 151 177.03 150.94 196.25 C150.94 197.41 150.93 198.57 150.93 199.77 C150.81 241.78 146.37 284.89 125.62 322.25 C125.07 323.29 124.52 324.33 123.95 325.4 C107.18 355.83 77.81 378.49 44.62 388.25 C30.23 392 16.23 393.49 1.38 393.5 C0.62 393.5 -0.14 393.5 -0.92 393.5 C-12.95 393.49 -24.61 392.98 -36.38 390.25 C-37.09 390.08 -37.81 389.92 -38.55 389.75 C-71.74 381.69 -102.44 360.28 -120.66 331.2 C-127 320.68 -132.18 309.78 -136.38 298.25 C-136.64 297.53 -136.9 296.82 -137.17 296.08 C-148.1 265.59 -150.94 232.49 -150.77 200.32 C-150.75 196.75 -150.77 193.18 -150.79 189.61 C-150.83 135.33 -140.24 80.97 -102.38 40.25 C-101.77 39.58 -101.17 38.91 -100.55 38.23 C-74.54 10.58 -36.82 0.03 0 0 Z M-44.48 100.88 C-47.6 104.79 -50.11 108.8 -52.38 113.25 C-52.8 114.08 -53.23 114.92 -53.68 115.78 C-60.59 130.69 -63.04 147.98 -64.38 164.25 C-64.49 165.48 -64.6 166.72 -64.71 167.99 C-67.56 206.32 -70.7 261.43 -44.06 292.56 C-33.94 303.24 -20.59 309.06 -5.89 309.55 C11.87 309.73 28.87 307.79 42.5 295.19 C69.06 265.82 66.99 214.7 65.31 177.93 C63.87 150.51 61.65 116.32 40.2 96.29 C17.05 77.96 -23.95 78.37 -44.48 100.88 Z " fill="#0047FF" transform="translate(1564.375,1142.75)"/>
<path d="M0 0 C1.93 -0 1.93 -0 3.9 -0 C7.42 -0 10.93 0.01 14.44 0.01 C18.12 0.02 21.8 0.02 25.47 0.02 C32.43 0.02 39.39 0.03 46.34 0.04 C55.75 0.05 65.15 0.06 74.56 0.07 C89.36 0.08 104.17 0.1 118.97 0.11 C118.97 27.5 118.97 54.89 118.97 83.11 C106.68 83.19 106.68 83.19 94.13 83.26 C88.24 83.3 82.36 83.34 76.48 83.39 C68.88 83.44 61.27 83.49 53.67 83.54 C46.99 83.57 40.32 83.62 33.65 83.67 C31.12 83.69 28.58 83.71 26.04 83.72 C-7.16 83.62 -7.16 83.62 -35.99 98.78 C-60.54 123.99 -58.56 170.93 -58.15 203.23 C-57.68 231.31 -55.83 267.34 -35.48 288.98 C-13.9 307.78 16.35 303.45 42.97 304.11 C42.97 248.34 42.97 192.57 42.97 135.11 C71.35 135.11 99.73 135.11 128.97 135.11 C128.97 218.27 128.97 301.43 128.97 387.11 C94.39 387.21 94.39 387.21 59.1 387.3 C48.23 387.34 48.23 387.34 37.13 387.38 C28.2 387.4 28.2 387.4 24 387.4 C21.1 387.4 18.21 387.41 15.31 387.43 C-16.06 387.6 -16.06 387.6 -31.03 384.11 C-32.05 383.88 -33.07 383.64 -34.12 383.4 C-36.5 382.81 -38.82 382.15 -41.15 381.43 C-41.98 381.17 -42.8 380.92 -43.66 380.66 C-62.71 374.54 -79.27 363.43 -94.03 350.11 C-95.13 349.11 -95.13 349.11 -96.26 348.09 C-130.09 315.9 -142.55 264.17 -144.13 219.04 C-144.19 215.85 -144.22 212.65 -144.23 209.46 C-144.23 208.28 -144.24 207.09 -144.25 205.88 C-144.26 203.38 -144.26 200.89 -144.27 198.39 C-144.28 194.68 -144.31 190.96 -144.34 187.25 C-144.51 148.65 -139.07 110.06 -122.03 75.11 C-121.53 74.1 -121.04 73.08 -120.53 72.04 C-104.21 40.46 -75.21 16.95 -41.62 6.06 C-27.82 1.78 -14.42 -0.04 0 0 Z " fill="#0047FF" transform="translate(6293.025390625,1145.886474609375)"/>
<path d="M0 0 C28.38 0 56.76 0 86 0 C86 44.55 86 89.1 86 135 C119.33 135 152.66 135 187 135 C187 90.45 187 45.9 187 0 C215.05 0 243.1 0 272 0 C272.12 37.23 272.12 37.23 272.15 52.96 C272.16 63.77 272.18 74.58 272.23 85.4 C272.26 93.28 272.28 101.16 272.28 109.04 C272.29 113.2 272.3 117.36 272.32 121.52 C272.64 184.87 272.64 184.87 254.83 204.38 C235.07 222.88 203.51 219 179 219 C179 274.44 179 329.88 179 387 C150.95 387 122.9 387 94 387 C94 331.56 94 276.12 94 219 C84.1 219 74.2 219 64 219 C46.27 217.73 29.7 216.27 16.81 202.88 C-4.03 178.02 -0.16 138.69 -0.1 108.31 C-0.1 104.49 -0.09 100.67 -0.09 96.85 C-0.09 89.65 -0.08 82.44 -0.07 75.24 C-0.06 65.49 -0.05 55.73 -0.05 45.98 C-0.04 30.65 -0.02 15.33 0 0 Z " fill="#0047FF" transform="translate(6600,1146)"/>
<path d="M0 0 C74.58 0 149.16 0 226 0 C226 27.39 226 54.78 226 83 C179.47 83 132.94 83 85 83 C85 155.93 85 228.86 85 304 C131.53 304 178.06 304 226 304 C226 331.39 226 358.78 226 387 C151.42 387 76.84 387 0 387 C0 259.29 0 131.58 0 0 Z " fill="#0047FF" transform="translate(3025,1146)"/>
<path d="M0 0 C1.77 -0 1.77 -0 3.58 -0 C7.46 0 11.35 0.01 15.23 0.02 C17.94 0.02 20.64 0.02 23.34 0.02 C29.71 0.02 36.08 0.03 42.45 0.04 C50.42 0.05 58.39 0.06 66.36 0.06 C80.57 0.07 94.78 0.09 108.98 0.11 C108.98 27.5 108.98 54.89 108.98 83.11 C97.88 83.19 97.88 83.19 86.54 83.26 C81.83 83.3 77.11 83.33 72.39 83.37 C64.92 83.43 57.45 83.49 49.98 83.54 C43.95 83.57 37.92 83.62 31.89 83.67 C29.6 83.69 27.31 83.71 25.02 83.72 C-7.12 83.87 -7.12 83.87 -34.98 98.78 C-59.53 123.99 -57.55 170.93 -57.14 203.23 C-56.68 231.31 -54.82 267.34 -34.47 288.98 C-20.07 301.52 -2.66 303.22 15.68 303.32 C16.8 303.33 17.92 303.34 19.08 303.35 C22.76 303.38 26.44 303.41 30.12 303.43 C32.68 303.45 35.25 303.47 37.81 303.49 C43.85 303.54 49.89 303.59 55.92 303.63 C63.48 303.69 71.04 303.75 78.59 303.81 C92.06 303.92 105.52 304.01 118.98 304.11 C118.98 331.5 118.98 358.89 118.98 387.11 C86.86 387.23 86.86 387.23 73.3 387.26 C63.97 387.28 54.64 387.3 45.31 387.34 C38.51 387.37 31.72 387.39 24.92 387.4 C21.33 387.4 17.74 387.41 14.15 387.43 C-4.49 387.54 -22.21 387 -40.14 381.43 C-40.97 381.17 -41.79 380.92 -42.65 380.66 C-61.7 374.54 -78.26 363.43 -93.02 350.11 C-94.12 349.11 -94.12 349.11 -95.25 348.09 C-129.08 315.9 -141.54 264.17 -143.12 219.04 C-143.18 215.85 -143.21 212.65 -143.22 209.46 C-143.22 208.28 -143.23 207.09 -143.24 205.88 C-143.25 203.38 -143.25 200.89 -143.26 198.39 C-143.27 194.68 -143.3 190.96 -143.33 187.25 C-143.5 148.65 -138.06 110.06 -121.02 75.11 C-120.52 74.1 -120.03 73.08 -119.52 72.04 C-103.2 40.46 -74.2 16.95 -40.61 6.06 C-27.18 1.9 -14.04 -0.05 0 0 Z " fill="#0047FF" transform="translate(3570.015625,1145.886474609375)"/>
<path d="M0 0 C6.63 5.81 10.31 12.58 13.84 20.61 C14.18 21.38 14.53 22.15 14.88 22.94 C19.11 34.29 18.38 48.8 13.44 59.71 C7.81 69.95 -0.16 78.21 -8.16 86.61 C-33.87 113.66 -61.8 144.4 -62.2 184.12 C-60.57 219.52 -35.59 251.81 -11.17 275.61 C-8.63 278.14 -6.29 280.81 -3.97 283.54 C-2.69 285.01 -1.36 286.44 -0.01 287.84 C10.66 299.02 17.53 311.27 17.93 327 C17.19 343.3 9.22 356.33 -2.16 367.61 C-10.92 375.03 -20.78 378.27 -32.3 377.91 C-63.18 374.71 -92.98 350.89 -116.16 331.61 C-116.66 331.2 -117.16 330.8 -117.67 330.37 C-131.73 318.83 -145.18 306.16 -156.16 291.61 C-156.77 290.82 -156.77 290.82 -157.4 290.02 C-186.97 251.85 -201.73 208.59 -196.7 160.11 C-196.12 155.88 -195.21 151.75 -194.16 147.61 C-193.96 146.8 -193.76 145.98 -193.56 145.14 C-182.49 100.44 -152.83 60.1 -116.16 32.61 C-114.99 31.7 -113.82 30.79 -112.65 29.88 C-83.42 7.29 -36.28 -28.95 0 0 Z " fill="#0047FF" transform="translate(199.16015625,392.38671875)"/>
<path d="M0 0 C0.75 0.4 1.5 0.8 2.27 1.21 C11.84 6.35 21.15 11.69 30 18 C30.72 18.51 31.44 19.02 32.18 19.55 C41.98 26.55 51.26 33.7 60 42 C61.39 43.22 62.78 44.42 64.19 45.62 C71.98 52.43 78.56 59.91 85 68 C85.85 69.03 86.7 70.05 87.56 71.08 C102.7 89.48 114.74 110.81 122.44 133.38 C122.77 134.35 122.77 134.35 123.11 135.35 C127.17 148.07 128.52 160.39 128.38 173.62 C128.37 174.37 128.37 175.11 128.36 175.87 C128 224.41 108.56 266.12 76.12 301.66 C74.18 303.8 72.31 305.98 70.44 308.19 C67.56 311.49 64.47 314.35 61.13 317.18 C58.88 319.1 56.73 321.11 54.56 323.12 C34.52 341.06 1.99 368.96 -25 374 C-26.13 374.23 -27.27 374.45 -28.44 374.69 C-43.37 376 -57.68 374.13 -69.56 364.5 C-79.88 354.88 -84.98 341.51 -85.47 327.62 C-85.71 306.74 -76.77 293.78 -63 279 C-59.97 275.9 -56.9 272.85 -53.81 269.81 C-47.41 263.49 -41.4 257.22 -36 250 C-35.22 249 -34.44 247.99 -33.63 246.96 C-15.57 223.24 -5.77 196.57 -9.28 166.58 C-13.02 144.54 -26.09 124.95 -40 108 C-40.45 107.46 -40.89 106.91 -41.35 106.35 C-50.87 94.84 -61.02 83.76 -71.75 73.36 C-81.39 63.76 -85.85 50.73 -86.25 37.38 C-86.09 24.54 -81.64 11.1 -72.75 1.59 C-50.03 -18.97 -24.8 -13.3 0 0 Z " fill="#0047FF" transform="translate(584,394)"/>
<path d="M0 0 C95.37 0 190.74 0 289 0 C289 27.39 289 54.78 289 83 C255.34 83 221.68 83 187 83 C187 183.32 187 283.64 187 387 C158.95 387 130.9 387 102 387 C102 286.68 102 186.36 102 83 C84.84 83 67.68 83 50 83 C19.95 79.66 19.95 79.66 11.25 70.07 C-2.43 51.39 0 21.38 0 0 Z " fill="#0047FF" transform="translate(2558,1146)"/>
<path d="M0 0 C95.37 0 190.74 0 289 0 C289 27.39 289 54.78 289 83 C255.34 83 221.68 83 187 83 C187 183.32 187 283.64 187 387 C158.95 387 130.9 387 102 387 C102 286.68 102 186.36 102 83 C84.84 83 67.68 83 50 83 C19.95 79.66 19.95 79.66 11.25 70.07 C-2.43 51.39 0 21.38 0 0 Z " fill="#0047FF" transform="translate(1857,1146)"/>
<path d="M0 0 C28.05 0 56.1 0 85 0 C85 100.32 85 200.64 85 304 C131.53 304 178.06 304 226 304 C226 331.39 226 358.78 226 387 C151.42 387 76.84 387 0 387 C0 259.29 0 131.58 0 0 Z " fill="#0047FF" transform="translate(5296,1146)"/>
<path d="M0 0 C28.38 0 56.76 0 86 0 C86 127.71 86 255.42 86 387 C25.54 387 25.54 387 14 377.05 C-4.06 358.53 -0.31 322.4 -0.2 298.69 C-0.19 296.37 -0.19 294.05 -0.19 291.73 C-0.18 285.71 -0.16 279.69 -0.14 273.68 C-0.11 266.41 -0.1 259.14 -0.09 251.88 C-0.07 240.92 -0.03 229.96 0 219 C-27.72 219 -55.44 219 -84 219 C-84 161.25 -84 161.25 -72.75 147.75 C-55.27 130.27 -21.1 135 0 135 C0 90.45 0 45.9 0 0 Z " fill="#0047FF" transform="translate(4075,1146)"/>
<path d="M0 0 C1.28 0 2.57 0.01 3.89 0.01 C12.9 0.13 21.08 0.74 29.75 3.31 C30.95 3.64 32.14 3.97 33.38 4.31 C61.4 12.75 84.79 31.9 98.94 57.46 C112.73 83.71 115.34 112.77 106.56 141.06 C96.46 169.12 75.63 192.01 48.96 205.23 C34.15 212.17 19.71 215 3.43 214.78 C1.05 214.75 -1.32 214.76 -3.7 214.77 C-33.3 214.73 -58.84 202.37 -79.82 181.77 C-100.45 160.86 -110.51 134.44 -110.5 105.22 C-110.41 96.89 -109.5 89.36 -107.25 81.31 C-106.91 80.09 -106.57 78.86 -106.22 77.59 C-98.15 51.2 -79.33 27.38 -54.99 14.08 C-37.24 4.86 -20.07 -0.09 0 0 Z " fill="#0047FF" transform="translate(357.25,461.6875)"/>
<path d="M0 0 C28.05 0 56.1 0 85 0 C85 127.71 85 255.42 85 387 C56.95 387 28.9 387 0 387 C0 259.29 0 131.58 0 0 Z " fill="#0047FF" transform="translate(3878,1146)"/>
<path d="M0 0 C28.05 0 56.1 0 85 0 C85 127.71 85 255.42 85 387 C56.95 387 28.9 387 0 387 C0 259.29 0 131.58 0 0 Z " fill="#0047FF" transform="translate(1148,1146)"/>
<path d="M0 0 C7.14 0.04 14.27 0.08 21.62 0.12 C21.62 27.85 21.62 55.57 21.62 84.12 C-12.03 84.12 -45.7 84.12 -80.38 84.12 C-80.38 26.37 -80.38 26.37 -69.12 12.87 C-52.57 -3.68 -21.55 -0.18 0 0 Z " fill="#0047FF" transform="translate(3218.375,1280.875)"/>
</svg>
