<?xml version="1.0" standalone="no"?>
<!DOCTYPE svg PUBLIC "-//W3C//DTD SVG 20010904//EN"
 "http://www.w3.org/TR/2001/REC-SVG-20010904/DTD/svg10.dtd">
<svg version="1.0" xmlns="http://www.w3.org/2000/svg"
 width="7034.000000pt" height="1644.000000pt" viewBox="0 0 7034.000000 1644.000000"
 preserveAspectRatio="xMidYMid meet">

<g transform="translate(0.000000,1644.000000) scale(0.100000,-0.100000)"
fill="#000000" stroke="none">
<path d="M62235 14789 c-169 -11 -370 -35 -454 -55 -242 -59 -391 -220 -461
-497 -60 -241 -79 -478 -87 -1104 l-6 -493 -351 0 c-488 0 -721 -20 -975 -85
-431 -109 -847 -346 -1136 -646 -332 -345 -519 -806 -597 -1474 -21 -177 -18
-891 5 -1075 63 -518 191 -911 395 -1215 73 -109 226 -274 339 -366 282 -232
674 -417 1043 -493 296 -62 224 -59 1683 -63 l1339 -4 -6 233 c-21 758 -63
968 -225 1128 -134 133 -322 197 -682 234 -234 24 -355 28 -1036 36 -731 8
-720 7 -889 90 -196 96 -290 259 -340 585 -28 184 -26 625 4 789 26 138 70
278 114 356 49 86 179 208 268 252 162 79 175 81 638 86 l412 3 0 -810 0 -811
815 0 815 0 0 2705 0 2705 -247 -1 c-137 -1 -306 -6 -378 -10z"/>
<path d="M36960 12675 c-272 -33 -525 -109 -786 -236 -780 -380 -1336 -1150
-1469 -2035 -53 -354 -42 -768 30 -1119 102 -495 348 -958 703 -1327 222 -230
453 -399 737 -538 352 -174 679 -250 1068 -250 271 0 471 32 722 115 654 215
1191 680 1521 1319 212 409 306 819 306 1326 0 311 -33 567 -107 825 -97 340
-283 696 -512 980 -104 129 -332 351 -455 443 -370 277 -821 459 -1247 502
-135 13 -379 11 -511 -5z m478 -1521 c158 -32 269 -92 387 -209 244 -240 359
-608 342 -1095 -14 -410 -126 -724 -334 -934 -157 -159 -340 -230 -593 -229
-147 0 -237 15 -340 56 -313 127 -521 446 -585 897 -19 137 -19 426 0 572 67
509 333 858 717 942 89 20 311 20 406 0z"/>
<path d="M54110 12675 c-272 -33 -525 -109 -786 -236 -780 -380 -1336 -1150
-1469 -2035 -53 -354 -42 -768 30 -1119 102 -495 348 -958 703 -1327 222 -230
453 -399 737 -538 352 -174 679 -250 1068 -250 271 0 471 32 722 115 654 215
1191 680 1521 1319 212 409 306 819 306 1326 0 311 -33 567 -107 825 -97 340
-283 696 -512 980 -104 129 -332 351 -455 443 -370 277 -821 459 -1247 502
-135 13 -379 11 -511 -5z m478 -1521 c158 -32 269 -92 387 -209 244 -240 359
-608 342 -1095 -14 -410 -126 -724 -334 -934 -157 -159 -340 -230 -593 -229
-147 0 -237 15 -340 56 -313 127 -521 446 -585 897 -19 137 -19 426 0 572 67
509 333 858 717 942 89 20 311 20 406 0z"/>
<path d="M12585 12633 c-290 -7 -576 -34 -721 -68 -167 -39 -314 -156 -394
-315 -98 -194 -149 -565 -150 -1076 l0 -161 1139 -1079 1138 -1079 -1191 -5
-1191 -5 -3 -813 -2 -813 1702 4 c1721 4 1792 6 2049 42 214 31 312 71 417
170 197 186 268 488 275 1170 l2 240 -1139 1080 -1139 1080 1062 3 1061 2 0
815 0 815 -1407 -2 c-775 -1 -1453 -3 -1508 -5z"/>
<path d="M19015 12630 c-556 -38 -1055 -226 -1452 -547 -420 -340 -645 -822
-740 -1583 -23 -185 -26 -884 -5 -1075 75 -680 281 -1169 636 -1516 309 -302
730 -527 1166 -623 281 -62 217 -59 1723 -63 l1377 -4 0 223 c0 352 -26 692
-67 857 -27 113 -77 206 -152 280 -220 220 -579 270 -1924 271 -503 0 -553 4
-680 55 -219 88 -347 241 -421 505 -65 229 -73 719 -16 1010 53 274 143 410
335 504 131 65 207 78 501 83 l262 5 -215 -783 c-117 -431 -216 -796 -220
-811 l-5 -28 784 0 784 0 432 1603 c238 881 435 1612 439 1625 l5 22 -1218 -1
c-671 -1 -1269 -5 -1329 -9z"/>
<path d="M23080 9930 l0 -2710 815 0 815 0 0 1895 0 1895 379 0 c465 0 538
-10 711 -93 89 -44 206 -160 248 -247 39 -81 76 -208 99 -342 16 -94 17 -228
20 -1605 l4 -1503 809 0 810 0 0 1503 c0 1492 -2 1597 -36 1862 -63 504 -235
956 -474 1245 -174 211 -418 395 -715 541 -315 154 -614 231 -1005 259 -86 6
-618 10 -1312 10 l-1168 0 0 -2710z"/>
<path d="M30515 12633 c-290 -7 -576 -34 -721 -68 -167 -39 -314 -156 -394
-315 -98 -194 -149 -565 -150 -1076 l0 -161 1139 -1079 1138 -1079 -1191 -5
-1191 -5 -3 -813 -2 -813 1702 4 c1721 4 1792 6 2049 42 214 31 312 71 417
170 197 186 268 488 275 1170 l2 240 -1139 1080 -1139 1080 1062 3 1061 2 0
815 0 815 -1407 -2 c-775 -1 -1453 -3 -1508 -5z"/>
<path d="M42326 12629 c-291 -13 -526 -46 -652 -94 -235 -88 -360 -288 -413
-663 -44 -303 -44 -300 -48 -2519 l-4 -2133 816 0 815 0 0 1895 0 1895 920 0
920 0 0 815 0 815 -1087 -2 c-599 0 -1168 -5 -1267 -9z"/>
<path d="M45920 9930 l0 -2710 815 0 815 0 0 1895 0 1895 379 0 c465 0 538
-10 711 -93 89 -44 206 -160 248 -247 39 -81 76 -208 99 -342 16 -94 17 -228
20 -1605 l4 -1503 809 0 810 0 0 1503 c0 1492 -2 1597 -36 1862 -63 504 -235
956 -474 1245 -174 211 -418 395 -715 541 -315 154 -614 231 -1005 259 -86 6
-618 10 -1312 10 l-1168 0 0 -2710z"/>
<path d="M66425 12630 c-556 -38 -1055 -226 -1452 -547 -420 -340 -645 -822
-740 -1583 -23 -185 -26 -884 -5 -1075 75 -680 281 -1169 636 -1516 309 -302
730 -527 1166 -623 281 -62 217 -59 1723 -63 l1377 -4 0 223 c0 352 -26 692
-67 857 -27 113 -77 206 -152 280 -220 220 -579 270 -1924 271 -503 0 -553 4
-680 55 -219 88 -347 241 -421 505 -65 229 -73 719 -16 1010 53 274 143 410
335 504 131 65 207 78 501 83 l262 5 -215 -783 c-117 -431 -216 -796 -220
-811 l-5 -28 784 0 784 0 432 1603 c238 881 435 1612 439 1625 l5 22 -1218 -1
c-671 -1 -1269 -5 -1329 -9z"/>
<path d="M5341 12604 c-160 -43 -292 -180 -337 -349 -18 -65 -17 -186 1 -254
27 -104 65 -160 212 -316 311 -331 450 -534 520 -762 23 -78 26 -104 26 -233
0 -129 -3 -155 -27 -234 -70 -232 -190 -415 -446 -681 -173 -181 -215 -232
-249 -306 -67 -143 -64 -304 8 -456 89 -186 226 -262 451 -251 113 6 164 24
299 104 729 433 1161 947 1280 1524 28 134 44 337 37 456 -24 405 -316 916
-725 1266 -192 165 -387 294 -616 408 -193 97 -306 119 -434 84z"/>
<path d="M1520 12589 c-201 -52 -613 -326 -878 -583 -206 -201 -338 -376 -446
-593 -234 -470 -233 -967 5 -1434 224 -439 597 -803 1140 -1113 169 -96 210
-109 349 -110 105 -1 120 1 172 26 104 48 210 169 266 302 23 53 26 75 26 166
0 170 -38 239 -262 478 -238 254 -328 374 -419 557 -120 240 -141 405 -78 620
62 214 188 409 437 675 202 216 235 256 273 330 74 148 72 274 -9 445 -81 171
-221 256 -421 254 -45 0 -112 -9 -155 -20z"/>
<path d="M3425 11809 c-169 -24 -364 -105 -501 -207 -363 -270 -526 -712 -413
-1122 112 -406 480 -729 898 -790 114 -17 342 -7 446 19 384 95 691 401 797
795 19 67 22 108 22 241 1 144 -2 170 -27 258 -117 425 -470 737 -907 803
-104 15 -221 16 -315 3z"/>
<path d="M3361 8614 c-225 -38 -422 -137 -585 -293 -156 -151 -202 -239 -476
-906 -56 -137 -270 -653 -475 -1145 -205 -492 -490 -1176 -633 -1520 -250
-602 -789 -1863 -1061 -2484 l-131 -299 0 -202 0 -203 32 -68 c75 -165 219
-326 354 -396 202 -105 438 -123 634 -47 106 41 199 106 395 275 94 81 512
438 930 794 418 356 846 720 950 809 105 90 205 170 223 179 31 15 36 15 61 1
27 -16 796 -669 1739 -1478 260 -223 514 -434 565 -468 162 -110 294 -155 457
-154 386 0 711 280 771 664 23 146 -5 273 -122 549 -33 79 -103 247 -156 373
-52 127 -215 516 -363 865 -147 349 -480 1139 -740 1755 -260 616 -577 1368
-705 1670 -128 303 -276 656 -330 785 -116 281 -154 357 -233 476 -242 361
-665 541 -1101 468z m270 -2476 c18 -35 161 -306 319 -603 158 -298 290 -550
293 -560 3 -11 0 -30 -6 -43 -18 -32 -664 -492 -692 -492 -26 0 -23 -2 -360
237 -143 102 -270 196 -282 210 -13 13 -23 36 -23 52 0 15 36 92 86 181 106
191 529 960 557 1015 47 88 65 89 108 3z m1272 -2407 c131 -246 195 -377 189
-383 -15 -15 -702 477 -702 503 0 24 275 261 298 257 10 -2 95 -151 215 -377z
m-2344 263 c69 -59 130 -113 134 -121 5 -7 5 -22 2 -33 -3 -11 -157 -126 -342
-256 -300 -212 -373 -259 -373 -241 0 8 398 728 411 744 6 7 18 13 26 13 8 0
72 -48 142 -106z"/>
<path d="M15475 5000 c-492 -53 -888 -324 -1104 -757 -122 -244 -195 -547
-221 -923 -32 -462 16 -924 132 -1258 181 -528 561 -862 1091 -958 126 -23
418 -24 542 -1 305 56 531 172 740 382 237 236 370 520 444 945 35 201 45 338
45 615 0 277 -10 414 -45 615 -74 425 -207 709 -444 945 -208 209 -440 329
-735 381 -105 18 -338 26 -445 14z m364 -844 c90 -25 163 -67 227 -131 162
-160 234 -464 234 -980 0 -711 -138 -1032 -480 -1116 -33 -8 -106 -13 -185
-13 -111 1 -142 5 -207 26 -241 79 -354 257 -415 648 -15 94 -18 178 -18 455
0 368 9 469 61 665 72 273 220 420 464 460 74 12 252 4 319 -14z"/>
<path d="M49475 5000 c-492 -53 -888 -324 -1104 -757 -122 -244 -195 -547
-221 -923 -32 -462 16 -924 132 -1258 181 -528 561 -862 1091 -958 126 -23
418 -24 542 -1 305 56 531 172 740 382 237 236 370 520 444 945 35 201 45 338
45 615 0 277 -10 414 -45 615 -74 425 -207 709 -444 945 -208 209 -440 329
-735 381 -105 18 -338 26 -445 14z m364 -844 c90 -25 163 -67 227 -131 162
-160 234 -464 234 -980 0 -711 -138 -1032 -480 -1116 -33 -8 -106 -13 -185
-13 -111 1 -142 5 -207 26 -241 79 -354 257 -415 648 -15 94 -18 178 -18 455
0 368 9 469 61 665 72 273 220 420 464 460 74 12 252 4 319 -14z"/>
<path d="M58095 5000 c-492 -53 -888 -324 -1104 -757 -122 -244 -195 -547
-221 -923 -32 -462 16 -924 132 -1258 181 -528 561 -862 1091 -958 126 -23
418 -24 542 -1 305 56 531 172 740 382 237 236 370 520 444 945 35 201 45 338
45 615 0 277 -10 414 -45 615 -74 425 -207 709 -444 945 -208 209 -440 329
-735 381 -105 18 -338 26 -445 14z m364 -844 c90 -25 163 -67 227 -131 162
-160 234 -464 234 -980 0 -711 -138 -1032 -480 -1116 -33 -8 -106 -13 -185
-13 -111 1 -142 5 -207 26 -241 79 -354 257 -415 648 -15 94 -18 178 -18 455
0 368 9 469 61 665 72 273 220 420 464 460 74 12 252 4 319 -14z"/>
<path d="M11480 3045 l0 -1935 425 0 425 0 0 1935 0 1935 -425 0 -425 0 0
-1935z"/>
<path d="M18583 4798 c7 -216 27 -350 66 -433 80 -172 171 -201 664 -212 l277
-6 0 -1519 0 -1518 425 0 425 0 0 1520 0 1520 505 0 505 0 0 415 0 415 -1436
0 -1437 0 6 -182z"/>
<path d="M25593 4798 c7 -216 27 -350 66 -433 80 -172 171 -201 664 -212 l277
-6 0 -1519 0 -1518 425 0 425 0 0 1520 0 1520 505 0 505 0 0 415 0 415 -1436
0 -1437 0 6 -182z"/>
<path d="M30250 3045 l0 -1935 1130 0 1130 0 0 415 0 415 -705 0 -705 0 0
1105 0 1105 705 0 705 0 0 415 0 415 -1130 0 -1130 0 0 -1935z"/>
<path d="M35605 4973 c-87 -8 -260 -45 -343 -74 -411 -145 -714 -468 -863
-920 -90 -274 -123 -524 -123 -934 0 -222 5 -335 17 -434 63 -496 203 -835
451 -1086 203 -206 425 -327 713 -387 105 -21 129 -22 766 -26 l657 -3 0 415
0 416 -595 0 c-506 0 -607 2 -673 16 -354 73 -492 379 -492 1089 0 710 138
1016 492 1089 65 13 163 16 623 16 l545 0 0 415 0 415 -567 -2 c-313 -1 -586
-3 -608 -5z"/>
<path d="M38780 3045 l0 -1935 425 0 425 0 0 1935 0 1935 -425 0 -425 0 0
-1935z"/>
<path d="M40760 4306 l0 -673 -67 -6 c-38 -4 -112 -7 -166 -7 -131 0 -278 -16
-357 -40 -160 -47 -224 -173 -250 -485 -5 -71 -10 -165 -10 -211 l0 -84 423
-2 422 -3 6 -615 c6 -697 10 -736 77 -870 76 -152 164 -183 565 -196 l197 -7
0 1936 0 1937 -420 0 -420 0 0 -674z"/>
<path d="M43560 3045 l0 -1935 425 0 425 0 2 1022 3 1023 444 -825 c244 -454
470 -866 502 -916 65 -99 152 -190 214 -221 110 -55 216 -71 528 -80 l227 -6
0 1936 0 1937 -425 0 -425 0 -2 -1023 -3 -1024 -532 1021 -532 1021 -425 3
-426 2 0 -1935z"/>
<path d="M52960 3045 l0 -1935 1130 0 1130 0 0 415 0 415 -705 0 -705 0 0
1520 0 1520 -425 0 -425 0 0 -1935z"/>
<path d="M62825 4973 c-87 -8 -260 -45 -343 -74 -411 -145 -714 -468 -863
-920 -90 -274 -123 -524 -123 -934 0 -222 5 -335 17 -434 63 -496 203 -835
451 -1086 203 -206 425 -326 713 -387 105 -22 126 -22 826 -26 l717 -3 -2
1258 -3 1258 -422 3 -423 2 0 -845 0 -845 -230 0 c-253 0 -342 12 -438 57
-256 121 -362 427 -362 1048 0 710 138 1016 492 1089 66 14 168 16 678 16
l600 0 0 415 0 415 -622 -2 c-343 -1 -641 -3 -663 -5z"/>
<path d="M66013 4183 c4 -844 6 -868 53 -1018 50 -156 152 -276 266 -314 102
-34 248 -51 436 -51 l172 0 0 -845 0 -845 425 0 425 0 0 844 0 843 218 6 c242
6 330 20 429 68 135 65 218 213 259 459 15 91 18 206 21 878 l5 772 -426 0
-426 0 0 -675 0 -675 -505 0 -505 0 0 675 0 675 -426 0 -425 0 4 -797z"/>
<path d="M31970 3620 c-267 -12 -365 -33 -438 -96 -50 -43 -97 -134 -117 -230
-17 -85 -35 -293 -35 -410 l0 -84 510 0 510 0 -2 413 -3 412 -125 1 c-69 1
-204 -2 -300 -6z"/>
</g>
</svg>
